{
.appVersion = "3184";
.formatVersion = 3;
DisplayStrings = (
"/_part.beetle1/_part.mantis1/_part.butterfly1/_part.caterpillar1/_part.bee1/_part.butterfly2/_part.queenant/_part.beetle2/_part.spider1/_part.insect1 
/_part.worm1/_part.dragonfly1/_part.spider2/_part.thief/_part.ladybug1/_part.dragonfly2/_part.caterpillar2/_part.ladybug2/_part.caterpillar4/_part.mosquito1 
/_part.ladybug3/_part.mantis2/_part.insect2/_part.insect3/_part.ladybug4/_part.spider3/_part.moth1/_part.mosquito2/_part.caterpillar3/_part.spider4 
HH/Placeholder HOHO/Placeholder OO
/mosquito1/beetle5/mantis2/insect3/insect4/beetle6/spider3/moth1/mosquito2/caterpillar3/spider4 
/beetle1/mantis1/butterfly1/caterpillar1/bee1/butterfly2/ant1/beetle2/spider1 
/insect1/worm1/dragonfly1/spider2/thief/beetle3/dragonfly2/insect2/beetle4/caterpillar2 


",
"Makeshift insects
lkasdjfjlkwjklafsdf
01/.notdef",
"abcdefghi
jklmnopq
rstuvwxyz"
);
customParameters = (
{
name = "Disable Subroutines";
value = 1;
},
{
name = "Use Typo Metrics";
value = 1;
}
);
date = "2023-03-31 04:31:39 +0000";
familyName = "Makeshift Insects";
featurePrefixes = (
{
automatic = 1;
code = "languagesystem DFLT dflt;
";
name = Languagesystems;
}
);
features = (
{
automatic = 1;
code = "feature calt;
";
tag = aalt;
},
{
code = "sub B E E T L E one by beetle1;
sub M O S Q U I T O one by mosquito1;
sub B E E T L E five by beetle5;
sub M A N T I S two by mantis2;
sub I N S E C T three by insect3;
sub I N S E C T four by insect4;
sub B E E T L E six by beetle6;
sub S P I D E R three by spider3;
sub M O T H one by moth1;
sub M O S Q U I T O two by mosquito2;
sub C A T E R P I L L A R three by caterpillar3;
sub S P I D E R four by spider4;
sub B E E T L E one by beetle1;
sub M A N T I S one by mantis1;
sub B U T T E R F L Y one by butterfly1;
sub C A T E R P I L L A R one by caterpillar1;
sub B E E one by bee1;
sub B U T T E R F L Y two by butterfly2;
sub A N T one by ant1;
sub B E E T L E two by beetle2;
sub S P I D E R one by spider1;

glyphs = (
{
glyphname = zero;
lastChange = "2023-04-26 05:56:52 +0000";
layers = (
{
layerId = m01;
shapes = (
{
attr = {
strokeWidth = 10;
};
closed = 1;
nodes = (
(376.5,-5,o),
(465,106.5,o),
(465,350,cs),
(465,593.5,o),
(376.5,705,o),
(265,705,cs),
(153.5,705,o),
(65,593.5,o),
(65,350,cs),
(65,106.5,o),
(153.5,-5,o),
(265,-5,cs)
);
}
);
width = 530;
}
);
unicode = 48;
},
{
glyphname = one;
lastChange = "2023-04-26 06:12:42 +0000";
layers = (
{
layerId = m01;
shapes = (
{
attr = {
lineCapEnd = 1;
lineCapStart = 1;
strokeWidth = 10;
};
closed = 0;
nodes = (
(73,577.5,l),
(251.5,708.5,ls),
(253,709.5,o),
(254,709,o),
(254,707.5,cs),
(254,0,l)
);
},
{
attr = {
lineCapEnd = 1;
lineCapStart = 1;
strokeWidth = 10;
};
closed = 0;
nodes = (
(65,0,l),
(440,0,l)
);
}
);
width = 455;
}
);
unicode = 49;
},
{
glyphname = two;
lastChange = "2023-04-26 06:13:23 +0000";
layers = (
{
layerId = m01;
shapes = (
{
attr = {
lineCapEnd = 1;
lineCapStart = 1;
strokeWidth = 10;
};
closed = 0;
nodes = (
(55,514,l),
(55,623.5,o),
(132.5,709.5,o),
(237,709.5,cs),
(347.5,709.5,o),
(416.5,633.5,o),
(416.5,524,cs),
(416.5,441.5,o),
(385.5,358.5,o),
(255.5,215,cs),
(63.5,3,ls),
(62,1.5,o),
(62.5,0,o),
(64.5,0,cs),
(438,0,l)
);
}
);
width = 493;
},
{
associatedMasterId = m01;
layerId = "D23ADA71-7AAC-4A16-A04F-4CE094BDE5E0";
name = "26 Apr 23 at 16:12";
shapes = (
{
attr = {
lineCapEnd = 1;
lineCapStart = 1;
strokeWidth = 10;
};
closed = 0;
nodes = (
(55,514,l),
(55,623.5,o),
(132.5,709.5,o),
(237,709.5,cs),
(347.5,709.5,o),
(416.5,633.5,o),
(416.5,524,cs),
(416.5,313.5,o),
(62.5,224,o),
(62.5,25.5,cs),
(62.5,2,ls),
(62.5,0.5,o),
(63,0,o),
(64.5,0,cs),
(438,0,l)
);
}
);
width = 493;
}
);
unicode = 50;
},
{
glyphname = three;
lastChange = "2023-04-26 06:13:51 +0000";
layers = (
{
layerId = m01;
shapes = (
{
attr = {
lineCapEnd = 1;
lineCapStart = 1;
strokeWidth = 10;
};
closed = 0;
nodes = (
(48,135,l),
(48,67.5,o),
(114.5,-8,o),
(233,-8,cs),
(352.5,-8,o),
(430,81.5,o),
(430,208,cs),
(430,320.5,o),
(349,402,o),
(218.5,402,cs),
(181,402,ls),
(179.5,402,o),
(179,403,o),
(180,404.5,cs),
(409.5,700,l),
(40,700,l)
);
}
);
width = 481.5;
}
);
unicode = 51;
},
{
glyphname = four;
lastChange = "2023-04-26 06:14:12 +0000";
layers = (
{
layerId = m01;
shapes = (
{
attr = {
lineCapEnd = 1;
lineCapStart = 1;
strokeWidth = 10;
};
closed = 0;
nodes = (
(386.5,-2,l),
(386.5,708.5,ls),
(386.5,710.5,o),
(385,711,o),
(384,709.5,cs),
(32,233.5,ls),
(31,232,o),
(31.5,231,o),
(33,231,cs),
(547.5,231,l)
);
}
);
width = 560;
}
);
unicode = 52;
},
{
glyphname = five;
lastChange = "2023-04-26 06:14:51 +0000";
layers = (
{
layerId = m01;
shapes = (
{
attr = {
lineCapEnd = 1;
lineCapStart = 1;
strokeWidth = 10;
};
closed = 0;
nodes = (
(432.5,700,l),
(113.5,700,ls),
(112,700,o),
(111.5,699.5,o),
(111.5,698,cs),
(82,360.5,ls),
(82,358.5,o),
(83,358,o),
(84.5,359.5,cs),
(137,413,o),
(188,425.5,o),
(234.5,425.5,cs),
(351.5,425.5,o),
(438.5,344,o),
(438.5,214,cs),
(438.5,68,o),
(349.5,-10,o),
(234.5,-10,cs),
(128,-10,o),
(62,55,o),
(62,121.5,c)
);
}
);
width = 495;
}
);
unicode = 53;
},
{
glyphname = six;
lastChange = "2023-04-26 06:12:22 +0000";
layers = (
{
layerId = m01;
shapes = (
{
attr = {
lineCapEnd = 1;
lineCapStart = 1;
strokeWidth = 10;
};
closed = 0;
nodes = (
(451,595.5,l),
(451,646,o),
(384,707.5,o),
(293.5,707.5,cs),
(180,707.5,o),
(65,590,o),
(65,327,cs),
(65,89,o),
(166,-11.5,o),
(281.5,-11.5,cs),
(378,-11.5,o),
(468,74.5,o),
(468,204,cs),
(468,335.5,o),
(386,420,o),
(278,420,cs),
(178.5,420,o),
(93.5,350.5,o),
(70,249,cs)
);
}
);
width = 518;
}
);
unicode = 54;
},
{
glyphname = seven;
lastChange = "2023-04-26 06:15:00 +0000";
layers = (
{
layerId = m01;
shapes = (
{
attr = {
lineCapEnd = 1;
lineCapStart = 1;
strokeWidth = 10;
};
closed = 0;
nodes = (
(15,700,l),
(471,700,ls),
(472.5,700,o),
(473,699,o),
(472.5,697.5,cs),
(158,-3.5,l)
);
}
);
width = 507.5;
}
);
unicode = 55;
},
{
glyphname = eight;
lastChange = "2023-04-26 06:15:07 +0000";
layers = (
{
layerId = m01;
shapes = (
{
attr = {
strokeWidth = 10;
};
closed = 1;
nodes = (
(395,-11,o),
(481,73.5,o),
(481,177.5,cs),
(481,281.5,o),
(395,366,o),
(268,366,cs),
(141,366,o),
(55,281.5,o),
(55,177.5,cs),
(55,73.5,o),
(141,-11,o),
(268,-11,cs)
);
},
{
attr = {
strokeWidth = 10;
};
closed = 1;
nodes = (
(377,366,o),
(452,442.5,o),
(452,536.5,cs),
(452,631,o),
(377,707.5,o),
(268,707.5,cs),
(159,707.5,o),
(84,631,o),
(84,536.5,cs),
(84,442.5,o),
(159,366,o),
(268,366,cs)
);
}
);
width = 536;
}
);
unicode = 56;
},
{
glyphname = .notdef;
lastChange = "2023-04-26 06:27:19 +0000";
layers = (
{
layerId = m01;
shapes = (
{
attr = {
lineCapEnd = "1";
lineCapStart = "1";
strokeWidth = 10;
};
closed = 1;
nodes = (
(483.5,0,ls),
(485,0,o),
(485.5,0.5,o),
(485.5,2,cs),
(485.5,698,ls),
(485.5,699.5,o),
(485,700,o),
(483.5,700,cs),
(87,700,ls),
(85.5,700,o),
(85,699.5,o),
(85,698,cs),
(85,2,ls),
(85,0.5,o),
(85.5,0,o),
(87,0,cs)
);
},
{
attr = {
strokeWidth = 10;
};
closed = 0;
nodes = (
(85,700,l),
(485.5,0,l)
);
},
{
attr = {
strokeWidth = 10;
};
closed = 0;
nodes = (
(485.5,700,l),
(85,0,l)
);
}
);
width = 570.5;
}
);
},
{
export = 0;
glyphname = _part.bee1;
lastChange = "2023-04-26 06:51:02 +0000";
layers = (
{
layerId = m01;
shapes = (
{
closed = 1;
nodes = (
(111,17.5,o),
(112,18.5,o),
(112,20,cs),
(112,32.5,l),
(120,32.5,l),
(120,22,ls),
(120,20.5,o),
(121,19.5,o),
(122.5,19.5,cs),
(124,19.5,o),
(125,20.5,o),
(125,22,cs),
(125,32.5,l),
(130,32.5,o),
(135.5,33.5,o),
(141,34.5,c),
(139.5,27,o),
(140.5,23,o),
(145.5,19.5,cs),
(148,17.5,o),
(151,21.5,o),
(148.5,23.5,cs),
(145,26.5,o),
(144.5,28,o),
(146.5,35.5,c),
(179,43,o),
(213,64,o),
(220,86.5,c),
(234,86.5,ls),
(238,86.5,o),
(240.5,89.5,o),
(240.5,93.5,cs),
(240.5,104,ls),
(240.5,105.5,o),
(239.5,106.5,o),
(238,106.5,cs),
(236.5,106.5,o),
(235.5,105.5,o),
(235.5,104,cs),
(235.5,93.5,ls),
(235.5,92,o),
(235.5,91.5,o),
(234,91.5,cs),
(221.5,91.5,l),
(221.5,95,ls),
(221.5,118,o),
(192,127.5,o),
(150,127.5,cs),
(143.5,127.5,o),
(137,127,o),
(131,126,c),
(131,151,ls),
(131,162,o),
(119.5,177,o),
(110.5,177,cs),
(101,177,o),
(93,166.5,o),
(87.5,153.5,c),
(83,160.5,o),
(75,165,o),
(67,165,cs),
(49.5,165,o),
(37.5,153,o),
(37.5,138.5,cs),
(37.5,123.5,o),
(54,110.5,o),
(68,101,c),
(63.5,99,o),
(58.5,97,o),
(54.5,94,c),
(54.5,95,ls),
(54.5,96.5,o),
(53.5,97.5,o),
(52,97.5,cs),
(50.5,97.5,o),
(49.5,96.5,o),
(49.5,95,cs),
(49.5,90.5,l),
(38.5,82,o),
(30.5,71,o),
(27.5,62,c),
(26.5,63,o),
(25,63.5,o),
(24,62.5,cs),
(16.5,56.5,o),
(4,45,o),
(2,43.5,cs),
(-1,40,o),
(1,36.5,o),
(6.5,37.5,c),
(27,48,l),
(29.5,39,o),
(38,32.5,o),
(49,32.5,cs),
(54.5,32.5,l),
(54.5,31,ls),
(54.5,29.5,o),
(55.5,28.5,o),
(57,28.5,cs),
(58.5,28.5,o),
(59.5,29.5,o),
(59.5,31,cs),
(59.5,32.5,l),
(69.5,32.5,l),
(69.5,22,ls),
(69.5,20.5,o),
(70.5,19.5,o),
(72,19.5,cs),
(73.5,19.5,o),
(74.5,20.5,o),
(74.5,22,cs),
(74.5,32.5,l),
(78.5,32.5,l),
(78.5,22,ls),
(78.5,20.5,o),
(79.5,19.5,o),
(81,19.5,cs),
(82.5,19.5,o),
(83.5,20.5,o),
(83.5,22,cs),
(83.5,32.5,l),
(107,32.5,l),
(107,20,ls),
(107,18.5,o),
(108,17.5,o),
(109.5,17.5,cs)
);
},
{
closed = 1;
nodes = (
(17.5,50.5,o),
(22.5,55,o),
(26.5,58,c),
(26,57,o),
(26,55.5,o),
(26,54.5,cs),
(26,53.5,l),
(13.5,47,l)
);
},
{
closed = 1;
nodes = (
(38,37.5,o),
(31,44.5,o),
(31,54.5,cs),
(31,62,o),
(38,74.5,o),
(49.5,84,c),
(50,62,ls),
(50,53,o),
(53,45.5,o),
(54,37.5,c),
(49,37.5,ls)
);
},
{
closed = 1;
nodes = (
(58,46.5,o),
(55,54,o),
(55,62,cs),
(54.5,88,l),
(60,92,o),
(66.5,95.5,o),
(73.5,97.5,c),
(74,97,o),
(75,97,o),
(75.5,96.5,c),
(75,71,ls),
(75,61,o),
(79.5,45.5,o),
(83,37.5,c),
(59,37.5,l)
);
},
{
closed = 1;
nodes = (
(85.5,42.5,o),
(80,60,o),
(80,71,cs),
(80.5,97,ls),
(80.5,97.5,o),
(80.5,98,o),
(80,98.5,c),
(79.5,100.5,o),
(86.5,100,o),
(88.5,100,cs),
(90,100,o),
(91,101,o),
(91,102.5,cs),
(91,104,o),
(90,105,o),
(88.5,105,cs),
(86,105,o),
(83.5,105,o),
(81.5,104.5,c),
(83,106,o),
(85.5,107,o),
(88,108.5,c),
(90.5,106,o),
(93,108.5,o),
(92.5,110.5,c),
(97,113,o),
(103,115,o),
(109,116.5,c),
(108.5,116,o),
(108.5,115.5,o),
(108.5,115,cs),
(108.5,83.5,ls),
(108.5,68.5,o),
(112.5,48,o),
(114,39.5,cs),
(114,38.5,o),
(114.5,38,o),
(115,37.5,c),
(88.5,37.5,l)
);
},
{
closed = 1;
nodes = (
(59,113,o),
(42.5,125,o),
(42.5,138.5,cs),
(42.5,151,o),
(51.5,160,o),
(67,160,cs),
(75,160,o),
(83,154,o),
(85,147,c),
(83,139.5,o),
(81.5,132,o),
(81.5,125.5,cs),
(81.5,120,o),
(83,115.5,o),
(85,112.5,c),
(79.5,109.5,o),
(75.5,106.5,o),
(73.5,103.5,c)
);
},
{
closed = 1;
nodes = (
(118.5,38,o),
(119,39,o),
(119,39.5,cs),
(117.5,49,o),
(113.5,68.5,o),
(113.5,83.5,cs),
(113.5,115,ls),
(113.5,116,o),
(113,117,o),
(112,117.5,c),
(116.5,118.5,o),
(121,119.5,o),
(126,120.5,c),
(126.5,119.5,o),
(127.5,118.5,o),
(128.5,118.5,cs),
(130,118.5,o),
(131,119.5,o),
(131,121,c),
(136.5,122,o),
(142.5,122.5,o),
(148.5,122.5,c),
(148.5,82,ls),
(148.5,68.5,o),
(150,51.5,o),
(153,42.5,c),
(142.5,39,o),
(132,37.5,o),
(122.5,37.5,cs),
(118,37.5,l)
);
},
{
closed = 1;
nodes = (
(87.5,117,o),
(86.5,120.5,o),
(86.5,125.5,cs),
(86.5,131,o),
(87.5,137.5,o),
(89.5,144,c),
(90,144.5,o),
(90.5,145,o),
(90.5,146,cs),
(90.5,147,l),
(94.5,160,o),
(102.5,172,o),
(110.5,172,cs),
(116.5,172,o),
(126,160,o),
(126,151,cs),
(126,125.5,l),
(112,123,o),
(99,119,o),
(89.5,114.5,c)
);
},
{
closed = 1;
nodes = (
(155,52.5,o),
(153.5,69,o),
(153.5,82,cs),
(153.5,122,l),
(192.5,122,o),
(216.5,113.5,o),
(216.5,95,cs),
(216.5,75,o),
(188.5,54,o),
(158,43.5,c)
);
},
{
closed = 1;
nodes = (
(187.5,75,o),
(195.5,84,o),
(195.5,94,cs),
(195.5,95.5,o),
(194.5,96.5,o),
(193,96.5,cs),
(191.5,96.5,o),
(190.5,95.5,o),
(190.5,94,cs),
(190.5,86,o),
(184.5,80,o),
(180,80,cs),
(179.5,80,o),
(179,81,o),
(179,82,cs),
(179,95.5,ls),
(179,97,o),
(178,98,o),
(176.5,98,cs),
(175,98,o),
(174,97,o),
(174,95.5,cs),
(174,82,ls),
(174,78.5,o),
(177,75,o),
(180,75,cs)
);
},
{
closed = 1;
nodes = (
(169.5,102.5,o),
(171,104,o),
(171,105.5,cs),
(171,106,o),
(169.5,107.5,o),
(169,107.5,cs),
(167.5,107.5,o),
(166,106,o),
(166,105.5,cs),
(166,104,o),
(167.5,102.5,o),
(169,102.5,cs)
);
},
{
closed = 1;
nodes = (
(197.5,103,o),
(199,104.5,o),
(199,106,cs),
(199,107,o),
(197.5,108.5,o),
(196.5,108.5,cs),
(195,108.5,o),
(193.5,107,o),
(193.5,106,cs),
(193.5,104.5,o),
(195,103,o),
(196.5,103,cs)
);
}
);
width = 225;
}
);
},
{
export = 0;
glyphname = _part.beetle1;
lastChange = "2023-04-27 04:12:37 +0000";
layers = (
{
layerId = m01;
shapes = (
{
closed = 1;
nodes = (
(73,51.5,o),
(69.5,51.5,o),
(66.5,52,c),
(72,54.5,o),
(74.5,61.5,o),
(74.5,64.5,c),
(76,63.5,o),
(78.5,62.5,o),
(81,62.5,cs),
(88,62.5,o),
(92,67.5,o),
(92,73,cs),
(92,62,o),
(85,51.5,o),
(76,51.5,cs)
);
},
{
closed = 1;
nodes = (
(77,46.5,o),
(78,46.5,o),
(79,47,c),
(79.5,46.5,o),
(79.5,46.5,o),
(80,46.5,c),
(88,42,l),
(92,37,o),
(97.5,41,o),
(93.5,47.5,cs),
(90,53.5,l),
(92,56,o),
(94,59.5,o),
(95,62.5,c),
(100.5,59,o),
(107,57.5,o),
(107,53.5,cs),
(107,39.5,l),
(105.5,39,o),
(105,37.5,o),
(105,35.5,cs),
(105,33.5,o),
(106,32.5,o),
(108,32.5,cs),
(109,32.5,l),
(111,32.5,o),
(112,33.5,o),
(112,35,cs),
(112,53.5,ls),
(112,62.5,o),
(100.5,64.5,o),
(96.5,68,c),
(97,69.5,o),
(97,71.5,o),
(97,73,cs),
(97,74.5,o),
(97,76.5,o),
(96.5,78,c),
(103.5,78,ls),
(104,78,o),
(108,72,o),
(109.5,68.5,cs),
(109.5,67,o),
(110,66,o),
(110,65.5,cs),
(110.5,64.5,o),
(111.5,64,o),
(112.5,64,cs),
(115.5,64,o),
(116.5,65.5,o),
(116.5,68,cs),
(116.5,70,o),
(115.5,71,o),
(114,71,c),
(111.5,76,o),
(107,83,o),
(103.5,83,cs),
(95.5,83,l),
(94.5,87.5,o),
(92.5,91.5,o),
(89.5,95,c),
(93.5,97,o),
(98,100.5,o),
(99,100.5,cs),
(99.5,100.5,o),
(105,92.5,o),
(105,89.5,cs),
(105,88,o),
(106,87,o),
(107.5,87,cs),
(108,87,o),
(108.5,87,o),
(109,87.5,c),
(111,87.5,o),
(112,88,o),
(112,90.5,cs),
(112,92.5,o),
(111,94,o),
(109,94,c),
(107,99,o),
(102.5,105.5,o),
(99,105.5,cs),
(96.5,105.5,o),
(90,101,o),
(86,98.5,c),
(80.5,103.5,o),
(73.5,107,o),
(65.5,108.5,c),
(66.5,112,o),
(71,118,o),
(76,118,cs),
(80,118,o),
(81,109.5,o),
(85,105,c),
(86,104.5,o),
(86.5,104.5,o),
(87,104.5,c),
(87.5,104,o),
(88,104,o),
(88.5,104,cs),
(91,104,o),
(91.5,105.5,o),
(91.5,107.5,cs),
(91.5,110,o),
(91,110.5,o),
(88.5,110.5,cs),
(87.5,110.5,l),
(85,114.5,o),
(83,123,o),
(76,123,cs),
(68.5,123,o),
(62,114.5,o),
(60.5,109.5,c),
(57.5,110,o),
(54,110,o),
(51,110,cs),
(49.5,110,l),
(24.5,109.5,o),
(15,96,o),
(15,80,cs),
(15,74,o),
(17,69,o),
(20.5,64.5,c),
(1.5,63,l),
(1.5,34.5,l),
(0.5,34,o),
(0,33,o),
(0,32.5,cs),
(0,30.5,o),
(2.5,28,o),
(4.5,28,cs),
(6,28,o),
(8.5,30.5,o),
(8.5,32.5,cs),
(8.5,33,o),
(7.5,34,o),
(6.5,35,c),
(6.5,58,l),
(24,60,l),
(25,60,ls),
(26,60,o),
(27,58.5,o),
(28.5,58,c),
(22.5,54.5,l),
(24,30.5,l),
(22,29.5,o),
(20.5,27.5,o),
(20.5,26.5,cs),
(20.5,24.5,o),
(22.5,22,o),
(25,22,cs),
(25.5,22,o),
(26.5,23,o),
(27,24,c),
(28,24.5,o),
(29,25.5,o),
(29,26.5,cs),
(27.5,51.5,l),
(33.5,55,l),
(36,53.5,o),
(39,52.5,o),
(41.5,51.5,c),
(36.5,46,l),
(42,39,l),
(42.5,25.5,l),
(41,24.5,o),
(40,23,o),
(40,22,cs),
(40,20,o),
(42,17.5,o),
(44.5,17.5,cs),
(45,17.5,o),
(47.5,20,o),
(47.5,22,cs),
(47,41,l),
(43.5,46,l),
(47,50,l),
(53,48.5,o),
(59.5,47.5,o),
(66.5,47,c),
(66.5,40.5,o),
(65.5,32,o),
(66,26.5,c),
(65,26,o),
(64.5,25.5,o),
(64.5,23.5,cs),
(64.5,21.5,o),
(65.5,20,o),
(67.5,20,cs),
(69.5,20,o),
(71,21,o),
(71.5,22,c),
(71.5,24,ls),
(71.5,24.5,o),
(71.5,25,o),
(71,25.5,c),
(70.5,29,o),
(71.5,39,o),
(71.5,46.5,c),
(76,46.5,ls)
);
},
{
closed = 1;
nodes = (
(59,56,o),
(56.5,58,o),
(56.5,62.5,cs),
(56.5,67.5,o),
(57.5,68.5,o),
(62.5,68.5,cs),
(66.5,68.5,o),
(69.5,67,o),
(69.5,65,cs),
(69.5,62.5,o),
(67,56,o),
(62.5,56,cs)
);
},
{
closed = 1;
nodes = (
(65.5,60.5,o),
(67,61,o),
(67,62.5,cs),
(67,63.5,o),
(65.5,65,o),
(64.5,65,cs),
(63,65,o),
(62.5,63.5,o),
(62.5,62.5,cs),
(62.5,61,o),
(63,60.5,o),
(64.5,60.5,cs)
);
},
{
closed = 1;
nodes = (
(38,94,o),
(56,89,o),
(64.5,73.5,c),
(62.5,73.5,ls),
(55.5,73.5,o),
(51.5,69.5,o),
(51.5,62.5,cs),
(51.5,58,o),
(53.5,55,o),
(56,53,c),
(48.5,54.5,l),
(48,55.5,o),
(46.5,56,o),
(45.5,55.5,c),
(42.5,56.5,o),
(39,57.5,o),
(36.5,59,c),
(36,60,o),
(35,61,o),
(33.5,60.5,c),
(25,65,o),
(20,71.5,o),
(20,80,cs),
(20,84,o),
(20.5,88,o),
(22,91,c)
);
},
{
closed = 1;
nodes = (
(82.5,69.5,o),
(83.5,70,o),
(83.5,71.5,cs),
(83.5,72.5,o),
(82.5,73,o),
(81,73,cs),
(79.5,73,o),
(79,72.5,o),
(79,71.5,cs),
(79,70,o),
(79.5,69.5,o),
(81,69.5,cs)
);
},
{
closed = 1;
nodes = (
(77.5,67.5,o),
(76,69,o),
(76,71.5,cs),
(76,77,o),
(77.5,78,o),
(85,78,cs),
(85.5,78,o),
(87,76,o),
(87,73,cs),
(87,69.5,o),
(85,67.5,o),
(81,67.5,cs)
);
},
{
closed = 1;
nodes = (
(62,85.5,o),
(52,93.5,o),
(52,105,c),
(76,104.5,o),
(92,93,o),
(92,73,cs),
(92,79.5,o),
(88,83,o),
(85,83,cs),
(81.5,83,o),
(79,82.5,o),
(76.5,81.5,c),
(77,82,o),
(77,82.5,o),
(77,83,cs),
(77,84.5,o),
(76,85.5,o),
(74.5,85.5,cs)
);
},
{
closed = 1;
nodes = (
(29.5,101,o),
(36.5,104,o),
(47,105,c),
(47,100.5,o),
(48.5,96,o),
(50.5,92.5,c),
(42.5,96,o),
(33.5,97.5,o),
(25.5,96.5,c)
);
},
{
closed = 1;
nodes = (
(67.5,81,o),
(71,80.5,o),
(74.5,80.5,c),
(72,78.5,o),
(71,76,o),
(71,71.5,cs),
(70.5,71.5,o),
(69.5,72,o),
(69,72.5,c),
(69.5,73,o),
(70,74,o),
(69,75,c),
(68,78,o),
(66,80,o),
(64.5,82,c)
);
},
{
closed = 1;
nodes = (
(85.5,49.5,o),
(86,49.5,o),
(86,50,c),
(87.5,48,l),
(85,49,l)
);
}
);
width = 225;
}
);
},
{
export = 0;
glyphname = _part.beetle2;
lastChange = "2023-04-26 06:51:59 +0000";
layers = (
{
layerId = m01;
shapes = (
{
closed = 1;
nodes = (
(23.5,46.5,l),
(24,48.5,o),
(25,49,o),
(26.5,49.5,cs),
(28.5,50.5,o),
(38.5,52,o),
(45,53.5,c),
(50,36,o),
(65,22.5,o),
(82.5,22.5,cs),
(86.5,22.5,o),
(90.5,23,o),
(94.5,24,c),
(95,23.5,o),
(95.5,23.5,o),
(96,23.5,cs),
(97,23.5,o),
(97.5,24,o),
(98,24.5,c),
(113.5,28.5,o),
(128,38.5,o),
(137,51,c),
(158.5,51,ls),
(160.5,51,o),
(162,50.5,o),
(162.5,50,cs),
(186.5,22,ls),
(189,19.5,o),
(192.5,23,o),
(190.5,25,cs),
(166.5,53,ls),
(164,55.5,o),
(160.5,56,o),
(158.5,56,cs),
(140,56,l),
(143,62,o),
(145,68.5,o),
(145,75.5,cs),
(145,79.5,o),
(144.5,83,o),
(144.5,87,c),
(176,120.5,ls),
(178.5,123,o),
(174.5,126,o),
(172,123.5,cs),
(143.5,93,l),
(141.5,101.5,o),
(139,109.5,o),
(137,114.5,cs),
(137,115,o),
(137.5,116,o),
(137.5,116.5,cs),
(137,122,o),
(141.5,131.5,o),
(149,139,cs),
(156.5,148,o),
(161.5,154.5,o),
(161.5,158.5,cs),
(161.5,163,o),
(161,167,o),
(158,170.5,cs),
(155,173,o),
(152,169,o),
(154,166.5,cs),
(156,165,o),
(156.5,163,o),
(156.5,158.5,cs),
(156.5,156.5,o),
(152.5,151,o),
(145,142,cs),
(139,136,o),
(134.5,128,o),
(133,121.5,c),
(132.5,122,o),
(132.5,122,o),
(132.5,122.5,c),
(131,123.5,o),
(131,124,o),
(131,128,cs),
(131,134.5,o),
(127,140,o),
(120.5,143.5,c),
(120.5,147.5,o),
(117.5,151.5,o),
(113.5,154.5,c),
(114.5,156.5,o),
(115,158.5,o),
(115,161,cs),
(115,167,o),
(109,175.5,o),
(102,175.5,cs),
(100.5,175.5,o),
(99.5,174.5,o),
(99.5,173,cs),
(99.5,171.5,o),
(100.5,170.5,o),
(102,170.5,cs),
(103.5,170.5,o),
(105,169.5,o),
(106.5,168.5,c),
(105.5,168,o),
(105,167,o),
(105,166,cs),
(105,158,l),
(103,158.5,o),
(101,159,o),
(99,159,cs),
(98,159,o),
(96.5,159,o),
(95.5,158.5,c),
(95.5,165.5,ls),
(95.5,166.5,o),
(94.5,167.5,o),
(93.5,168,c),
(94.5,169,o),
(95.5,169.5,o),
(97,169.5,cs),
(98.5,169.5,o),
(99.5,170.5,o),
(99.5,172,cs),
(99.5,173.5,o),
(98.5,174.5,o),
(97,174.5,cs),
(87,174.5,o),
(83,160,o),
(84,152.5,c),
(82.5,150,o),
(81.5,147.5,o),
(81,144,c),
(72.5,140.5,o),
(67.5,134.5,o),
(67.5,128,cs),
(67.5,127,o),
(67.5,127,o),
(66,125.5,cs),
(62.5,123,o),
(59.5,119.5,o),
(57,115,c),
(49.5,123.5,ls),
(45.5,128,o),
(43,131,o),
(45.5,136.5,cs),
(57.5,160.5,ls),
(59,163.5,o),
(55,165.5,o),
(53.5,162.5,cs),
(41.5,138.5,ls),
(37.5,130.5,o),
(41.5,125,o),
(45.5,120.5,cs),
(54.5,110.5,l),
(51,104,o),
(48,96,o),
(46,87.5,c),
(2.5,87.5,ls),
(1,87.5,o),
(0,86.5,o),
(0,85,cs),
(0,83.5,o),
(1,82.5,o),
(2.5,82.5,cs),
(45,82.5,l),
(44,77,o),
(43.5,71,o),
(43.5,65.5,cs),
(43.5,63,o),
(43.5,60.5,o),
(44,58,c),
(37,56.5,o),
(27,55.5,o),
(24.5,54.5,cs),
(22,54,o),
(20,51.5,o),
(18.5,48.5,cs),
(5,21,ls),
(3.5,18,o),
(7.5,16,o),
(9,19,cs)
);
},
{
closed = 1;
nodes = (
(60.5,31.5,o),
(48.5,47.5,o),
(48.5,65.5,cs),
(48.5,80.5,o),
(52.5,96.5,o),
(58.5,108,c),
(60,108.5,o),
(60.5,110,o),
(60.5,111,c),
(63,115.5,o),
(65.5,119,o),
(69,121.5,c),
(69,121,o),
(69.5,121,o),
(70,121,cs),
(74,121,l),
(72,101,o),
(68,72.5,o),
(68,59.5,cs),
(68,47,o),
(72.5,35,o),
(76.5,28,c)
);
},
{
closed = 1;
nodes = (
(83,27.5,o),
(82.5,28,o),
(82.5,28,cs),
(78,34,o),
(73,46,o),
(73,59.5,cs),
(73,72.5,o),
(77,100.5,o),
(79,121,c),
(93.5,121,l),
(93.5,28.5,l),
(90,28,o),
(87,27.5,o),
(83.5,27.5,cs)
);
},
{
closed = 1;
nodes = (
(98.5,121,l),
(111.5,121,l),
(114.5,105.5,o),
(118.5,85.5,o),
(118.5,76,cs),
(118.5,62.5,o),
(116,46.5,o),
(110.5,36,cs),
(110,35.5,o),
(110,35,o),
(110,34.5,c),
(106.5,32.5,o),
(102.5,31,o),
(98.5,30,c)
);
},
{
closed = 1;
nodes = (
(121.5,49.5,o),
(123.5,64,o),
(123.5,76,cs),
(123.5,86,o),
(119.5,106,o),
(116.5,121,c),
(127,121,l),
(127.5,120,o),
(128,119.5,o),
(128.5,118.5,c),
(132.5,115,o),
(140,96,o),
(140,75.5,cs),
(140,60.5,o),
(130,47,o),
(117,38.5,c)
);
},
{
closed = 1;
nodes = (
(72.5,126.5,o),
(72.5,127,o),
(72.5,128,cs),
(72.5,135.5,o),
(82,142.5,o),
(100.5,142.5,cs),
(116,142.5,o),
(126,137,o),
(126,128,cs),
(126,126,l),
(72,126,l)
);
},
{
closed = 1;
nodes = (
(111,147,o),
(106,147.5,o),
(100.5,147.5,cs),
(95,147.5,o),
(90.5,147,o),
(86.5,146,c),
(86.5,147,o),
(87,147.5,o),
(87.5,148.5,c),
(88.5,148.5,o),
(89.5,149.5,o),
(89.5,151,c),
(91.5,153,o),
(95,154,o),
(99,154,cs),
(106.5,154,o),
(113.5,149.5,o),
(115,145.5,c)
);
},
{
closed = 1;
nodes = (
(95.5,148,o),
(96,149,o),
(96,150.5,cs),
(96,152,o),
(95.5,152.5,o),
(94,152.5,cs),
(92.5,152.5,o),
(91.5,152,o),
(91.5,150.5,cs),
(91.5,149,o),
(92.5,148,o),
(94,148,cs)
);
},
{
closed = 1;
nodes = (
(89,158.5,o),
(89.5,161,o),
(90.5,163,c),
(90.5,157.5,l),
(90,157,o),
(89.5,157,o),
(89,156.5,c)
);
},
{
closed = 1;
nodes = (
(106.5,148,o),
(107.5,149,o),
(107.5,150.5,cs),
(107.5,152,o),
(106.5,152.5,o),
(105,152.5,cs),
(103.5,152.5,o),
(103,152,o),
(103,150.5,cs),
(103,149,o),
(103.5,148,o),
(105,148,cs)
);
}
);
width = 225;
}
);
},
{
export = 0;
glyphname = _part.butterfly1;
lastChange = "2023-04-26 06:50:24 +0000";
layers = (
{
layerId = m01;
shapes = (
{
closed = 1;
nodes = (
(22,20.5,o),
(97.5,69,o),
(101,75.5,cs),
(103,78.5,o),
(98.5,81,o),
(97,78.5,cs),
(93.5,73,o),
(20,25.5,o),
(13.5,25.5,cs),
(12.5,25.5,o),
(12.5,25.5,o),
(12.5,26.5,cs),
(12.5,29.5,o),
(51,72.5,o),
(96,89.5,cs),
(101.5,91,o),
(100,98.5,o),
(93.5,96.5,cs),
(89,94.5,o),
(70,88.5,o),
(11.5,88.5,cs),
(8,88.5,o),
(7,89,o),
(7,92,cs),
(7,100.5,o),
(38,107.5,o),
(67.5,107.5,cs),
(75,107.5,o),
(90.5,105,o),
(97,103.5,cs),
(105,102.5,o),
(106.5,110,o),
(99.5,112.5,c),
(84,114.5,o),
(54,124,o),
(46.5,132,cs),
(43.5,134.5,o),
(26,153.5,o),
(26,157,cs),
(26,157.5,o),
(28,159,o),
(34.5,159,cs),
(51,159,o),
(76,140,o),
(97,117.5,cs),
(99.5,115,o),
(103,118.5,o),
(101,120.5,cs),
(79,144,o),
(53,164,o),
(34.5,164,cs),
(26,164,o),
(21,161.5,o),
(21,157,cs),
(21,151.5,o),
(39.5,131.5,o),
(42.5,128,cs),
(51,120,o),
(83,109.5,o),
(98.5,107.5,c),
(101.5,106.5,o),
(102.5,108,o),
(98,108.5,cs),
(91.5,110,o),
(75,112.5,o),
(67.5,112.5,cs),
(36.5,112.5,o),
(2,105.5,o),
(2,92,cs),
(2,86,o),
(6,83.5,o),
(11.5,83.5,cs),
(71,83.5,o),
(91,89.5,o),
(95.5,91.5,c),
(95,91.5,o),
(95,94.5,o),
(95,94.5,c),
(47.5,76.5,o),
(7.5,32.5,o),
(7.5,26.5,cs),
(7.5,23,o),
(10,20.5,o),
(13.5,20.5,cs)
);
},
{
closed = 1;
nodes = (
(107.5,71.5,o),
(111.5,77.5,o),
(111.5,83,cs),
(113,121,ls),
(113,123,o),
(111.5,130,o),
(106.5,131,cs),
(105,131,o),
(104,130,o),
(104,128.5,cs),
(104,127,o),
(105,126,o),
(106.5,126,cs),
(107,126,o),
(108,122,o),
(108,121,cs),
(106.5,83,ls),
(106.5,79.5,o),
(104.5,76.5,o),
(102,76.5,c),
(102,76.5,o),
(101.5,77,o),
(101.5,80.5,cs),
(101.5,128.5,ls),
(101.5,129,o),
(104.5,131,o),
(104.5,131.5,cs),
(104.5,133,o),
(103.5,134,o),
(102,134,cs),
(98.5,134,o),
(96.5,132,o),
(96.5,128.5,cs),
(96.5,80.5,ls),
(96.5,75,o),
(98,71.5,o),
(102,71.5,cs)
);
},
{
closed = 1;
nodes = (
(207,43,o),
(208,47,o),
(208,51.5,cs),
(208,63,o),
(169,86,o),
(109,96.5,cs),
(107.5,96.5,o),
(106.5,95.5,o),
(106.5,94,cs),
(106.5,92.5,o),
(107.5,91.5,o),
(109,91.5,cs),
(166,81,o),
(203,59,o),
(203,51.5,cs),
(203,48,o),
(203,48,o),
(200.5,48,cs),
(190.5,48,o),
(128.5,63,o),
(108,82.5,cs),
(105.5,85,o),
(102.5,81,o),
(105,78.5,cs),
(126.5,58,o),
(189.5,43,o),
(200.5,43,cs)
);
},
{
closed = 1;
nodes = (
(103.5,133,o),
(108,135,o),
(107,138,cs),
(103.5,145,o),
(97,153,o),
(92,155.5,cs),
(89.5,157.5,o),
(87,153,o),
(90,151.5,cs),
(94,149,o),
(99.5,142,o),
(102,136,cs)
);
},
{
closed = 1;
nodes = (
(106,131.5,o),
(107,132.5,o),
(107,134,cs),
(109,157,o),
(127.5,178,o),
(131.5,178,cs),
(133,178,o),
(133,177.5,o),
(131.5,174,c),
(129.5,171.5,o),
(134,169,o),
(135.5,172,cs),
(139.5,178.5,o),
(136.5,183,o),
(131.5,183,cs),
(124.5,183,o),
(104,160,o),
(102,134,cs),
(102,132.5,o),
(103,131.5,o),
(104.5,131.5,cs)
);
},
{
closed = 1;
nodes = (
(140,90,o),
(203.5,109.5,o),
(211,112.5,cs),
(217,115.5,o),
(216,121.5,o),
(210,121.5,cs),
(143.5,121.5,o),
(132.5,120,o),
(109.5,107.5,c),
(111.5,109,o),
(111.5,103.5,o),
(111.5,103.5,c),
(134.5,115.5,o),
(194.5,158,o),
(194.5,167,cs),
(194.5,169.5,o),
(193.5,173,o),
(189,173,cs),
(159.5,173,o),
(108.5,138.5,o),
(105.5,116.5,cs),
(105.5,115,o),
(106.5,114,o),
(108,114,cs),
(109.5,114,o),
(110.5,115,o),
(110.5,116.5,cs),
(113.5,135.5,o),
(161.5,168,o),
(189,168,cs),
(189.5,168,o),
(189.5,168.5,o),
(189.5,167,cs),
(189.5,162.5,o),
(132,120,o),
(109.5,108.5,cs),
(104.5,106.5,o),
(107.5,99.5,o),
(112.5,103.5,c),
(134.5,115,o),
(143.5,116.5,o),
(210,116.5,cs),
(210.5,116.5,o),
(211,118.5,o),
(209,117.5,cs),
(201.5,114.5,o),
(139,95,o),
(120,95,cs),
(118.5,95,o),
(117.5,94,o),
(117.5,92.5,cs),
(117.5,91,o),
(118.5,90,o),
(120,90,cs)
);
}
);
width = 225;
}
);
},
{
export = 0;
glyphname = _part.butterfly2;
lastChange = "2023-04-26 06:51:08 +0000";
layers = (
{
layerId = m01;
shapes = (
{
closed = 1;
nodes = (
(79,43,o),
(107.5,61,o),
(107.5,75.5,cs),
(107.5,81,o),
(103.5,87.5,o),
(96,87.5,cs),
(89,87.5,o),
(73.5,74.5,o),
(63.5,68.5,cs),
(60.5,67,o),
(63,62.5,o),
(65.5,64.5,cs),
(76.5,70.5,o),
(91,82.5,o),
(96,82.5,cs),
(100.5,82.5,o),
(102.5,79,o),
(102.5,75.5,cs),
(102.5,64,o),
(77,48,o),
(61,45.5,cs),
(59.5,45.5,o),
(58.5,44.5,o),
(58.5,43,cs),
(58.5,41.5,o),
(59.5,40.5,o),
(61,40.5,cs)
);
},
{
closed = 1;
nodes = (
(36,16.5,o),
(45.5,18,o),
(53.5,23,cs),
(56.5,24.5,o),
(54,29,o),
(51.5,27,c),
(43.5,23,o),
(36,21.5,o),
(27,21.5,cs),
(14.5,21.5,o),
(5,27.5,o),
(5,41.5,cs),
(5,47.5,o),
(8.5,50.5,o),
(16.5,50.5,cs),
(22,50.5,o),
(30,48,o),
(39.5,44.5,cs),
(43,43.5,o),
(44.5,48,o),
(41.5,49.5,cs),
(32,53,o),
(23,55.5,o),
(16.5,55.5,cs),
(6.5,55.5,o),
(0,50.5,o),
(0,41.5,cs),
(0,24.5,o),
(12.5,16.5,o),
(27,16.5,cs)
);
},
{
closed = 1;
nodes = (
(44.5,41.5,o),
(47.5,45.5,o),
(45,47.5,cs),
(28.5,59.5,o),
(20.5,70.5,o),
(20.5,75.5,cs),
(20.5,79,o),
(22,81,o),
(25,81,cs),
(32,81,o),
(42.5,73,o),
(52,59,cs),
(54.5,55.5,o),
(57.5,60,o),
(56,62,cs),
(46.5,76,o),
(34,86,o),
(25,86,cs),
(19,86,o),
(15.5,81,o),
(15.5,75.5,cs),
(15.5,68.5,o),
(24.5,55.5,o),
(42,43.5,cs)
);
},
{
closed = 1;
nodes = (
(58,22.5,o),
(59,23.5,o),
(59,25,cs),
(59,33.5,o),
(60.5,40.5,o),
(62.5,47,cs),
(64,54,o),
(65.5,60,o),
(65.5,67,cs),
(65.5,84,o),
(60.5,96,o),
(42,96,cs),
(40.5,96,o),
(39.5,95,o),
(39.5,93.5,cs),
(39.5,92,o),
(40.5,91,o),
(42,91,cs),
(56.5,91,o),
(60.5,83,o),
(60.5,67,cs),
(60.5,61,o),
(59,55,o),
(57.5,48,cs),
(55.5,41.5,o),
(54,33.5,o),
(54,25,cs),
(54,23.5,o),
(55,22.5,o),
(56.5,22.5,cs)
);
},
{
closed = 1;
nodes = (
(98.5,23.5,o),
(120.5,40,o),
(120.5,52,cs),
(120.5,58,o),
(114.5,61.5,o),
(106,61.5,cs),
(101,61.5,o),
(93,59,o),
(88.5,57,cs),
(85.5,55.5,o),
(87.5,51,o),
(90.5,52,cs),
(95,54,o),
(102,56.5,o),
(106,56.5,cs),
(112.5,56.5,o),
(115.5,55,o),
(115.5,52,cs),
(115.5,43,o),
(96.5,28.5,o),
(70,28.5,cs),
(68.5,28.5,o),
(67.5,27.5,o),
(67.5,26,cs),
(67.5,24.5,o),
(68.5,23.5,o),
(70,23.5,cs)
);
},
{
closed = 1;
nodes = (
(64,66,o),
(65,66.5,o),
(65.5,67.5,cs),
(71,84,o),
(74.5,91.5,o),
(90.5,94.5,cs),
(91.5,94.5,o),
(92.5,95.5,o),
(92.5,97,cs),
(92.5,98.5,o),
(91.5,99.5,o),
(89.5,99.5,c),
(71.5,95.5,o),
(66,86,o),
(60.5,69.5,cs),
(60,68,o),
(61.5,66,o),
(63,66,cs)
);
}
);
width = 225;
}
);
},
{
export = 0;
glyphname = _part.caterpillar1;
lastChange = "2023-04-26 06:50:35 +0000";
layers = (
{
layerId = m01;
shapes = (
{
closed = 1;
nodes = (
(52.5,17.5,o),
(53.5,18.5,o),
(53.5,20,cs),
(53.5,26.5,ls),
(53.5,27.5,o),
(53,28.5,o),
(52,28.5,c),
(55.5,29.5,o),
(57.5,31.5,o),
(59.5,33,cs),
(61,34.5,o),
(64.5,35.5,o),
(67,35.5,cs),
(68,35.5,o),
(72.5,34.5,o),
(75.5,34,cs),
(77.5,33.5,o),
(79.5,32.5,o),
(82,32,c),
(81,31.5,o),
(80,30.5,o),
(80,29.5,cs),
(80,23,ls),
(80,21.5,o),
(81,20.5,o),
(82.5,20.5,cs),
(84,20.5,o),
(85,21.5,o),
(85,23,cs),
(85,29.5,ls),
(85,30,o),
(84.5,31,o),
(84.5,31,c),
(85.5,31,o),
(86.5,30.5,o),
(87.5,30.5,c),
(87,30,o),
(87,29.5,o),
(87,29,cs),
(87.5,24.5,ls),
(87.5,23,o),
(88.5,22,o),
(90,22,cs),
(91.5,22,o),
(92.5,23,o),
(92.5,24.5,cs),
(92,29,l),
(92,30,l),
(93,30,ls),
(95,30,o),
(97,30.5,o),
(99,31,c),
(100.5,23,ls),
(100.5,21.5,o),
(101.5,20.5,o),
(103,20.5,cs),
(104.5,20.5,o),
(105.5,21.5,o),
(105.5,23,cs),
(104,30.5,ls),
(104,31.5,o),
(103.5,32,o),
(103,32.5,c),
(107,34.5,o),
(110,37.5,o),
(113,39.5,cs),
(115.5,40.5,o),
(118,40.5,o),
(119.5,40.5,cs),
(127.5,40.5,o),
(133,35,o),
(138.5,26,cs),
(140.5,22.5,o),
(144,27,o),
(142.5,29,cs),
(137,38,o),
(129.5,45.5,o),
(119.5,45.5,cs),
(118,45.5,o),
(114.5,45.5,o),
(111,43.5,cs),
(105,40.5,o),
(100.5,35,o),
(93,35,cs),
(87,35,o),
(82,37.5,o),
(76.5,39,cs),
(73.5,39.5,o),
(69,40.5,o),
(67,40.5,cs),
(63.5,40.5,o),
(59,38.5,o),
(56.5,37,cs),
(53.5,34.5,o),
(51.5,33,o),
(46,33,cs),
(40,33,o),
(34,38.5,o),
(26,43,cs),
(22,45.5,o),
(16.5,47,o),
(12,47,cs),
(6.5,47,o),
(2,44.5,o),
(0.5,40.5,cs),
(0,39,o),
(1.5,37,o),
(3,37,cs),
(4,37,o),
(5,37.5,o),
(5.5,38.5,cs),
(6,40,o),
(7,41,o),
(8.5,41.5,c),
(8,41,o),
(8,40.5,o),
(8,40,cs),
(7.5,33.5,ls),
(7.5,32,o),
(8.5,31,o),
(10,31,cs),
(11.5,31,o),
(12.5,32,o),
(12.5,33.5,cs),
(13,40,ls),
(13,41,o),
(12.5,41.5,o),
(12,42,c),
(13,42,o),
(14,42,o),
(15.5,41.5,c),
(14.5,41.5,o),
(14,40.5,o),
(14,39.5,cs),
(13.5,34,ls),
(13.5,32.5,o),
(14.5,31.5,o),
(16,31.5,cs),
(17.5,31.5,o),
(18.5,32.5,o),
(18.5,34,cs),
(19,39.5,ls),
(19,40,o),
(19,40.5,o),
(18.5,41,c),
(20.5,40.5,o),
(22,39.5,o),
(24,39,c),
(29.5,35.5,o),
(35,30.5,o),
(41.5,28.5,cs),
(41,28.5,o),
(41,28,o),
(41,27,cs),
(42.5,21,ls),
(42.5,20,o),
(43.5,19,o),
(45,19,cs),
(46.5,19,o),
(47.5,20,o),
(47.5,22,c),
(46,28,l),
(49,28,l),
(48.5,27.5,o),
(48.5,27,o),
(48.5,26.5,cs),
(48.5,20,ls),
(48.5,18.5,o),
(49.5,17.5,o),
(51,17.5,cs)
);
},
{
closed = 1;
nodes = (
(40.5,16.5,o),
(41.5,17.5,o),
(41.5,19,cs),
(41,26.5,ls),
(41,28,o),
(40,29,o),
(38.5,29,cs),
(37,29,o),
(36,28,o),
(36,26.5,cs),
(36.5,19,ls),
(36.5,17.5,o),
(37.5,16.5,o),
(39,16.5,cs)
);
},
{
closed = 1;
nodes = (
(22,25,o),
(23,26,o),
(23,27,cs),
(24.5,33.5,ls),
(24.5,35.5,o),
(23.5,36.5,o),
(22,36.5,cs),
(20.5,36.5,o),
(19.5,35.5,o),
(19.5,34.5,cs),
(18,28,ls),
(18,26,o),
(19,25,o),
(20.5,25,cs)
);
},
{
closed = 1;
nodes = (
(34,19.5,o),
(35,20.5,o),
(35,22,cs),
(35.5,29.5,ls),
(35.5,31,o),
(34.5,32,o),
(33,32,cs),
(32,32,o),
(31,31,o),
(30.5,30,c),
(31,31.5,ls),
(31,33.5,o),
(30,34.5,o),
(28.5,34.5,cs),
(27,34.5,o),
(26,33.5,o),
(26,32.5,cs),
(24.5,26.5,l),
(24.5,24.5,o),
(25.5,23.5,o),
(27,23.5,cs),
(28.5,23.5,o),
(29.5,24.5,o),
(29.5,25.5,cs),
(30.5,30,l),
(30,22,ls),
(30,20.5,o),
(31,19.5,o),
(32.5,19.5,cs)
);
},
{
closed = 1;
nodes = (
(58.5,18,o),
(59.5,19,o),
(59.5,20.5,cs),
(59,26.5,ls),
(59,28,o),
(58,29,o),
(56.5,29,cs),
(55,29,o),
(54,28,o),
(54,26.5,cs),
(54.5,20.5,ls),
(54.5,19,o),
(55.5,18,o),
(57,18,cs)
);
},
{
closed = 1;
nodes = (
(64.5,19.5,o),
(65.5,20.5,o),
(65.5,22,cs),
(65,30.5,ls),
(65,32,o),
(64,33,o),
(62.5,33,cs),
(61,33,o),
(60,32,o),
(60,30.5,cs),
(60.5,22,ls),
(60.5,20.5,o),
(61.5,19.5,o),
(63,19.5,cs)
);
},
{
closed = 1;
nodes = (
(70.5,22.5,o),
(71.5,23.5,o),
(71.5,25,cs),
(72.5,31,ls),
(72.5,32.5,o),
(71.5,33.5,o),
(70,33.5,cs),
(68.5,33.5,o),
(67.5,32.5,o),
(67.5,31,cs),
(66.5,25,ls),
(66.5,23.5,o),
(67.5,22.5,o),
(69,22.5,cs)
);
},
{
closed = 1;
nodes = (
(77.5,21,o),
(78.5,22,o),
(78.5,23.5,cs),
(79,29,ls),
(79,30.5,o),
(78,31.5,o),
(76.5,31.5,cs),
(75,31.5,o),
(74,30.5,o),
(74,29,cs),
(73.5,23.5,ls),
(73.5,22,o),
(74.5,21,o),
(76,21,cs)
);
},
{
closed = 1;
nodes = (
(97.5,20.5,o),
(98.5,21.5,o),
(98.5,23,cs),
(98.5,27.5,ls),
(98.5,29,o),
(97.5,30,o),
(96,30,cs),
(94.5,30,o),
(93.5,29,o),
(93.5,27.5,cs),
(93.5,23,ls),
(93.5,21.5,o),
(94.5,20.5,o),
(96,20.5,cs)
);
},
{
closed = 1;
nodes = (
(110.5,23.5,o),
(111.5,24.5,o),
(111.5,26,cs),
(110.5,32.5,ls),
(110.5,34,o),
(109.5,35,o),
(108,35,cs),
(106.5,35,o),
(105.5,34,o),
(105.5,32.5,cs),
(106.5,26,ls),
(106.5,24.5,o),
(107.5,23.5,o),
(109,23.5,cs)
);
},
{
closed = 1;
nodes = (
(118,27,o),
(119,28,o),
(119,29.5,cs),
(118,36.5,ls),
(118,38,o),
(117,39,o),
(115.5,39,cs),
(114,39,o),
(113,38,o),
(113,36.5,cs),
(114,29.5,ls),
(114,28,o),
(115,27,o),
(116.5,27,cs)
);
},
{
closed = 1;
nodes = (
(130,23.5,o),
(131,24.5,o),
(131,26,cs),
(131,29,ls),
(131,30.5,o),
(130,31.5,o),
(128.5,31.5,cs),
(127,31.5,o),
(126,30.5,o),
(126,29,cs),
(126,26,ls),
(126,24.5,o),
(127,23.5,o),
(128.5,23.5,cs)
);
},
{
closed = 1;
nodes = (
(124,28.5,o),
(125,29.5,o),
(125,31,cs),
(125,37,ls),
(125,38.5,o),
(124,39.5,o),
(122.5,39.5,cs),
(121,39.5,o),
(120,38.5,o),
(120,37,cs),
(120,31,ls),
(120,29.5,o),
(121,28.5,o),
(122.5,28.5,cs)
);
},
{
closed = 1;
nodes = (
(136,17.5,o),
(137,18.5,o),
(137,20,cs),
(137.5,26.5,ls),
(137.5,28,o),
(136.5,29,o),
(135,29,cs),
(133.5,29,o),
(132.5,28,o),
(132.5,26.5,cs),
(132,20,ls),
(132,18.5,o),
(133,17.5,o),
(134.5,17.5,cs)
);
}
);
width = 225;
}
);
},
{
export = 0;
glyphname = _part.caterpillar2;
lastChange = "2023-04-26 06:55:21 +0000";
layers = (
{
layerId = m01;
shapes = (
{
closed = 1;
nodes = (
(38.5,16.5,o),
(39.5,17.5,o),
(39.5,19,cs),
(42.5,41.5,l),
(43.5,41.5,o),
(44.5,42,o),
(46,42,c),
(53,37.5,o),
(57,30,o),
(56.5,23,cs),
(56.5,21.5,o),
(57.5,20.5,o),
(59,20.5,cs),
(60.5,20.5,o),
(61.5,21.5,o),
(61.5,23,cs),
(62,30,o),
(58.5,38.5,o),
(52,43.5,c),
(66,47.5,o),
(81.5,52.5,o),
(85.5,56.5,cs),
(90.5,61.5,o),
(99.5,66,o),
(103,66.5,c),
(103,41,ls),
(103,39.5,o),
(104,38.5,o),
(105.5,38.5,cs),
(107,38.5,o),
(108,39.5,o),
(108,41,cs),
(108,67,l),
(123.5,56,ls),
(126,54,o),
(129,58,o),
(126.5,60,cs),
(114.5,69,l),
(116,69.5,o),
(117,70,o),
(118,70.5,c),
(119.5,70,o),
(120.5,71,o),
(121,72,cs),
(121.5,72.5,o),
(122,73,o),
(122.5,73.5,cs),
(124.5,75.5,o),
(125,77,o),
(125,78,cs),
(125,80,l),
(125.5,80,o),
(126,80,o),
(126.5,80.5,cs),
(143.5,92.5,o),
(148,102,o),
(148,108.5,cs),
(148,115,o),
(145,120,o),
(139.5,120,cs),
(131.5,120,o),
(124,108,o),
(121,88.5,c),
(117,104,o),
(111,114,o),
(104.5,114,cs),
(98.5,114,o),
(96,107.5,o),
(96,102.5,cs),
(96,97,o),
(101,89,o),
(107.5,81.5,c),
(104,79,o),
(100,76.5,o),
(97.5,75,cs),
(97,74.5,o),
(96.5,74.5,o),
(96.5,74,c),
(96,75,o),
(95.5,75.5,o),
(95,76,c),
(94,99,o),
(87,114,o),
(79,114,cs),
(75.5,114,o),
(72.5,110.5,o),
(72.5,105.5,cs),
(72.5,98,o),
(80.5,84.5,o),
(90,74,c),
(90,72.5,ls),
(90,72,o),
(90,71.5,o),
(90.5,71,c),
(87.5,69.5,o),
(85.5,69,o),
(83,69,cs),
(81.5,69,l),
(78.5,89.5,o),
(71.5,105.5,o),
(62.5,105.5,cs),
(57,105.5,o),
(54,99.5,o),
(54,94,cs),
(54,93,o),
(54,92,o),
(54.5,91,c),
(52,94,o),
(49.5,95.5,o),
(46.5,95.5,cs),
(41,95.5,o),
(37.5,92,o),
(37.5,87.5,cs),
(37.5,80,o),
(44,68.5,o),
(52,59.5,c),
(48,59.5,o),
(43.5,59,o),
(39.5,58.5,c),
(39.5,79,o),
(31.5,100,o),
(20.5,100,cs),
(12.5,100,o),
(8,94.5,o),
(8,87,cs),
(8,74,o),
(19.5,64.5,o),
(30.5,56,c),
(24,54,o),
(18.5,51.5,o),
(16.5,48,c),
(2.5,48,ls),
(1,48,o),
(0,47,o),
(0,45.5,cs),
(0,44,o),
(1,43,o),
(2.5,43,cs),
(16,43,l),
(16.5,41.5,o),
(18,40.5,o),
(21,40,c),
(14,30,ls),
(12,27,o),
(16,24.5,o),
(18,27,cs),
(26.5,39.5,l),
(29.5,39.5,ls),
(31.5,39.5,o),
(34,40,o),
(37,40.5,c),
(34.5,19,ls),
(34.5,17.5,o),
(35.5,16.5,o),
(37,16.5,cs)
);
},
{
closed = 1;
nodes = (
(23.5,68,o),
(13,76,o),
(13,87,cs),
(13,92.5,o),
(15.5,95,o),
(20.5,95,cs),
(27,95,o),
(34,78,o),
(34.5,59.5,c)
);
},
{
closed = 1;
nodes = (
(49.5,69.5,o),
(42.5,81,o),
(42.5,87.5,cs),
(42.5,90,o),
(43,90.5,o),
(46.5,90.5,cs),
(52.5,90.5,o),
(58,74,o),
(58,60.5,c)
);
},
{
closed = 1;
nodes = (
(63,67.5,o),
(62,74,o),
(60,80.5,c),
(63,75.5,o),
(67,71,o),
(71.5,66.5,c),
(68.5,65.5,o),
(66.5,64.5,o),
(65.5,63,cs),
(65,62,o),
(64,61.5,o),
(63,61,c)
);
},
{
closed = 1;
nodes = (
(67.5,77.5,o),
(59,88.5,o),
(59,94,cs),
(59,97.5,o),
(60.5,100.5,o),
(62.5,100.5,cs),
(67.5,100.5,o),
(73.5,87.5,o),
(76.5,68.5,c)
);
},
{
closed = 1;
nodes = (
(82.5,91,o),
(77.5,100,o),
(77.5,105.5,cs),
(77.5,108,o),
(78,109,o),
(79,109,cs),
(83,109,o),
(87.5,99.5,o),
(89.5,82.5,c)
);
},
{
closed = 1;
nodes = (
(105.5,91,o),
(101,98,o),
(101,102.5,cs),
(101,106.5,o),
(102.5,109,o),
(104.5,109,cs),
(108,109,o),
(113,100,o),
(116.5,86,c),
(115,85.5,o),
(113.5,84.5,o),
(112,84,c)
);
},
{
closed = 1;
nodes = (
(128,104.5,o),
(135,115,o),
(139.5,115,cs),
(142,115,o),
(143,113,o),
(143,108.5,cs),
(143,103.5,o),
(140,96.5,o),
(125.5,86,c)
);
}
);
width = 225;
}
);
},
{
export = 0;
glyphname = _part.caterpillar3;
lastChange = "2023-04-26 07:02:03 +0000";
layers = (
{
background = {
shapes = (
{
attr = {
lineCapEnd = "1";
lineCapStart = "1";
strokeWidth = 10;
};
closed = 0;
nodes = (
(102.5,66.5,l),
(90,40.5,l)
);
},
{
attr = {
lineCapEnd = "1";
lineCapStart = "1";
strokeWidth = 10;
};
closed = 0;
nodes = (
(127,63.5,l),
(119.5,32,l)
);
},
{
attr = {
lineCapEnd = "1";
lineCapStart = "1";
strokeWidth = 10;
};
closed = 0;
nodes = (
(156.5,51.5,l),
(151,32,l)
);
},
{
attr = {
lineCapEnd = "1";
lineCapStart = "1";
strokeWidth = 10;
};
closed = 0;
nodes = (
(183.5,52,l),
(181,29.5,l)
);
},
{
attr = {
lineCapEnd = "1";
lineCapStart = "1";
strokeWidth = 10;
};
closed = 0;
nodes = (
(207,51,l),
(213,33.5,l)
);
},
{
attr = {
lineCapEnd = "1";
lineCapStart = "1";
strokeWidth = 10;
};
closed = 0;
nodes = (
(230.5,70.5,l),
(231.5,53.5,l)
);
},
{
attr = {
lineCapEnd = "1";
lineCapStart = "1";
strokeWidth = 10;
};
closed = 0;
nodes = (
(262,70,l),
(257,50,l)
);
},
{
attr = {
lineCapEnd = "1";
lineCapStart = "1";
strokeWidth = 10;
};
closed = 0;
nodes = (
(286,48,l),
(277.5,30.5,l)
);
}
);
};
layerId = m01;
shapes = (
{
closed = 1;
nodes = (
(35.5,18,o),
(54.5,29,o),
(63,41.5,c),
(64.5,40.5,o),
(65.5,40,o),
(67,40,cs),
(68.5,40,o),
(70.5,41,o),
(72,43,c),
(72.5,41,o),
(74,39.5,o),
(77,39.5,cs),
(78.5,39.5,o),
(80,40.5,o),
(81,41.5,c),
(81.5,37.5,o),
(84,34,o),
(88.5,34,cs),
(91.5,34,o),
(95,36.5,o),
(98,40.5,c),
(98.5,38.5,o),
(100,37,o),
(102.5,37,cs),
(103.5,37,o),
(104.5,37.5,o),
(105.5,38,c),
(106.5,35.5,o),
(108.5,34,o),
(111.5,34,cs),
(115,34,o),
(118,36,o),
(121,38.5,c),
(121.5,37.5,o),
(123,36.5,o),
(125,36.5,cs),
(126,36.5,o),
(127,37,o),
(127.5,37,c),
(129,34.5,o),
(131.5,32.5,o),
(135,32.5,cs),
(138.5,32.5,o),
(141.5,35,o),
(143.5,38.5,c),
(144,36.5,o),
(146,34.5,o),
(148.5,34.5,cs),
(151.5,34.5,o),
(153.5,36.5,o),
(153.5,40,c),
(155,38,o),
(157.5,37,o),
(160,37,cs),
(163,37,o),
(165,39.5,o),
(166,43.5,c),
(167,43,o),
(168,42.5,o),
(169,42.5,cs),
(173,42.5,o),
(174.5,47,o),
(173.5,49.5,cs),
(172.5,52,l),
(173.5,51.5,o),
(174,51.5,o),
(175,51.5,cs),
(177.5,51.5,o),
(179,52.5,o),
(180,54.5,c),
(181,53,o),
(182.5,52.5,o),
(184,52.5,cs),
(185,52.5,o),
(185.5,52.5,o),
(186,53,c),
(187.5,50.5,o),
(190,49,o),
(193,49,cs),
(194,49,o),
(194.5,49,o),
(195.5,49.5,c),
(195,46.5,o),
(197,44.5,o),
(199.5,44,c),
(200,38.5,o),
(202.5,34.5,o),
(208,34.5,cs),
(211,34.5,o),
(214,36,o),
(216,38,c),
(218,32.5,o),
(224,29,o),
(229.5,29,cs),
(249,29,o),
(267.5,41.5,o),
(270,58.5,cs),
(271.5,65.5,o),
(274.5,71,o),
(274.5,76.5,cs),
(274.5,83.5,o),
(270,88,o),
(264,88,cs),
(259,88,o),
(250.5,82,o),
(242.5,73,cs),
(235.5,64.5,o),
(228.5,59.5,o),
(225.5,59,cs),
(223.5,58.5,o),
(221.5,57.5,o),
(220,56.5,c),
(219,59,o),
(217.5,61.5,o),
(215,62,c),
(213,64.5,o),
(209,65.5,o),
(207,63,cs),
(203.5,59.5,l),
(204,61.5,o),
(204.5,63.5,o),
(204.5,65.5,cs),
(204.5,70,o),
(202.5,76.5,o),
(196.5,76.5,cs),
(192.5,76.5,o),
(189.5,73.5,o),
(187.5,70,c),
(186.5,70.5,o),
(185.5,71,o),
(184.5,71,cs),
(183,71,o),
(182,70.5,o),
(181,69.5,c),
(179.5,73,o),
(176.5,76.5,o),
(172,76.5,cs),
(166.5,76.5,o),
(163.5,72,o),
(163.5,68,cs),
(163.5,66.5,o),
(163.5,65.5,o),
(164,64,c),
(162,64,o),
(161,63,o),
(160.5,61.5,c),
(159,62,o),
(158,62.5,o),
(156.5,62.5,cs),
(151.5,62.5,o),
(149,58.5,o),
(148.5,55,c),
(148,55.5,o),
(147.5,55.5,o),
(147,55.5,cs),
(145.5,60,o),
(142.5,64.5,o),
(137.5,64.5,cs),
(132.5,64.5,o),
(129,59.5,o),
(127,55,c),
(125.5,60,o),
(122.5,64.5,o),
(117,64.5,cs),
(114.5,64.5,o),
(112.5,63,o),
(110.5,61,c),
(110,61.5,o),
(109,62,o),
(107.5,62,cs),
(106.5,62,o),
(105.5,62,o),
(105,61.5,c),
(104.5,66.5,o),
(101.5,72,o),
(95.5,72,cs),
(91.5,72,o),
(88.5,68,o),
(86,63,c),
(86,63.5,o),
(85.5,63.5,o),
(85,63.5,c),
(85.5,65,o),
(85.5,66,o),
(85.5,66.5,cs),
(85.5,70,o),
(83.5,75.5,o),
(77.5,75.5,cs),
(75.5,75.5,o),
(73,74,o),
(71,72,c),
(68.5,79,o),
(56.5,89.5,o),
(44.5,89.5,cs),
(33.5,89.5,o),
(20.5,81,o),
(18.5,69,cs),
(17.5,64.5,o),
(14,60,o),
(10,57,cs),
(4.5,52,o),
(0.5,44.5,o),
(0.5,38,cs),
(0.5,28.5,o),
(8,18,o),
(21.5,18,cs)
);
},
{
closed = 1;
nodes = (
(14,28,o),
(10.5,32.5,o),
(10.5,38,cs),
(10.5,41.5,o),
(12.5,46,o),
(16,49,cs),
(21,53,o),
(26.5,60.5,o),
(28.5,67,cs),
(29.5,74,o),
(37.5,79.5,o),
(44.5,79.5,cs),
(52,79.5,o),
(61.5,70.5,o),
(61.5,69.5,cs),
(61.5,67,o),
(58,62,o),
(58,54.5,cs),
(58,44,o),
(36,28,o),
(21.5,28,cs)
);
},
{
closed = 1;
nodes = (
(23.5,37.5,o),
(24.5,38.5,o),
(24.5,40.5,cs),
(23,47.5,ls),
(23,48.5,o),
(22,49.5,o),
(20.5,49.5,cs),
(19,49.5,o),
(18,48.5,o),
(18,46.5,cs),
(19.5,39.5,ls),
(19.5,38.5,o),
(20.5,37.5,o),
(22,37.5,cs)
);
},
{
closed = 1;
nodes = (
(30.5,39.5,o),
(31.5,40.5,o),
(31.5,42.5,c),
(29,51,l),
(29,52,o),
(28,53,o),
(26.5,53,cs),
(25,53,o),
(24,52,o),
(24,50,c),
(26.5,41.5,l),
(26.5,40.5,o),
(27.5,39.5,o),
(29,39.5,cs)
);
},
{
closed = 1;
nodes = (
(36.5,39,o),
(40,43,o),
(38.5,45.5,cs),
(34,53,ls),
(32,56.5,o),
(28.5,52.5,o),
(30,50,cs),
(34.5,42.5,ls)
);
},
{
closed = 1;
nodes = (
(43,44,o),
(46.5,47.5,o),
(44.5,49.5,cs),
(39,56,ls),
(36.5,58.5,o),
(33,55,o),
(35,53,cs),
(40.5,46.5,ls)
);
},
{
closed = 1;
nodes = (
(40,59.5,o),
(44.5,64,o),
(44.5,67.5,cs),
(44.5,71,o),
(43,73.5,o),
(39.5,73.5,cs),
(36,73.5,o),
(31,69.5,o),
(31,66,cs),
(31,62.5,o),
(33.5,59.5,o),
(37,59.5,cs)
);
},
{
closed = 1;
nodes = (
(37.5,62.5,o),
(37,63.5,o),
(37,64.5,cs),
(37,66.5,o),
(37.5,67,o),
(39,67,cs),
(40,67,o),
(41,66.5,o),
(41,65,cs),
(41,63.5,o),
(40,62.5,o),
(39,62.5,cs)
);
},
{
closed = 1;
nodes = (
(55,58,o),
(59.5,63.5,o),
(59.5,67,cs),
(59.5,70.5,o),
(57,73,o),
(53.5,73,cs),
(50.5,73,o),
(46,68,o),
(46,65,cs),
(46,61.5,o),
(48,58,o),
(51.5,58,cs)
);
},
{
closed = 1;
nodes = (
(49,61.5,o),
(48,62,o),
(48,63.5,cs),
(48,65,o),
(49,66,o),
(50.5,66,cs),
(51.5,66,o),
(52,65,o),
(52,63.5,cs),
(52,62,o),
(51.5,61.5,o),
(50.5,61.5,cs)
);
},
{
closed = 1;
nodes = (
(66.5,45,o),
(66,45.5,o),
(66,46,cs),
(67,49,o),
(68,51.5,o),
(68,54.5,cs),
(68,57,o),
(69,60,o),
(70,63,c),
(73,67,o),
(75.5,70.5,o),
(77.5,70.5,cs),
(79.5,70.5,o),
(80.5,69,o),
(80.5,66.5,cs),
(80.5,64,o),
(69,45,o),
(67,45,cs)
);
},
{
closed = 1;
nodes = (
(86.5,39,o),
(86,40.5,o),
(86,44,cs),
(86,48,o),
(91,67,o),
(95.5,67,cs),
(98.5,67,o),
(100,64,o),
(100,60.5,cs),
(100,49.5,o),
(92,39,o),
(88.5,39,cs)
);
},
{
closed = 1;
nodes = (
(109.5,39,o),
(109,40.5,o),
(109,44.5,cs),
(109,45,o),
(109,46,o),
(109.5,47,cs),
(111,51.5,ls),
(112.5,55.5,o),
(115,59.5,o),
(117,59.5,cs),
(119,59.5,o),
(120.5,58,o),
(121,56,c),
(119.5,55,o),
(118.5,53.5,o),
(118.5,51,cs),
(119.5,45,l),
(117.5,41.5,o),
(114.5,39,o),
(111.5,39,cs)
);
},
{
closed = 1;
nodes = (
(132,37.5,o),
(130.5,40.5,o),
(130.5,48,cs),
(130.5,51,o),
(133.5,59.5,o),
(137.5,59.5,cs),
(140.5,59.5,o),
(142,56,o),
(142,52,cs),
(142,44.5,o),
(138.5,37.5,o),
(135,37.5,cs)
);
},
{
closed = 1;
nodes = (
(156.5,42,o),
(153.5,48,o),
(153.5,54,cs),
(153.5,56,o),
(154,57.5,o),
(156.5,57.5,cs),
(159.5,57.5,o),
(162,52.5,o),
(162,50.5,cs),
(162,45,o),
(161,42,o),
(160,42,cs)
);
},
{
closed = 1;
nodes = (
(171.5,56.5,o),
(168.5,62,o),
(168.5,68,cs),
(168.5,70,o),
(169.5,71.5,o),
(172,71.5,cs),
(175,71.5,o),
(177.5,66.5,o),
(177.5,65,cs),
(177.5,59,o),
(176.5,56.5,o),
(175,56.5,cs)
);
},
{
closed = 1;
nodes = (
(190.5,54,o),
(189.5,55.5,o),
(189.5,60.5,cs),
(189.5,63,o),
(192.5,71.5,o),
(196.5,71.5,cs),
(198.5,71.5,o),
(199.5,69,o),
(199.5,65.5,cs),
(199.5,59.5,o),
(197,54,o),
(193,54,cs)
);
},
{
closed = 1;
nodes = (
(205.5,39.5,o),
(204.5,41,o),
(204.5,45.5,c),
(214,56,l),
(215.5,55.5,o),
(216,53.5,o),
(216,51.5,cs),
(216,50,ls),
(215.5,48.5,o),
(215.5,47.5,o),
(215,46,cs),
(214,42,o),
(211,39.5,o),
(208,39.5,cs)
);
},
{
closed = 1;
nodes = (
(227,39,o),
(225,40.5,o),
(225,43.5,cs),
(225,47,o),
(226,48.5,o),
(227.5,49,cs),
(232.5,50.5,o),
(242.5,57.5,o),
(250.5,66,cs),
(256,73,o),
(262.5,78,o),
(264,78,cs),
(264.5,78,o),
(264.5,78,o),
(264.5,76.5,cs),
(264.5,74,o),
(261.5,68.5,o),
(260,60.5,cs),
(258.5,48.5,o),
(245,39,o),
(229.5,39,cs)
);
}
);
width = 300;
}
);
},
{
export = 0;
glyphname = _part.caterpillar4;
lastChange = "2023-04-26 06:56:13 +0000";
layers = (
{
layerId = m01;
shapes = (
{
closed = 1;
nodes = (
(40.5,28,o),
(47.5,43,o),
(47.5,55,cs),
(47.5,56.5,o),
(47.5,58,o),
(47,59.5,c),
(51,60,o),
(55.5,60.5,o),
(60,60.5,c),
(60,59.5,l),
(65.5,40,l),
(58,39.5,o),
(57.5,40.5,o),
(57.5,43,cs),
(57.5,55,ls),
(57.5,56.5,o),
(56.5,57.5,o),
(55,57.5,cs),
(53.5,57.5,o),
(52.5,56.5,o),
(52.5,55,cs),
(52.5,43,ls),
(52.5,37,o),
(55,34.5,o),
(67,35,c),
(68.5,30,ls),
(70.5,22.5,o),
(76.5,22,o),
(78,29,cs),
(78.5,32.5,o),
(79.5,35.5,o),
(87.5,34.5,cs),
(89,34.5,o),
(90,35.5,o),
(90,37,cs),
(90,38.5,o),
(89,39.5,o),
(87.5,39.5,cs),
(77.5,40.5,o),
(74.5,35.5,o),
(73.5,31.5,c),
(65,60.5,l),
(67.5,61,o),
(69.5,61.5,o),
(72,62.5,c),
(73.5,45,ls),
(74,40,o),
(79,37.5,o),
(82.5,41,cs),
(83.5,42,o),
(87,43,o),
(94,42.5,cs),
(95.5,42.5,o),
(96.5,43.5,o),
(96.5,45,cs),
(96.5,46.5,o),
(95.5,47.5,o),
(94,47.5,cs),
(86.5,48,o),
(80.5,46.5,o),
(78.5,44,c),
(78.5,45,l),
(77,63.5,l),
(79.5,65,o),
(82,66.5,o),
(84.5,68.5,cs),
(87,70.5,o),
(93,74,o),
(100,78.5,c),
(104,69,l),
(104,69.5,o),
(103.5,69.5,o),
(103,69.5,cs),
(101.5,69.5,o),
(100.5,68.5,o),
(100.5,67,cs),
(98.5,57,o),
(97.5,55,o),
(96,57,cs),
(88,67.5,ls),
(86,70,o),
(82,67,o),
(84,64.5,cs),
(92,54,ls),
(96,48.5,o),
(102.5,50,o),
(105.5,66.5,c),
(108.5,61.5,o),
(114.5,61.5,o),
(124.5,64,cs),
(125.5,64,o),
(126.5,65,o),
(126.5,66.5,cs),
(126.5,68,o),
(125.5,69,o),
(123.5,69,c),
(114,66.5,o),
(111,66.5,o),
(110,69,cs),
(105,80,l),
(104,81,l),
(109.5,84.5,o),
(116,88,o),
(122.5,91.5,c),
(127.5,80.5,ls),
(130,75,o),
(135.5,75,o),
(144,77,c),
(146,76,o),
(149,76,o),
(152,76.5,cs),
(153.5,76.5,o),
(154.5,77.5,o),
(154.5,79,cs),
(154.5,80.5,o),
(153.5,81.5,o),
(152,81.5,cs),
(150.5,81.5,o),
(149.5,81.5,o),
(148.5,81,c),
(148,82,o),
(147.5,82.5,o),
(146,82.5,c),
(146,82.5,o),
(145.5,82.5,o),
(145,82,c),
(145,83.5,l),
(143,99,ls),
(143,100.5,o),
(142,101.5,o),
(140.5,101.5,c),
(155,109,o),
(168.5,116,o),
(178.5,120.5,c),
(177.5,112,o),
(180,105.5,o),
(184,101,c),
(175,100.5,ls),
(172,100.5,o),
(171,101,o),
(171,103,cs),
(171,111.5,ls),
(171,113,o),
(170,114,o),
(168.5,114,cs),
(167,114,o),
(166,113,o),
(166,111.5,cs),
(166,103,ls),
(166,98,o),
(170,95.5,o),
(175,95.5,cs),
(188,96,l),
(189,96,l),
(191,95,o),
(193.5,93.5,o),
(196,92,cs),
(199,91,o),
(201,95.5,o),
(198,97,cs),
(187,102,o),
(182,108,o),
(183.5,121,cs),
(183.5,121.5,o),
(183.5,122,o),
(183,122,c),
(184.5,123,o),
(186,123.5,o),
(187,123.5,cs),
(194,125.5,o),
(203,128.5,o),
(212.5,132,c),
(212,124.5,ls),
(211.5,119,o),
(216.5,115.5,o),
(221.5,115.5,cs),
(234.5,116,ls),
(236,116,o),
(237,117,o),
(237,118.5,cs),
(237,120,o),
(236,121,o),
(234.5,121,cs),
(221.5,120.5,ls),
(218.5,120.5,o),
(217,122,o),
(217,124.5,cs),
(217.5,134,l),
(221,135.5,o),
(224.5,137,o),
(228,139,c),
(227.5,126,o),
(232,124,o),
(239.5,123,cs),
(241,123,o),
(242,124,o),
(242,125.5,cs),
(242,127,o),
(241,128,o),
(239.5,128,cs),
(233.5,129,o),
(232,129.5,o),
(233,141.5,c),
(236,142.5,o),
(238.5,144,o),
(240.5,145.5,c),
(241.5,135.5,o),
(246.5,133.5,o),
(255.5,133.5,cs),
(257,133.5,o),
(258,134.5,o),
(258,136,cs),
(258,137.5,o),
(257,138.5,o),
(255.5,138.5,cs),
(248,138.5,o),
(245,139.5,o),
(245.5,148.5,c),
(248,150.5,o),
(250,152.5,o),
(252,154,c),
(256,151,o),
(260.5,149.5,o),
(266,149.5,cs),
(274.5,149.5,o),
(283,154,o),
(288,159,cs),
(292,163,o),
(289.5,166.5,o),
(285.5,165,cs),
(273,160.5,o),
(259,170,o),
(259,182,cs),
(259,188,o),
(263,198,o),
(267,201.5,cs),
(271.5,205,o),
(268,209,o),
(263,209,cs),
(254,209,o),
(246.5,203,o),
(242,195.5,c),
(240,195.5,l),
(235,193,o),
(230,190.5,o),
(224.5,188,c),
(224.5,195,o),
(226,196,o),
(230.5,196,cs),
(232,196,o),
(233,197,o),
(233,198.5,cs),
(233,200,o),
(232,201,o),
(230.5,201,cs),
(223,201,o),
(219,198.5,o),
(220,186,c),
(216.5,184.5,o),
(213.5,182.5,o),
(210,181,c),
(209,185.5,ls),
(208,189.5,o),
(208.5,190,o),
(213.5,190,cs),
(215,190,o),
(216,191,o),
(216,192.5,cs),
(216,194,o),
(215,195,o),
(213.5,195,cs),
(205.5,195,o),
(202,192.5,o),
(204,184.5,cs),
(205.5,179,l),
(204.5,178.5,l),
(204,179.5,ls),
(203.5,181,o),
(203,182,o),
(201.5,182,cs),
(195.5,182,o),
(194,180,o),
(193.5,173,c),
(191.5,172.5,o),
(189.5,171.5,o),
(188,170.5,c),
(186,177,o),
(186.5,177,o),
(187.5,176.5,c),
(189.5,176.5,o),
(190.5,177.5,o),
(190.5,179,cs),
(190.5,180.5,o),
(189.5,181.5,o),
(188.5,181.5,cs),
(183.5,182.5,o),
(180.5,181,o),
(183.5,168.5,c),
(180,166.5,o),
(176.5,165,o),
(172.5,163,c),
(170,174,o),
(171,175,o),
(175,175.5,cs),
(176.5,175.5,o),
(177.5,176.5,o),
(177.5,178,cs),
(177.5,179.5,o),
(176.5,180.5,o),
(175,180.5,cs),
(166.5,180,o),
(164.5,176,o),
(168,161,c),
(162.5,158,o),
(156.5,155,o),
(150.5,152.5,c),
(150,157,o),
(151.5,157,o),
(156,157,cs),
(157.5,157,o),
(158.5,158,o),
(158.5,159.5,cs),
(158.5,161,o),
(157.5,162,o),
(156,162,cs),
(148,162,o),
(145,160,o),
(146,150,c),
(143.5,149,o),
(141.5,148,o),
(139,147,c),
(137.5,157.5,o),
(138.5,158.5,o),
(141.5,158.5,cs),
(143,158.5,o),
(144,159.5,o),
(144,161,cs),
(144,162.5,o),
(143,163.5,o),
(141.5,163.5,cs),
(134.5,163,o),
(132,160,o),
(134.5,144.5,c),
(128.5,141.5,l),
(127.5,147,o),
(128,147.5,o),
(128.5,147.5,cs),
(130,147.5,o),
(131,148.5,o),
(131,150,cs),
(131,151.5,o),
(130,152.5,o),
(128.5,152.5,cs),
(123.5,152,o),
(122,150,o),
(124,139.5,c),
(121.5,138.5,o),
(119,137,o),
(116,136,c),
(115,147,o),
(115.5,147.5,o),
(118,147.5,cs),
(119.5,147.5,o),
(120.5,148.5,o),
(120.5,150,cs),
(120.5,151.5,o),
(119.5,152.5,o),
(118,152.5,cs),
(111,152,o),
(109.5,149.5,o),
(111.5,133.5,c),
(109,132.5,o),
(106.5,131,o),
(104,130,c),
(101,149,o),
(102,150,o),
(105.5,150.5,cs),
(107,150.5,o),
(108,151.5,o),
(108,153,cs),
(108,154.5,o),
(107,155.5,o),
(105.5,155.5,cs),
(97.5,155,o),
(95.5,151.5,o),
(99,127.5,c),
(96.5,126.5,o),
(94,125,o),
(91.5,124,c),
(92,129,o),
(93,130,o),
(94.5,130,cs),
(96,130,o),
(97,131,o),
(97,132.5,cs),
(97,134,o),
(96,135,o),
(94.5,135,cs),
(89.5,134.5,o),
(87,132.5,o),
(86.5,121.5,c),
(83,120,o),
(80,118.5,o),
(77,117,c),
(75.5,128,o),
(77,129,o),
(79,129,cs),
(80.5,129,o),
(81.5,130,o),
(81.5,131.5,cs),
(81.5,133,o),
(80.5,134,o),
(79,134,cs),
(74,134.5,o),
(70,132,o),
(72,115,c),
(69,113.5,o),
(66.5,112,o),
(63.5,111,c),
(63.5,118,o),
(65,119.5,o),
(68,119.5,cs),
(69.5,119.5,o),
(70.5,120.5,o),
(70.5,122,cs),
(70.5,123.5,o),
(69.5,124.5,o),
(68,124.5,cs),
(63.5,124.5,o),
(60.5,122.5,o),
(59.5,118,cs),
(59.5,120,o),
(58.5,121,o),
(57,121,cs),
(52.5,120.5,o),
(50.5,119,o),
(49.5,115,c),
(49.5,116,o),
(48.5,117,o),
(47,117,cs),
(40,117,o),
(37.5,114,o),
(38.5,100,c),
(33.5,98.5,o),
(29.5,97,o),
(27,96.5,c),
(25,98.5,o),
(22.5,100,o),
(20.5,100,cs),
(8.5,100,o),
(0,90.5,o),
(0,86,cs),
(0,83,o),
(4,81,o),
(10.5,81,cs),
(20.5,81,o),
(31,69.5,o),
(31,59,cs),
(31,51.5,o),
(29,48.5,o),
(24,45,cs),
(17.5,40.5,o),
(22,28,o),
(29,28,cs)
);
},
{
closed = 1;
nodes = (
(39.5,79,o),
(36.5,84.5,o),
(33.5,89,c),
(35,89.5,o),
(37,90,o),
(39,91,c),
(39,90,o),
(40,89,o),
(41.5,89,cs),
(43,89,o),
(44,90,o),
(44,91.5,cs),
(44,93,l),
(45.5,93.5,o),
(47,94,o),
(49,94.5,c),
(49,93.5,o),
(50,92.5,o),
(51.5,92.5,cs),
(53,92.5,o),
(54,93.5,o),
(54,95,cs),
(54,96.5,l),
(56,97,o),
(58,98,o),
(60,98.5,c),
(60,97.5,o),
(61,96.5,o),
(62.5,96.5,cs),
(64,96.5,o),
(65,97.5,o),
(65,99,cs),
(65,100.5,l),
(71.5,103,o),
(79,105.5,o),
(86.5,108.5,c),
(87,107.5,o),
(88,106.5,o),
(89,106.5,cs),
(90.5,106.5,o),
(91.5,107.5,o),
(91.5,109,cs),
(91.5,110.5,l),
(105,115,o),
(118,120,o),
(129,124.5,c),
(129,124,o),
(129.5,124,o),
(130,124,cs),
(131,124,o),
(132,124.5,o),
(132.5,125.5,c),
(140.5,129,o),
(147.5,131.5,o),
(150.5,133.5,cs),
(159,137.5,o),
(176,146,o),
(194.5,155.5,c),
(195,154.5,o),
(196,154,o),
(197,154,cs),
(198.5,154,o),
(199.5,155,o),
(199.5,156.5,cs),
(199.5,158,l),
(212.5,165,o),
(227,172,o),
(239.5,178.5,c),
(239.5,177,o),
(239.5,175.5,o),
(240,174,c),
(223,164.5,o),
(131,120,o),
(114.5,115.5,cs),
(98.5,111.5,o),
(67,89,o),
(42,74,c)
);
},
{
closed = 1;
nodes = (
(42.5,111,o),
(44,112,o),
(47,112,cs),
(48,112,o),
(49,114.5,o),
(49,113.5,cs),
(49,104.5,l),
(47,103.5,o),
(45,103,o),
(43,102,c)
);
},
{
closed = 1;
nodes = (
(69.5,84.5,o),
(100.5,107,o),
(115.5,110.5,cs),
(116,110.5,o),
(116.5,111,o),
(117,111,c),
(110.5,107,o),
(105.5,103.5,o),
(104,101,cs),
(96,88,o),
(57,71.5,o),
(44,69,c)
);
},
{
closed = 1;
nodes = (
(77.5,111,o),
(77.5,111.5,o),
(77.5,112,c),
(80.5,113.5,o),
(83.5,114.5,o),
(86.5,116,c),
(86.5,114,l),
(83.5,112.5,o),
(80.5,111.5,o),
(78,110.5,c)
);
},
{
closed = 1;
nodes = (
(135,80,o),
(133,80.5,o),
(132.5,82.5,cs),
(131,86,o),
(129.5,91,o),
(127,94,c),
(130.5,96,o),
(134.5,98.5,o),
(138.5,100.5,c),
(138,100,o),
(138,99.5,o),
(138,99,cs),
(140,82.5,ls),
(140,82,o),
(140,81.5,o),
(140.5,81,c)
);
},
{
closed = 1;
nodes = (
(91.5,118.5,l),
(94.5,120,o),
(98,121.5,o),
(101.5,123,cs),
(103,123,o),
(104,123.5,o),
(104.5,124.5,c),
(107,126,o),
(109.5,127,o),
(112,128.5,c),
(112.5,127.5,o),
(112.5,126.5,o),
(112.5,126,cs),
(112.5,125,o),
(113,124.5,o),
(113.5,124,c),
(106.5,121,o),
(99,118.5,o),
(91.5,115.5,c)
);
},
{
closed = 1;
nodes = (
(117.5,128,o),
(117,129,o),
(117,130.5,c),
(119.5,132,o),
(122.5,133,o),
(125,134.5,c),
(125.5,133,o),
(126,131,o),
(127,129,c),
(124,128,o),
(120.5,126.5,o),
(117.5,125.5,c)
);
},
{
closed = 1;
nodes = (
(171,83.5,o),
(172,84.5,o),
(172,86,cs),
(172,87.5,o),
(171,88.5,o),
(169.5,88.5,cs),
(161.5,88,o),
(155.5,91,o),
(157.5,105.5,cs),
(157.5,107,o),
(156.5,108,o),
(155,108,cs),
(153.5,108,o),
(152.5,107,o),
(152.5,105.5,cs),
(150.5,88,o),
(159.5,83,o),
(169.5,83.5,cs)
);
},
{
closed = 1;
nodes = (
(61,67.5,o),
(99.5,84.5,o),
(108,98,cs),
(116,111,o),
(194.5,140.5,o),
(244,163,c),
(245.5,161,o),
(246.5,159,o),
(248.5,157.5,c),
(247.5,157,o),
(247,156,o),
(246,155.5,c),
(246,156.5,o),
(244.5,157.5,o),
(243.5,157.5,cs),
(242,157.5,o),
(241,156.5,o),
(241,155,cs),
(241,154,o),
(240.5,152.5,o),
(240.5,151.5,c),
(238,149.5,o),
(235,147.5,o),
(231.5,146,cs),
(230,146,o),
(229,145.5,o),
(228.5,144.5,c),
(225,143,o),
(221.5,141,o),
(217.5,139.5,c),
(217,140.5,o),
(216,141.5,o),
(215,141.5,cs),
(213.5,141.5,o),
(212.5,140.5,o),
(212.5,139,cs),
(212.5,137.5,l),
(202.5,133.5,o),
(193,130.5,o),
(186,128.5,cs),
(166,123,o),
(94,82,o),
(81.5,72.5,cs),
(70,63.5,o),
(58,67,o),
(45.5,64.5,cs)
);
},
{
closed = 1;
nodes = (
(53.5,115.5,o),
(54.5,116,o),
(57,116,cs),
(58,116,o),
(59,117,o),
(59.5,118,c),
(59,115.5,o),
(58.5,112.5,o),
(59,109,c),
(57,108,o),
(55.5,107.5,o),
(54,106.5,c)
);
},
{
closed = 1;
nodes = (
(67,107,o),
(70,108.5,o),
(73,110,c),
(73,109,l),
(70,107.5,o),
(67,106.5,o),
(64,105.5,c)
);
},
{
closed = 1;
nodes = (
(130.5,133,o),
(130,135,o),
(129.5,136.5,c),
(135.5,139.5,l),
(136,138,o),
(136,137,o),
(136.5,135,cs),
(136.5,134.5,o),
(137,133.5,o),
(138,133.5,c),
(136,132.5,o),
(133.5,131.5,o),
(131.5,130.5,c)
);
},
{
closed = 1;
nodes = (
(141.5,135,o),
(141.5,135.5,o),
(141.5,136,cs),
(140,142,l),
(142.5,143,o),
(144.5,144,o),
(146.5,145,c),
(146.5,144,o),
(147,143.5,o),
(147,143,cs),
(147,141.5,o),
(148,140.5,o),
(149.5,140.5,cs),
(151,140.5,o),
(152,141.5,o),
(152,143,cs),
(151.5,144.5,o),
(151.5,146,o),
(151,147,c),
(157.5,150,o),
(163.5,153,o),
(169.5,156,c),
(169.5,154.5,o),
(170.5,153.5,o),
(172,153.5,cs),
(173.5,153.5,o),
(174.5,154.5,o),
(174.5,156.5,cs),
(174.5,157,o),
(174,157.5,o),
(174,158,c),
(177.5,160,o),
(181,161.5,o),
(185,163.5,c),
(185,162,o),
(185.5,160.5,o),
(186,159,cs),
(186,158.5,o),
(186.5,158,o),
(187,157.5,c),
(170.5,149,o),
(156,141.5,o),
(148.5,137.5,cs),
(147,137,o),
(144.5,136,o),
(141.5,134.5,c)
);
},
{
closed = 1;
nodes = (
(212.5,105.5,o),
(213.5,106.5,o),
(213.5,108,cs),
(213.5,109.5,o),
(212.5,110.5,o),
(211,110.5,cs),
(201.5,111,o),
(197.5,113,o),
(197,121,cs),
(197,122.5,o),
(196,123.5,o),
(194.5,123.5,cs),
(193,123.5,o),
(192,122.5,o),
(192,121,cs),
(192.5,109,o),
(199.5,106,o),
(211,105.5,cs)
);
},
{
closed = 1;
nodes = (
(190.5,162,o),
(189.5,164,o),
(189,165.5,c),
(190.5,166.5,o),
(192,167,o),
(193.5,167.5,c),
(193.5,165.5,o),
(193.5,163.5,o),
(194,161,c),
(193,160.5,o),
(192,160,o),
(191,159.5,c)
);
},
{
closed = 1;
nodes = (
(198.5,166,o),
(198.5,168,o),
(198,170,c),
(201,171.5,o),
(203.5,172.5,o),
(206.5,174,c),
(207,170.5,ls),
(207,170,o),
(208,169,o),
(209,168.5,c),
(205.5,167,o),
(202,165,o),
(198.5,163.5,c)
);
},
{
closed = 1;
nodes = (
(199.5,176.5,o),
(200,177,o),
(201,177,c),
(200.5,176.5,o),
(199.5,176,o),
(199,176,c)
);
},
{
closed = 1;
nodes = (
(212,170.5,o),
(212,171,o),
(212,171.5,cs),
(211,176,l),
(214,177.5,o),
(217.5,179,o),
(220.5,180.5,c),
(220.5,179.5,o),
(221,178,o),
(221,177,cs),
(221,176,o),
(221.5,175.5,o),
(222,175,c),
(218.5,173.5,o),
(215,171.5,o),
(211.5,170,c)
);
},
{
closed = 1;
nodes = (
(241.5,169,l),
(241.5,168.5,o),
(242,168,o),
(242,167.5,c),
(234,164,o),
(225.5,160,o),
(216.5,156.5,c)
);
},
{
closed = 1;
nodes = (
(225.5,179.5,o),
(225.5,181,o),
(225,183,c),
(230.5,185,o),
(235,187.5,o),
(240,189.5,c),
(239.5,187.5,o),
(239,185.5,o),
(239,183.5,c),
(235,181.5,o),
(230.5,179.5,o),
(226,177,c)
);
}
);
width = 300;
}
);
},
{
export = 0;
glyphname = _part.dragonfly1;
lastChange = "2023-04-26 06:53:35 +0000";
layers = (
{
layerId = m01;
shapes = (
{
closed = 1;
nodes = (
(45.5,21,o),
(46.5,23,o),
(47,26,cs),
(48,34.5,o),
(49.5,57,o),
(50.5,77,c),
(57,72,o),
(73.5,66,o),
(81,66,cs),
(86.5,66,o),
(90,68.5,o),
(90,73.5,cs),
(90,79,o),
(81.5,84,o),
(67,86,c),
(76,89.5,o),
(84,95.5,o),
(84,100,cs),
(84,105,o),
(81,109,o),
(76,109,cs),
(72.5,109,o),
(62,104,o),
(51.5,98.5,c),
(51.5,105,l),
(54,106,o),
(56,108,o),
(56,111,cs),
(56,114.5,o),
(53.5,117,o),
(50,117,cs),
(48.5,117,o),
(47,116.5,o),
(46,115.5,c),
(45,117,o),
(43.5,117.5,o),
(41.5,117.5,cs),
(38,117.5,o),
(35.5,115,o),
(35.5,111.5,cs),
(35.5,108,o),
(37.5,105.5,o),
(40.5,105,c),
(40,102.5,o),
(40,99.5,o),
(39.5,97,c),
(27.5,101.5,o),
(14.5,106.5,o),
(10,106.5,cs),
(3,106.5,o),
(0.5,103,o),
(0.5,99.5,cs),
(0.5,93,o),
(13.5,85,o),
(25.5,84,c),
(6,78.5,o),
(0,74.5,o),
(0,71,cs),
(0,67.5,o),
(4.5,66,o),
(11,66,cs),
(18.5,66,o),
(28.5,70.5,o),
(38.5,74.5,c),
(38,55.5,o),
(38.5,40,o),
(39,26.5,cs),
(39.5,22,o),
(41.5,20,o),
(43.5,20.5,c)
);
},
{
closed = 1;
nodes = (
(9,71,o),
(7.5,72,o),
(6.5,72,c),
(9,74,o),
(17.5,77.5,o),
(39,82.5,c),
(39,81.5,o),
(39,80.5,o),
(38.5,80,c),
(28,76,o),
(18,71,o),
(11,71,cs)
);
},
{
closed = 1;
nodes = (
(17,89,o),
(5.5,96.5,o),
(5.5,99.5,cs),
(5.5,101,o),
(6,101.5,o),
(10,101.5,cs),
(14,101.5,o),
(27,96,o),
(39.5,92,c),
(39.5,91,o),
(39.5,90,o),
(39,89,c),
(27.5,89,ls)
);
},
{
closed = 1;
nodes = (
(43,57,o),
(44.5,73.5,o),
(44.5,93,cs),
(44.5,94,ls),
(44.5,98,o),
(45,102,o),
(45.5,106.5,c),
(46,106.5,o),
(46.5,106,o),
(46.5,106,c),
(46.5,92.5,o),
(45,62.5,o),
(43.5,42.5,c)
);
},
{
closed = 1;
nodes = (
(73,71,o),
(54.5,78.5,o),
(52,82,c),
(73.5,82,o),
(85,76.5,o),
(85,73.5,cs),
(85,71.5,o),
(84.5,71,o),
(81,71,cs)
);
},
{
closed = 1;
nodes = (
(40.5,110,o),
(40.5,110,o),
(40.5,111.5,cs),
(40.5,112.5,o),
(40.5,112.5,o),
(41.5,112.5,cs),
(42.5,112.5,o),
(43,112,o),
(43,111.5,cs),
(43,110.5,o),
(42.5,110,o),
(41.5,110,cs)
);
},
{
closed = 1;
nodes = (
(51,93,l),
(54,94,o),
(73,104,o),
(76,104,cs),
(78,104,o),
(79,103,o),
(79,100,cs),
(79,97.5,o),
(67,90.5,o),
(57.5,88,cs),
(57,88,o),
(56.5,87.5,o),
(56,87,c),
(51,87,l)
);
},
{
closed = 1;
nodes = (
(49,110,o),
(49,110,o),
(49,111,cs),
(49,112,o),
(49,112,o),
(50,112,cs),
(51,112,o),
(51,112,o),
(51,111,cs),
(51,110,o),
(51,110,o),
(50,110,cs)
);
}
);
width = 225;
}
);
},
{
export = 0;
glyphname = _part.dragonfly2;
lastChange = "2023-04-26 06:55:00 +0000";
layers = (
{
layerId = m01;
shapes = (
{
closed = 1;
nodes = (
(96.5,17.5,o),
(101.5,21.5,o),
(101.5,29,cs),
(101.5,47,o),
(104,63,o),
(106.5,77,c),
(115,53.5,o),
(131.5,21,o),
(163,21,cs),
(178,21,o),
(186.5,31.5,o),
(186.5,40.5,cs),
(186.5,48.5,o),
(172.5,63.5,o),
(155,77,c),
(169.5,71.5,o),
(184.5,68.5,o),
(198.5,68.5,cs),
(219,68.5,o),
(236.5,77.5,o),
(236.5,89,cs),
(236.5,106,o),
(215.5,114,o),
(191.5,114,cs),
(179.5,114,o),
(165,111,o),
(158.5,109.5,cs),
(150.5,107.5,o),
(143.5,105.5,o),
(123.5,105,c),
(126,107.5,o),
(127,111,o),
(127,114.5,cs),
(127,120,o),
(123.5,125.5,o),
(116.5,125.5,cs),
(112.5,125.5,o),
(109,124,o),
(107,122,c),
(105.5,125.5,o),
(102.5,128,o),
(97.5,128,cs),
(91.5,128,o),
(87,124.5,o),
(87,117.5,cs),
(87,114.5,o),
(87.5,110.5,o),
(89.5,107.5,c),
(67,112.5,o),
(38,119.5,o),
(28.5,119.5,cs),
(11.5,119.5,o),
(0.5,110,o),
(0.5,103,cs),
(0.5,95.5,o),
(9,93,o),
(19.5,92,cs),
(53.5,89.5,ls),
(60.5,89,o),
(70,90,o),
(78.5,91.5,c),
(63.5,87,o),
(47,84.5,o),
(39,84.5,cs),
(21.5,84.5,o),
(1.5,78.5,o),
(1.5,65.5,cs),
(1.5,50.5,o),
(27,41,o),
(40,41,cs),
(56,41,o),
(78,57.5,o),
(91,73.5,c),
(86.5,53.5,o),
(85,40,o),
(85,29.5,cs),
(85,22,o),
(87,17.5,o),
(92.5,17.5,cs)
);
},
{
closed = 1;
nodes = (
(22,63,o),
(16,65.5,o),
(12.5,74,c),
(18.5,77.5,o),
(28.5,79.5,o),
(38.5,79.5,c),
(39,74.5,o),
(40.5,71,o),
(43.5,68,c),
(40,64.5,o),
(36,63,o),
(30,63,cs)
);
},
{
closed = 1;
nodes = (
(49,62,o),
(48.5,62.5,o),
(48.5,63.5,c),
(49,63,o),
(50,63,o),
(50.5,62.5,c),
(49,61,l)
);
},
{
closed = 1;
nodes = (
(31,102,o),
(19.5,101,o),
(6.5,106,c),
(8.5,108.5,o),
(12.5,111.5,o),
(18.5,113,c),
(24,106.5,o),
(36.5,103,o),
(45.5,103,c),
(45.5,102,l),
(44.5,102,ls)
);
},
{
closed = 1;
nodes = (
(63,55.5,o),
(62,56,o),
(60.5,56,cs),
(57.5,55.5,o),
(54.5,56,o),
(52.5,57.5,c),
(52.5,58,o),
(53,58,o),
(53.5,58.5,cs),
(54.5,59.5,o),
(54.5,61,o),
(54,61.5,c),
(56.5,61.5,ls),
(64,61.5,o),
(78,74,o),
(88,87.5,cs),
(88.5,88,o),
(88.5,88.5,o),
(88.5,89,c),
(89,89.5,o),
(89.5,89.5,o),
(90,89.5,c),
(92,90.5,o),
(92,92.5,o),
(91,94,c),
(91.5,94,o),
(92.5,94.5,o),
(93.5,94.5,cs),
(94.5,94.5,o),
(95.5,95.5,o),
(95.5,97,cs),
(95.5,98.5,o),
(94.5,99.5,o),
(92.5,99.5,c),
(83.5,97,o),
(65.5,93,o),
(53.5,94.5,cs),
(49,95,l),
(49,96.5,o),
(49.5,98.5,o),
(50,100,c),
(61,97.5,o),
(72,99,o),
(80,104.5,c),
(86,103.5,o),
(92,102,o),
(97,101,c),
(96,96.5,o),
(95,92.5,o),
(94,88.5,cs),
(89.5,77,o),
(76.5,63.5,o),
(63,54.5,c)
);
},
{
closed = 1;
nodes = (
(91,22.5,o),
(90,24,o),
(90,29.5,cs),
(90,42,o),
(99,58,o),
(99,86.5,cs),
(99,87.5,ls),
(99,92.5,o),
(101.5,98,o),
(103,103.5,c),
(103,105,o),
(102,106.5,o),
(101,106.5,c),
(103,108,o),
(104.5,109.5,o),
(106,111.5,c),
(107,108.5,o),
(109.5,106,o),
(112,104.5,c),
(111.5,104.5,o),
(110.5,105,o),
(110,105,cs),
(108.5,105,o),
(107.5,104,o),
(107.5,103,cs),
(102.5,82.5,o),
(96.5,59,o),
(96.5,29,cs),
(96.5,24.5,o),
(94.5,22.5,o),
(92.5,22.5,cs)
);
},
{
closed = 1;
nodes = (
(10,57,o),
(6.5,61,o),
(6.5,65.5,cs),
(6.5,67.5,o),
(7,69,o),
(8.5,70.5,c),
(13,61.5,o),
(21.5,58,o),
(30,58,cs),
(35.5,58,o),
(40,59.5,o),
(43.5,62,c),
(44,60.5,o),
(44.5,59.5,o),
(45,58,c),
(41,55.5,o),
(36.5,54,o),
(31.5,54,cs),
(16.5,54,ls),
(16,54,o),
(15.5,54,o),
(15,53.5,c)
);
},
{
closed = 1;
nodes = (
(35.5,46,o),
(30,47,o),
(25,49,c),
(31.5,49,ls),
(37.5,49,o),
(43,51,o),
(48.5,54.5,c),
(50.5,52.5,o),
(53.5,51,o),
(56.5,51,c),
(51,48,o),
(45,46,o),
(40,46,cs)
);
},
{
closed = 1;
nodes = (
(19.5,97,ls),
(12.5,97.5,o),
(8.5,98.5,o),
(6.5,100.5,c),
(19.5,96,o),
(31.5,97,o),
(44,97,c),
(44,95,l)
);
},
{
closed = 1;
nodes = (
(49.5,66.5,o),
(44.5,72,o),
(43.5,79,c),
(53,80.5,o),
(68,83,o),
(81,87,c),
(72,75.5,o),
(61.5,66.5,o),
(56.5,66.5,cs)
);
},
{
closed = 1;
nodes = (
(40.5,107,o),
(30.5,109.5,o),
(24.5,114.5,c),
(28.5,114.5,ls),
(32.5,114.5,o),
(40.5,113,o),
(50,111,c),
(49,110,o),
(48.5,109,o),
(48,108,c)
);
},
{
closed = 1;
nodes = (
(52.5,106.5,o),
(53.5,108.5,o),
(55,110,c),
(61,109,o),
(67,107.5,o),
(73,106,c),
(67,103.5,o),
(60,103,o),
(52,105,c)
);
},
{
closed = 1;
nodes = (
(144.5,29,o),
(136,35.5,o),
(129,44.5,c),
(131.5,44,o),
(133.5,44,o),
(135.5,44.5,c),
(140,37,o),
(147.5,31,o),
(155.5,27,c)
);
},
{
closed = 1;
nodes = (
(118.5,60,o),
(113.5,72.5,o),
(110,83.5,c),
(108.5,85,l),
(109.5,89,o),
(110.5,93.5,o),
(111.5,97.5,cs),
(111.5,96.5,o),
(111.5,95.5,o),
(112,94.5,cs),
(121,80,o),
(130,69.5,o),
(137.5,64,c),
(138.5,51.5,o),
(135.5,47.5,o),
(127.5,50,c),
(126.5,50,o),
(126,50,o),
(125.5,49.5,c)
);
},
{
closed = 1;
nodes = (
(165.5,27,o),
(165,28,o),
(164,28.5,cs),
(154.5,31.5,o),
(145.5,38.5,o),
(139.5,47.5,c),
(140.5,49,o),
(141.5,50.5,o),
(142,53,c),
(154,42,o),
(168.5,43,o),
(177,49.5,c),
(180,46,o),
(181.5,43,o),
(181.5,40.5,cs),
(181.5,34,o),
(176,27,o),
(165.5,26,c)
);
},
{
closed = 1;
nodes = (
(93,109.5,o),
(92,113.5,o),
(92,117.5,cs),
(92,121.5,o),
(93.5,123,o),
(97.5,123,cs),
(101.5,123,o),
(103,121,o),
(103,117.5,cs),
(103,114,o),
(98.5,109.5,o),
(95.5,109.5,cs)
);
},
{
closed = 1;
nodes = (
(98.5,114,o),
(99.5,115,o),
(99.5,116.5,cs),
(99.5,118.5,ls),
(99.5,120,o),
(98.5,121,o),
(97,121,cs),
(95.5,121,o),
(94.5,120,o),
(94.5,118.5,cs),
(94.5,116.5,ls),
(94.5,115,o),
(95.5,114,o),
(97,114,cs)
);
},
{
closed = 1;
nodes = (
(166.5,48,o),
(154.5,47.5,o),
(143.5,58,c),
(143.5,58,o),
(143,58.5,o),
(142.5,58.5,c),
(142.5,61,l),
(145,60,o),
(147,59.5,o),
(148.5,59.5,cs),
(156.5,59.5,o),
(158.5,63,o),
(158.5,67,cs),
(158.5,68,l),
(164.5,63,o),
(170,58,o),
(174,53.5,c)
);
},
{
closed = 1;
nodes = (
(143.5,64.5,o),
(131,74,o),
(118,94,c),
(131,87.5,o),
(145,78.5,o),
(156.5,69.5,c),
(154.5,69.5,o),
(153.5,68.5,o),
(153.5,67,cs),
(153.5,65,o),
(153,64.5,o),
(148.5,64.5,cs)
);
},
{
closed = 1;
nodes = (
(113.5,108,o),
(110,112,o),
(110,116,cs),
(110,119,o),
(112,120.5,o),
(116.5,120.5,cs),
(120.5,120.5,o),
(122,118,o),
(122,114.5,cs),
(122,110.5,o),
(121,108,o),
(117,108,cs)
);
},
{
closed = 1;
nodes = (
(118,111.5,o),
(119,112.5,o),
(119,114,cs),
(119,116,ls),
(119,117.5,o),
(118,118.5,o),
(116.5,118.5,cs),
(115,118.5,o),
(114,117.5,o),
(114,116,cs),
(114,114,ls),
(114,112.5,o),
(115,111.5,o),
(116.5,111.5,cs)
);
},
{
closed = 1;
nodes = (
(159.5,80,o),
(147,85,o),
(135.5,91,cs),
(135,91.5,o),
(134,91.5,o),
(133.5,91.5,c),
(128,94.5,o),
(122.5,97.5,o),
(117.5,100,c),
(125.5,100,o),
(131.5,100.5,o),
(136.5,101,c),
(136.5,100.5,o),
(137,100,o),
(137.5,99.5,cs),
(145,94,o),
(155,91.5,o),
(164.5,92.5,cs),
(176.5,94,o),
(181.5,91.5,o),
(181.5,89,cs),
(181.5,87,o),
(178.5,82,o),
(173.5,80.5,cs),
(172.5,80.5,o),
(171.5,79.5,o),
(171.5,78,cs),
(171.5,77.5,o),
(171.5,77,o),
(172,77,cs)
);
},
{
closed = 1;
nodes = (
(156.5,96.5,o),
(149.5,98,o),
(143.5,101.5,c),
(150.5,102.5,o),
(155,103.5,o),
(159.5,104.5,cs),
(162.5,105,o),
(166.5,106,o),
(171.5,107,c),
(174.5,103.5,o),
(173.5,101.5,o),
(170.5,98,c),
(168.5,98,o),
(166,97.5,o),
(163.5,97.5,cs)
);
},
{
closed = 1;
nodes = (
(191,73.5,o),
(183.5,74.5,o),
(175.5,76,c),
(180.5,78,o),
(183.5,81.5,o),
(185.5,84.5,c),
(199.5,76,o),
(223,75,o),
(231.5,89,c),
(231.5,81,o),
(217,73.5,o),
(198.5,73.5,cs)
);
},
{
closed = 1;
nodes = (
(187,93.5,o),
(185,96.5,o),
(176,97.5,c),
(176.5,98,o),
(176.5,98.5,o),
(177,98.5,cs),
(191.5,95,o),
(214,93,o),
(222,102,c),
(227,100,o),
(230,96.5,o),
(231,92.5,c),
(230,93,o),
(228,93.5,o),
(227.5,91.5,c),
(220.5,80,o),
(199.5,81,o),
(187,89.5,c)
);
},
{
closed = 1;
nodes = (
(178.5,105,o),
(178,106.5,o),
(177,108,c),
(182,108.5,o),
(187,109,o),
(191.5,109,cs),
(202,109,o),
(211,107.5,o),
(218,105,c),
(211.5,98,o),
(192,100,o),
(178.5,103.5,c)
);
}
);
width = 225;
}
);
},
{
export = 0;
glyphname = _part.insect1;
lastChange = "2023-04-26 06:53:02 +0000";
layers = (
{
layerId = m01;
shapes = (
{
closed = 1;
nodes = (
(116,16.5,o),
(118,22.5,o),
(118,29,cs),
(118,33,o),
(114,42.5,o),
(111.5,47,cs),
(110.5,49,o),
(109,52.5,o),
(107.5,56,cs),
(107.5,56.5,o),
(108,56.5,o),
(108,57,c),
(108.5,56.5,o),
(109,56.5,o),
(109.5,56.5,cs),
(113,57,o),
(117.5,58,o),
(124,58,cs),
(128.5,58,o),
(130,57.5,o),
(132.5,54.5,cs),
(136.5,51,o),
(138,51,o),
(143.5,51,cs),
(151.5,51,o),
(165,57,o),
(168.5,64.5,cs),
(169.5,67.5,o),
(165,69.5,o),
(163.5,66.5,cs),
(162.5,64,o),
(159.5,61.5,o),
(156.5,60,c),
(156,61,o),
(155,61.5,o),
(154,61.5,cs),
(144.5,61.5,o),
(138,64,o),
(136.5,66.5,cs),
(133.5,70,o),
(130,72.5,o),
(125.5,72.5,cs),
(120,72.5,o),
(113,69.5,o),
(105.5,61.5,c),
(102.5,69,o),
(100,78.5,o),
(98.5,86,c),
(99.5,85.5,o),
(100.5,85.5,o),
(102,85.5,cs),
(104.5,85.5,l),
(105,85,o),
(106,85,o),
(107,85,c),
(110.5,86.5,o),
(114.5,85,o),
(116,83.5,cs),
(118,82,o),
(120,80,o),
(124,80,cs),
(137.5,80,ls),
(141,80,o),
(144.5,81,o),
(144.5,84.5,c),
(150,83.5,o),
(156,83.5,o),
(165,85,cs),
(170,85,o),
(169.5,92,o),
(163.5,92,cs),
(158.5,92,o),
(154.5,94,o),
(151.5,96,cs),
(149,97.5,o),
(146,99,o),
(143,100,c),
(152.5,100,ls),
(154,100,o),
(155,101,o),
(155,102,c),
(158.5,102.5,o),
(162.5,103,o),
(166.5,105.5,cs),
(170,107.5,o),
(166,111,o),
(163.5,109.5,cs),
(159.5,107,o),
(154,107,o),
(150,107,cs),
(149,107,o),
(138.5,109.5,o),
(138.5,110.5,cs),
(138.5,111,o),
(152.5,117,o),
(159,118,cs),
(166,118.5,o),
(172,122,o),
(172,125.5,cs),
(172,128.5,o),
(170,131,o),
(165,131,cs),
(161.5,131,o),
(153,130.5,o),
(148.5,127,cs),
(146.5,125.5,o),
(141.5,124.5,o),
(137.5,124,c),
(139,125.5,o),
(141,127,o),
(143,129,c),
(145,129,o),
(146,130,o),
(146,131.5,c),
(147,132.5,o),
(148,133.5,o),
(149,134,c),
(151.5,137,o),
(147.5,140,o),
(145,138,c),
(144,136.5,o),
(142.5,135.5,o),
(141.5,134,c),
(122.5,135.5,ls),
(118.5,136,o),
(114,135,o),
(110,132,c),
(103,130.5,o),
(95,120.5,o),
(92.5,108,c),
(92,110.5,o),
(92,113.5,o),
(92,116.5,cs),
(92,121,o),
(92.5,125.5,o),
(93,130.5,cs),
(93,130,o),
(93.5,130,o),
(94,130,cs),
(95.5,130,o),
(96.5,131,o),
(96.5,132.5,cs),
(97.5,139,o),
(99.5,145.5,o),
(102,150.5,c),
(102.5,150,o),
(103,150,o),
(104,150,c),
(108,151.5,o),
(114,152.5,o),
(124,152.5,cs),
(136,152.5,o),
(141,150.5,o),
(143.5,147.5,cs),
(146.5,144,o),
(152,141,o),
(156,141,cs),
(166.5,141,ls),
(171,141,o),
(173,143.5,o),
(173,146,cs),
(173,148,o),
(171,150,o),
(167.5,150,cs),
(159.5,150,o),
(155.5,151.5,o),
(152,155.5,cs),
(148,159,o),
(141,162.5,o),
(134.5,162.5,cs),
(124.5,162.5,l),
(126.5,163,o),
(128.5,163,o),
(130.5,163,cs),
(138.5,163,o),
(141.5,164,o),
(141.5,167.5,cs),
(141.5,172,o),
(132.5,175.5,o),
(124.5,175.5,cs),
(121,175.5,o),
(118,173.5,o),
(114.5,171,c),
(114.5,172,o),
(114,172.5,o),
(114,173.5,cs),
(115,177,o),
(119,181,o),
(123,181,cs),
(139,181,ls),
(145.5,181,o),
(147.5,185.5,o),
(146.5,194,cs),
(146.5,195.5,o),
(145.5,196.5,o),
(144,196.5,cs),
(142.5,196.5,o),
(141.5,195.5,o),
(141.5,194,cs),
(142.5,187.5,o),
(141.5,186,o),
(139,186,cs),
(123,186,ls),
(117.5,186,o),
(112.5,181.5,o),
(110,177,c),
(109.5,177,o),
(109,177.5,o),
(108.5,177.5,c),
(107,185.5,o),
(103,188,o),
(98.5,188,cs),
(81,187.5,ls),
(79.5,187.5,o),
(78.5,186.5,o),
(78.5,185,cs),
(78.5,183.5,o),
(79.5,182.5,o),
(81,182.5,cs),
(98.5,183,ls),
(101,183,o),
(102.5,182,o),
(103.5,176.5,c),
(101.5,175,o),
(100,173,o),
(98,169.5,c),
(96,171,o),
(94,171.5,o),
(91,171.5,cs),
(78,171.5,ls),
(76.5,171.5,o),
(75.5,170.5,o),
(75.5,169,cs),
(75.5,167.5,o),
(76.5,166.5,o),
(78,166.5,cs),
(91,166.5,ls),
(93,166.5,o),
(95,166,o),
(96,165,c),
(95.5,164.5,o),
(95.5,164,o),
(95.5,164,c),
(92.5,166.5,o),
(87.5,167.5,o),
(82.5,165.5,cs),
(78.5,164,o),
(74.5,162.5,o),
(71.5,162.5,cs),
(66.5,162.5,o),
(60.5,165,o),
(59.5,169.5,cs),
(59.5,170.5,o),
(58.5,171.5,o),
(57,171.5,cs),
(55.5,171.5,o),
(54.5,170.5,o),
(54.5,168.5,c),
(56.5,161,o),
(65.5,157.5,o),
(71.5,157.5,cs),
(75.5,157.5,o),
(80.5,159,o),
(84.5,160.5,cs),
(88.5,162,o),
(92,161,o),
(93.5,158.5,c),
(89.5,146.5,o),
(87,130.5,o),
(87,116.5,cs),
(87,111.5,l),
(83.5,119.5,o),
(77,124,o),
(68,124.5,c),
(68.5,125.5,o),
(68.5,126.5,o),
(68,127,cs),
(64,131.5,o),
(58,136,o),
(55.5,138,cs),
(53,140.5,o),
(50,141,o),
(48,140,c),
(46.5,138.5,o),
(46.5,137,o),
(47,135,c),
(44.5,136,o),
(42.5,136.5,o),
(40,136.5,cs),
(33,136.5,o),
(29,134.5,o),
(29,131,cs),
(29,129,o),
(30.5,126.5,o),
(33,125.5,cs),
(36.5,124.5,o),
(39.5,122.5,o),
(41.5,121.5,c),
(32,121.5,o),
(27,120.5,o),
(22.5,116.5,cs),
(21,115.5,o),
(21.5,114,o),
(22,113,c),
(17.5,114,o),
(13,114.5,o),
(9.5,115.5,c),
(7.5,115.5,o),
(6.5,114.5,o),
(6.5,113,cs),
(6.5,111.5,o),
(7.5,110.5,o),
(8.5,110.5,cs),
(16.5,108.5,o),
(27.5,107.5,o),
(34.5,106,c),
(27.5,104,o),
(16.5,101,o),
(13,101,cs),
(12,101,o),
(11,100.5,o),
(11,99.5,c),
(8,100,o),
(5.5,100.5,o),
(3,100.5,cs),
(1.5,100.5,o),
(0.5,99.5,o),
(0.5,98,cs),
(0.5,96.5,o),
(1.5,95.5,o),
(3,95.5,cs),
(12.5,94.5,o),
(28.5,92.5,o),
(31.5,92.5,cs),
(33.5,92.5,o),
(38.5,92.5,o),
(42.5,93,c),
(35.5,87.5,o),
(27.5,83,o),
(20.5,83,cs),
(16,83,ls),
(14.5,83,o),
(13.5,82,o),
(13.5,80.5,cs),
(13.5,79,o),
(14.5,78,o),
(16,78,cs),
(42.5,78,l),
(42.5,77.5,o),
(42,76.5,o),
(41.5,76,cs),
(41,75,o),
(41,74.5,o),
(41,74,c),
(20,66,ls),
(17,65,o),
(18.5,59.5,o),
(22,61,cs),
(59,75,l),
(61.5,76.5,o),
(64.5,78.5,o),
(67,81,cs),
(79.5,91.5,l),
(80.5,92.5,l),
(83,92,o),
(85,91.5,o),
(87,90.5,c),
(87,86,ls),
(87,79.5,o),
(89,76,o),
(92,72.5,cs),
(94.5,70.5,o),
(96,66,o),
(97.5,60.5,c),
(95.5,61,o),
(93.5,61.5,o),
(91.5,61.5,cs),
(87.5,61.5,o),
(82,58.5,o),
(80,55,c),
(70.5,43.5,o),
(50,39.5,o),
(43.5,43.5,cs),
(40.5,45.5,o),
(38,41,o),
(40.5,39.5,cs),
(49,33.5,o),
(73.5,38.5,o),
(84,52,cs),
(86,54.5,o),
(88.5,56.5,o),
(91.5,56.5,cs),
(94.5,56.5,o),
(96.5,55.5,o),
(98.5,54,c),
(100,43.5,o),
(100.5,32,o),
(100.5,28,cs),
(100.5,21,o),
(105,16.5,o),
(110.5,16.5,cs)
);
},
{
closed = 1;
nodes = (
(30.5,97.5,o),
(28,97.5,o),
(24.5,98,c),
(32,100,o),
(39.5,102,o),
(40.5,102,cs),
(44.5,102,l),
(45,101,o),
(46,100,o),
(47,99,c),
(42.5,97.5,o),
(34.5,97.5,o),
(31.5,97.5,cs)
);
},
{
closed = 1;
nodes = (
(41.5,86,o),
(46.5,89.5,o),
(50.5,93,cs),
(52,94.5,o),
(52.5,95.5,o),
(52,96.5,c),
(54,95.5,o),
(56.5,95.5,o),
(58.5,95.5,cs),
(61,95.5,o),
(63.5,95.5,o),
(66,95,c),
(58,93,o),
(52,89.5,o),
(46.5,83,c),
(36.5,83,l)
);
},
{
closed = 1;
nodes = (
(54,85.5,o),
(61,89.5,o),
(71.5,91.5,c),
(64,85,ls),
(61.5,82.5,o),
(58.5,80.5,o),
(57,80,cs),
(47.5,76,l)
);
},
{
closed = 1;
nodes = (
(107,21.5,o),
(105.5,23,o),
(105.5,28,cs),
(105.5,31.5,o),
(105,41.5,o),
(104,51.5,c),
(105,49,o),
(106,46.5,o),
(107.5,44,cs),
(110,40.5,o),
(113,32,o),
(113,29,cs),
(113,23.5,o),
(112,21.5,o),
(110.5,21.5,cs)
);
},
{
closed = 1;
nodes = (
(39,110,o),
(32.5,111.5,o),
(25.5,112.5,c),
(29,115.5,o),
(33,116.5,o),
(42,116.5,cs),
(43.5,116.5,l),
(42.5,115,o),
(42,113.5,o),
(42,111.5,cs),
(42,108.5,l)
);
},
{
closed = 1;
nodes = (
(78.5,99,o),
(68.5,100.5,o),
(58.5,100.5,cs),
(51.5,100.5,o),
(47,103,o),
(47,111.5,cs),
(47,116,o),
(56,119.5,o),
(67.5,119.5,cs),
(78.5,119.5,o),
(84.5,110.5,o),
(86.5,96,c)
);
},
{
closed = 1;
nodes = (
(93,79,o),
(92,81,o),
(92,86,cs),
(92,88.5,l),
(94,89,o),
(95,78.5,o),
(95.5,76.5,c)
);
},
{
closed = 1;
nodes = (
(62,125,o),
(62,125.5,o),
(61.5,126.5,c),
(62.5,126,o),
(63,125,o),
(63.5,124.5,c),
(63,124.5,o),
(62.5,124.5,o),
(62,124,c)
);
},
{
closed = 1;
nodes = (
(138.5,56,o),
(138.5,56,o),
(136.5,58.5,cs),
(133,61.5,o),
(129.5,63,o),
(124,63,cs),
(119.5,63,o),
(116,62.5,o),
(113.5,62,c),
(118,66,o),
(122,67.5,o),
(125.5,67.5,cs),
(128,67.5,o),
(130.5,66,o),
(132.5,63.5,cs),
(134.5,60.5,o),
(141,57.5,o),
(149,57,c),
(147,56.5,o),
(145,56,o),
(143.5,56,cs)
);
},
{
closed = 1;
nodes = (
(122,85,o),
(121,86,o),
(119,87.5,cs),
(118.5,88,o),
(118,88,o),
(117,88.5,c),
(121,90,o),
(124.5,92,o),
(127,95,c),
(126.5,94,o),
(126.5,92,o),
(128,91.5,cs),
(133,88.5,o),
(137,86,o),
(138.5,85,c),
(137.5,85,l),
(124,85,ls)
);
},
{
closed = 1;
nodes = (
(100,90.5,o),
(98.5,91.5,o),
(97,93.5,c),
(96.5,95.5,o),
(96.5,97.5,o),
(96.5,99.5,cs),
(96.5,104,o),
(97.5,108,o),
(98.5,111.5,c),
(99,111,o),
(99.5,110.5,o),
(100.5,110.5,cs),
(102,110.5,o),
(103,111.5,o),
(103,112.5,cs),
(105,120,o),
(108.5,124.5,o),
(112,127.5,c),
(120.5,127.5,o),
(128,120,o),
(128,109,cs),
(128,97,o),
(114.5,90.5,o),
(102,90.5,cs)
);
},
{
closed = 1;
nodes = (
(147.5,88,o),
(143,89.5,o),
(137.5,92,c),
(136.5,92,l),
(134.5,93,o),
(132.5,94.5,o),
(130,95.5,c),
(129.5,96,o),
(128.5,96,o),
(127.5,95.5,c),
(131,99,o),
(133,103.5,o),
(133,109,cs),
(133,113,o),
(132,116.5,o),
(130.5,119.5,c),
(133,118.5,o),
(147.5,119.5,o),
(151.5,123,cs),
(155,125.5,o),
(161.5,126,o),
(165,126,cs),
(167,126,o),
(167,126,o),
(167,125.5,c),
(167,125.5,o),
(164,123.5,o),
(158,123,cs),
(150.5,122,o),
(133.5,115.5,o),
(133.5,110.5,cs),
(133.5,108.5,o),
(135.5,106.5,o),
(138.5,105,c),
(131,105,o),
(130,98.5,o),
(136.5,96.5,cs),
(141,95.5,o),
(145.5,94,o),
(148.5,92,cs),
(150,91,o),
(152.5,89.5,o),
(155,88.5,c)
);
},
{
closed = 1;
nodes = (
(125.5,127,o),
(123,129,o),
(120,130.5,c),
(122.5,130.5,l),
(136,129.5,l),
(134,127.5,o),
(132.5,126.5,o),
(132,126.5,cs),
(129.5,126.5,o),
(128,125.5,o),
(127.5,124.5,c)
);
},
{
closed = 1;
nodes = (
(102,162.5,o),
(101.5,163.5,o),
(101.5,165,cs),
(102,167,o),
(103,169,o),
(104,170.5,c),
(104,168.5,ls),
(104,167,o),
(105,166,o),
(106.5,166,cs),
(105.5,164.5,ls),
(104.5,163.5,o),
(103.5,162,o),
(102,160.5,c)
);
},
{
closed = 1;
nodes = (
(153,146,o),
(149.5,148,o),
(147.5,150.5,cs),
(144,154.5,o),
(137,157.5,o),
(124,157.5,cs),
(119.5,157.5,o),
(115.5,157.5,o),
(112,157,c),
(112,157,o),
(112.5,157.5,o),
(113,157.5,cs),
(114,157.5,l),
(134.5,157.5,ls),
(140,157.5,o),
(145,155,o),
(148,151.5,cs),
(151,149,o),
(154.5,147,o),
(158.5,146,c),
(156,146,ls)
);
}
);
width = 225;
}
);
},
{
export = 0;
glyphname = _part.insect2;
lastChange = "2023-04-26 07:00:01 +0000";
layers = (
{
layerId = m01;
shapes = (
{
closed = 1;
nodes = (
(54,20.5,o),
(57.5,26.5,o),
(60,33,c),
(65,31.5,o),
(68.5,26.5,o),
(72.5,20.5,cs),
(74,17.5,o),
(78.5,20,o),
(76.5,22.5,c),
(73,29.5,o),
(68,35.5,o),
(61.5,37.5,c),
(61.5,38,o),
(62,38.5,o),
(62,39,c),
(64,39,o),
(66,39.5,o),
(68,40,c),
(70.5,38.5,o),
(70.5,36.5,o),
(75,33,cs),
(77.5,31,o),
(80.5,35,o),
(78,37,cs),
(76.5,38,o),
(75.5,40.5,o),
(72.5,43,c),
(73,44,o),
(74,44.5,o),
(74.5,45.5,cs),
(76.5,48,o),
(73,51,o),
(70.5,48.5,cs),
(67.5,45.5,l),
(66.5,46,o),
(65.5,46.5,o),
(64.5,46.5,cs),
(63.5,46.5,l),
(63.5,48,o),
(64,49,o),
(64,50,c),
(65.5,52,o),
(65.5,55,o),
(63.5,57,c),
(63,59.5,o),
(61.5,62,o),
(58,62.5,c),
(62.5,64.5,o),
(64.5,68,o),
(61.5,70.5,c),
(61.5,73,ls),
(61.5,75,o),
(61,77.5,o),
(60,79,c),
(61.5,82,o),
(60,85,o),
(57,86.5,cs),
(54.5,87.5,o),
(52,88.5,o),
(50.5,89,c),
(51.5,90.5,o),
(53.5,92,o),
(56,92,cs),
(64.5,92,o),
(63,102,o),
(57,103.5,c),
(56.5,104,o),
(56,104.5,o),
(55,104.5,c),
(55.5,105,o),
(56,105,o),
(56,105.5,c),
(57.5,104.5,o),
(59,104,o),
(61,104,cs),
(61.5,104,o),
(62,104,o),
(62,104.5,c),
(62.5,104,o),
(63,103.5,o),
(63,103,c),
(66,100.5,o),
(69,104.5,o),
(67,107,cs),
(63.5,110,o),
(62.5,115.5,o),
(57.5,115.5,c),
(57,122.5,o),
(56.5,129.5,o),
(55.5,136.5,c),
(52.5,263.5,o),
(75,312,o),
(129.5,342.5,c),
(131,344,o),
(132,347.5,o),
(130.5,350,cs),
(128.5,353.5,o),
(125,349,o),
(126.5,347,c),
(75,317.5,o),
(51,272.5,o),
(50.5,164.5,c),
(44.5,187.5,o),
(35,209,o),
(27,228.5,cs),
(19,247.5,o),
(11.5,264.5,o),
(8.5,279.5,cs),
(7.5,284.5,o),
(2.5,285.5,o),
(-1,283,cs),
(-3.5,281,o),
(-0.5,277,o),
(2,279,cs),
(3,279.5,o),
(3.5,279.5,o),
(3.5,278.5,cs),
(6.5,262.5,o),
(14,245.5,o),
(22,226.5,cs),
(34,199.5,o),
(47,169,o),
(50.5,136,cs),
(51,129,o),
(51,122,o),
(51.5,115,c),
(48,114,o),
(45,112,o),
(45,107,cs),
(45,106,l),
(44,106,ls),
(42.5,106,o),
(41.5,105,o),
(41.5,103.5,cs),
(41.5,103,o),
(41.5,102.5,o),
(42,102,c),
(40.5,102,ls),
(39,102,o),
(38,101,o),
(38,99.5,cs),
(38,98,o),
(39,97,o),
(40.5,97,cs),
(43,97,l),
(40,95,o),
(39,91.5,o),
(44.5,87.5,c),
(44,86.5,o),
(44,86,o),
(44,85,cs),
(44,82,o),
(45.5,79.5,o),
(48.5,78,c),
(47.5,78,ls),
(39.5,78,o),
(40.5,68.5,o),
(48.5,68.5,cs),
(51,68.5,l),
(50,67,o),
(49.5,65,o),
(49.5,63,c),
(47,59.5,o),
(49.5,54.5,o),
(56.5,54.5,cs),
(57.5,54.5,o),
(58.5,54.5,o),
(59,54,c),
(59,52.5,l),
(54,52.5,o),
(52,48,o),
(55,45,c),
(49.5,47,o),
(43.5,51.5,o),
(38.5,59,cs),
(36.5,62.5,o),
(33,58,o),
(34.5,56,cs),
(40.5,46.5,o),
(49,41,o),
(57,39.5,c),
(57,39,o),
(57,38.5,o),
(56.5,38.5,cs),
(54,38,o),
(51,37,o),
(47.5,35,cs),
(44,33,o),
(48.5,29.5,o),
(50.5,31,cs),
(52,32,o),
(53.5,32.5,o),
(55,33,c),
(52.5,28,o),
(50,24,o),
(47.5,22.5,cs),
(44,20.5,o),
(48.5,17,o),
(50.5,18.5,cs)
);
},
{
closed = 1;
nodes = (
(43,78.5,o),
(44,79.5,o),
(44,81,cs),
(44,84.5,ls),
(44,86,o),
(43,87,o),
(41.5,87,cs),
(40,87,o),
(39,86,o),
(39,84.5,cs),
(39,81,ls),
(39,79.5,o),
(40,78.5,o),
(41.5,78.5,cs)
);
},
{
closed = 1;
nodes = (
(55,73,o),
(53,73.5,o),
(51,73.5,c),
(53,74,o),
(55,74.5,o),
(56.5,75.5,c),
(56.5,73,l)
);
},
{
closed = 1;
nodes = (
(67,60.5,o),
(68,61.5,o),
(68,63,cs),
(68,66.5,ls),
(68,68,o),
(67,69,o),
(65.5,69,cs),
(64,69,o),
(63,68,o),
(63,66.5,cs),
(63,63,ls),
(63,61.5,o),
(64,60.5,o),
(65.5,60.5,cs)
);
},
{
closed = 1;
nodes = (
(51,82,o),
(49.5,83,o),
(49,84.5,c),
(50.5,83.5,o),
(52.5,82.5,o),
(55,81.5,c)
);
},
{
closed = 1;
nodes = (
(44.5,92.5,o),
(45.5,93,o),
(47.5,93.5,c),
(47.5,93,o),
(46.5,92,o),
(46,91,c)
);
},
{
closed = 1;
nodes = (
(49,100,o),
(50.5,99.5,o),
(50,99.5,cs),
(49,99.5,l)
);
},
{
closed = 1;
nodes = (
(55,97.5,o),
(55.5,98,o),
(56,98.5,c),
(57.5,98,o),
(58,97,o),
(56,97,cs),
(54,97,l)
);
},
{
closed = 1;
nodes = (
(51.5,105.5,o),
(51,106,o),
(50,106,c),
(50,107,ls),
(50,108.5,o),
(50.5,109,o),
(51.5,109.5,c),
(51.5,107,ls),
(51.5,106.5,o),
(51.5,106,o),
(52,105.5,c)
);
},
{
closed = 1;
nodes = (
(58.5,110,o),
(58,110,o),
(57.5,110.5,c),
(58,110.5,o),
(58.5,110,o),
(59,109.5,c)
);
},
{
closed = 1;
nodes = (
(63.5,122,o),
(64.5,123,o),
(64.5,124.5,cs),
(64.5,127.5,ls),
(64.5,129,o),
(63.5,130,o),
(62,130,cs),
(60.5,130,o),
(59.5,129,o),
(59.5,127.5,cs),
(59.5,124.5,ls),
(59.5,123,o),
(60.5,122,o),
(62,122,cs)
);
}
);
width = 225;
}
);
},
{
export = 0;
glyphname = _part.insect3;
lastChange = "2023-04-26 07:00:12 +0000";
layers = (
{
layerId = m01;
shapes = (
{
closed = 1;
nodes = (
(73,31.5,o),
(89.5,55.5,o),
(88,75.5,c),
(90.5,75.5,ls),
(102.5,75.5,o),
(113.5,87.5,o),
(119,104,c),
(146,103.5,o),
(187.5,93.5,o),
(197.5,85,cs),
(200,83,o),
(203,86.5,o),
(200.5,89,cs),
(190,98,o),
(148,108,o),
(120.5,109,c),
(122,115,o),
(123,121.5,o),
(123,128,cs),
(123,137,o),
(119,143.5,o),
(112,149,c),
(112,160.5,o),
(113.5,179,o),
(123,190,cs),
(125,192.5,o),
(121,195.5,o),
(119,193,cs),
(110,182,o),
(107.5,164.5,o),
(107,152,c),
(102.5,155,o),
(97.5,157,o),
(91.5,158.5,c),
(93.5,164.5,o),
(95.5,168,o),
(99,172.5,cs),
(104,177.5,o),
(100,183,o),
(94.5,183,cs),
(88.5,183,l),
(86,225,ls),
(86,226.5,o),
(85,227.5,o),
(83.5,227.5,cs),
(82,227.5,o),
(81,226.5,o),
(81,225,cs),
(83.5,183.5,l),
(73,183.5,ls),
(60,184,o),
(48.5,182.5,o),
(43,178,c),
(34.5,181.5,o),
(29,196.5,o),
(26,212,cs),
(26,213.5,o),
(25,214.5,o),
(23.5,214.5,cs),
(22,214.5,o),
(21,213.5,o),
(21,212,cs),
(24,196,o),
(30.5,179,o),
(40.5,174,c),
(40,173,o),
(40,172.5,o),
(40,171.5,cs),
(40,152,o),
(47,137,o),
(58,131.5,c),
(57,122.5,o),
(57,115,o),
(57.5,108.5,c),
(33,109,o),
(12,104.5,o),
(1.5,100.5,cs),
(-1.5,99,o),
(0.5,94.5,o),
(3.5,95.5,cs),
(13.5,100,o),
(33.5,104,o),
(58,103.5,c),
(59,97.5,o),
(61,93,o),
(63,89.5,c),
(49,87,o),
(32.5,70,o),
(18.5,48.5,cs),
(16.5,45.5,o),
(21,43,o),
(22.5,45.5,cs),
(37.5,68,o),
(53,84,o),
(65.5,84.5,cs),
(66.5,84.5,l),
(70.5,79.5,o),
(76.5,77,o),
(83,76,c),
(85,57,o),
(69,34.5,o),
(58.5,22.5,cs),
(56,20,o),
(60,17,o),
(62.5,19.5,cs)
);
},
{
closed = 1;
nodes = (
(77,80.5,o),
(66,85.5,o),
(63,104.5,c),
(63.5,105,o),
(63.5,105.5,o),
(63.5,106,cs),
(63.5,107,o),
(63,107.5,o),
(62.5,108,c),
(62,114,o),
(62,121,o),
(63,129.5,c),
(64.5,129,o),
(66,129,o),
(67.5,129,cs),
(79,129,o),
(87,142.5,o),
(90.5,154,c),
(97,152,o),
(102.5,149.5,o),
(107,146.5,c),
(107,144.5,o),
(108,143.5,o),
(109.5,143.5,cs),
(110,143.5,o),
(110.5,143.5,o),
(110.5,144,c),
(115.5,139.5,o),
(118,134.5,o),
(118,128,cs),
(118,102.5,o),
(104.5,80.5,o),
(90.5,80.5,cs)
);
},
{
closed = 1;
nodes = (
(54.5,134,o),
(45,148.5,o),
(45,171.5,cs),
(45,176.5,o),
(56,179.5,o),
(73,178.5,cs),
(84,178,l),
(84,176.5,ls),
(84,175,o),
(85,174,o),
(86.5,174,cs),
(88,174,o),
(89,175,o),
(89,176.5,cs),
(89,178,l),
(94.5,178,ls),
(96.5,178,o),
(97,177.5,o),
(95,175.5,cs),
(90.5,170,o),
(88,165,o),
(85.5,155.5,cs),
(82.5,145,o),
(76,134,o),
(67.5,134,cs)
);
},
{
closed = 1;
nodes = (
(134.5,136.5,o),
(145.5,143,o),
(165.5,153,cs),
(168.5,154.5,o),
(166.5,159,o),
(163.5,157,cs),
(143.5,147,o),
(131.5,140.5,o),
(123.5,133,cs),
(121,130,o),
(125,127,o),
(127.5,129,cs)
);
}
);
width = 225;
}
);
},
{
export = 0;
glyphname = _part.ladybug1;
lastChange = "2023-04-26 06:54:28 +0000";
layers = (
{
layerId = m01;
shapes = (
{
closed = 1;
nodes = (
(106,17,o),
(107,18,o),
(107,19.5,cs),
(107,34.5,l),
(123,38.5,o),
(137,46.5,o),
(147,58.5,c),
(156.5,50.5,ls),
(159,48.5,o),
(162,52.5,o),
(159.5,54.5,cs),
(150,62.5,l),
(157.5,72.5,o),
(162,85,o),
(164,100,c),
(175,100,ls),
(176.5,100,o),
(177.5,101,o),
(177.5,102.5,cs),
(177.5,104,o),
(176.5,105,o),
(175,105,cs),
(164.5,105,l),
(164.5,111.5,ls),
(164.5,121,o),
(156,133.5,o),
(143.5,142,c),
(150.5,153.5,o),
(140.501,169,o),
(123,169,cs),
(113,169,o),
(99.5,164.5,o),
(99,150,c),
(85,150.5,o),
(73.5,149.5,o),
(64,148,c),
(62,157,ls),
(62,158,o),
(61,159,o),
(59.5,159,cs),
(58,159,o),
(57,158,o),
(57,156,c),
(59.5,147.5,l),
(39,143.5,o),
(30.5,135,o),
(27.5,126.5,c),
(10.5,126.5,ls),
(9,126.5,o),
(8,125.5,o),
(8,124,cs),
(8,122.5,o),
(9,121.5,o),
(10.5,121.5,cs),
(26,121.5,l),
(25.5,120,o),
(25.5,118.5,o),
(25.5,117,cs),
(24.5,81.5,l),
(24.5,77,l),
(2.5,77,ls),
(1,77,o),
(0,76,o),
(0,74.5,cs),
(0,73,o),
(1,72,o),
(2.5,72,cs),
(25.5,72,l),
(28.5,58,o),
(38,47,o),
(50.5,40,c),
(49.5,38,o),
(49,36,o),
(48.5,34.5,cs),
(48.5,32.5,o),
(49.5,31.5,o),
(51,31.5,cs),
(52.5,31.5,o),
(53.5,32.5,o),
(53.5,33.5,c),
(55,38,l),
(63.5,34,o),
(73,32,o),
(83,32,cs),
(89.5,32,o),
(96,32.5,o),
(102,33.5,c),
(102,19.5,ls),
(102,18,o),
(103,17,o),
(104.5,17,cs)
);
},
{
closed = 1;
nodes = (
(117.5,44.5,o),
(123.5,54.5,o),
(123.5,62.5,cs),
(123.5,70.5,o),
(119.5,76,o),
(107,76,cs),
(96.5,76,o),
(87.5,69,o),
(87.5,60.5,cs),
(87.5,51.5,o),
(96.5,44.5,o),
(107,44.5,cs)
);
},
{
closed = 1;
nodes = (
(38.5,52.5,o),
(29,65.5,o),
(29.5,81.5,cs),
(30.5,117,ls),
(30.5,118.5,o),
(30.5,120,o),
(31,121.5,c),
(32,121.5,ls),
(33.5,121.5,o),
(34.5,122.5,o),
(34.5,124,cs),
(34.5,125,o),
(34,126,o),
(32.5,126.5,c),
(36,132.5,o),
(42.5,138,o),
(56.5,141.5,c),
(56,136,ls),
(55.5,129.5,o),
(63,124,o),
(71.5,124,cs),
(79.5,124,o),
(86.5,129.5,o),
(86.5,136,cs),
(86.5,139.5,o),
(84.5,143,o),
(82,145,c),
(90.5,145.5,o),
(100.5,145,o),
(112.5,144.5,cs),
(113.5,144.5,o),
(114.5,145.5,o),
(115,146.5,c),
(117,146.5,o),
(119.5,146.5,o),
(121.5,146,c),
(113,134.5,o),
(104.5,123,o),
(96.5,112,c),
(92.5,112,ls),
(84,112,o),
(76,106,o),
(76,98.5,cs),
(76,95,o),
(78,91.5,o),
(80.5,89.5,c),
(68.5,72,o),
(58,56,o),
(52.5,44.5,c)
);
},
{
closed = 1;
nodes = (
(62,77.5,o),
(68,82.5,o),
(68,89.5,cs),
(68,96.5,o),
(61.5,102,o),
(54,102,cs),
(44,102,o),
(39.5,96.5,o),
(39.5,89.5,cs),
(39.5,82.5,o),
(46.5,77.5,o),
(55,77.5,cs)
);
},
{
closed = 1;
nodes = (
(48.5,82.5,o),
(44.5,85.5,o),
(44.5,89.5,cs),
(44.5,88.5,o),
(45.5,87.5,o),
(47.5,87.5,c),
(56,90,l),
(55.5,89,o),
(55,88,o),
(54,88,cs),
(52.5,88,o),
(51.5,87,o),
(51.5,85.5,cs),
(51.5,84,o),
(52.5,83,o),
(54,83,cs),
(59.5,83.5,o),
(60.5,87,o),
(61.5,89.5,cs),
(63,93,o),
(60.5,96,o),
(56,95,cs),
(46.5,92.5,ls),
(45.5,92,o),
(44.5,91.5,o),
(44.5,90.5,cs),
(45,94.5,o),
(47.5,97,o),
(54,97,cs),
(59.5,97,o),
(63,93.5,o),
(63,89.5,cs),
(63,85.5,o),
(60,82.5,o),
(55,82.5,cs)
);
},
{
closed = 1;
nodes = (
(115.5,56.5,o),
(112.5,60,o),
(106,60,c),
(107,60.5,o),
(108.5,61,o),
(110,61.5,cs),
(114.5,64,o),
(116.5,67.5,o),
(115.5,69.5,c),
(118,68.5,o),
(118.5,66,o),
(118.5,62.5,cs),
(118.5,56.5,o),
(114.5,49.5,o),
(107,49.5,cs),
(106,49.5,l)
);
},
{
closed = 1;
nodes = (
(84.5,90,o),
(101.5,93.5,o),
(101.5,99.5,cs),
(101.5,102.5,o),
(100,104.5,o),
(98,105.5,c),
(98.5,105.5,o),
(98.5,106,o),
(99,106.5,c),
(103,105.5,o),
(104,103,o),
(104,98.5,cs),
(104,94,o),
(99,90,o),
(92.5,90,cs),
(91.5,90,ls)
);
},
{
closed = 1;
nodes = (
(74,37,o),
(65,39,o),
(57,42.5,c),
(62,53.5,o),
(72.5,69,o),
(85,86.5,c),
(87,85.5,o),
(90,85,o),
(92.5,85,cs),
(101,85,o),
(109,91,o),
(109,98.5,cs),
(109,104.5,o),
(107,108.5,o),
(102,110.5,c),
(109.5,121,o),
(117.5,132,o),
(125,142.5,cs),
(125.5,143.5,o),
(125.5,144.5,o),
(125,145,c),
(144.5,140.5,o),
(159.5,123,o),
(159.5,111.5,cs),
(159.5,63.5,o),
(128,37,o),
(83,37,cs)
);
},
{
closed = 1;
nodes = (
(95.5,52.5,o),
(92.5,56,o),
(92.5,60.5,cs),
(92.5,63,o),
(94,65.5,o),
(96,67.5,c),
(95,65.5,o),
(97,63,o),
(99.5,64.5,cs),
(112.5,71,o),
(113.5,69,o),
(108,66.5,cs),
(90,58.5,o),
(97,54,o),
(104.5,55,cs),
(105.5,55,o),
(105.5,55,o),
(101.5,52.5,cs),
(100.5,52,o),
(100.5,51.5,o),
(100.5,50.5,c)
);
},
{
closed = 1;
nodes = (
(89.5,90.5,o),
(88.5,90.5,o),
(87.5,91,c),
(88,91,o),
(88.5,91.5,o),
(88.5,92,cs),
(88.5,91,o),
(89.5,90.5,o),
(90,90,c)
);
},
{
closed = 1;
nodes = (
(82,95,o),
(81,96.5,o),
(81,98.5,cs),
(81,103,o),
(86,107,o),
(92.5,107,c),
(93,106.5,o),
(92.5,106.5,o),
(92.5,106,c),
(90,105.5,o),
(87,104.5,o),
(84,102.5,cs),
(80.5,100.5,o),
(85,97,o),
(87,98.5,c),
(86,97,o),
(84.5,95,o),
(83.5,93.5,c)
);
},
{
closed = 1;
nodes = (
(95,101,l),
(96,101,o),
(96.5,100.5,o),
(96.5,99.5,cs),
(96.5,96.5,o),
(96,96,o),
(91,95,c)
);
},
{
closed = 1;
nodes = (
(65,129,o),
(60.5,132.5,o),
(61,136,cs),
(61.5,142.5,l),
(62.5,142.5,ls),
(63,142.5,o),
(64,143,o),
(64.5,143.5,c),
(65.5,143.5,o),
(66.5,143.5,o),
(67.5,144,cs),
(65,142.5,o),
(63,140.5,o),
(63,138,cs),
(63,132,o),
(67.5,131.5,o),
(73,131.5,cs),
(78,131.5,o),
(78.5,134.5,o),
(78.5,138.5,cs),
(78.5,140,o),
(77.5,141,o),
(76,141,cs),
(74.5,141,o),
(73.5,140,o),
(73.5,138.5,cs),
(73.5,136.5,o),
(73.5,136.5,o),
(73,136.5,cs),
(69.5,136.5,o),
(68,136.5,o),
(68,138,cs),
(68,139.5,o),
(74.5,141.5,o),
(77.5,141.5,cs),
(79.5,141.5,o),
(81.5,139.5,o),
(81.5,136,cs),
(81.5,132.5,o),
(77.5,129,o),
(71.5,129,cs)
);
},
{
closed = 1;
nodes = (
(149,100,o),
(157,106,o),
(157,113.5,cs),
(157,120.5,o),
(152.5,126.5,o),
(146,126.5,cs),
(140,126.5,o),
(130,119,o),
(130,114.5,cs),
(130,108.5,o),
(142,107.5,o),
(148,114.5,cs),
(150,117,o),
(146,120,o),
(144,117.5,c),
(146,119.5,o),
(135,111.5,o),
(135,114.5,cs),
(135,116,o),
(142,121.5,o),
(146,121.5,cs),
(149.5,121.5,o),
(152,118.5,o),
(152,113.5,cs),
(152,109,o),
(147,105,o),
(140.5,105,cs),
(133.5,105,o),
(128.5,109,o),
(128.5,114,cs),
(128.5,115.5,o),
(127.5,116.5,o),
(126,116.5,cs),
(124.5,116.5,o),
(123.5,115.5,o),
(123.5,114,cs),
(123.5,106,o),
(131.5,100,o),
(140.5,100,cs)
);
},
{
closed = 1;
nodes = (
(109.5,149.5,o),
(107,150,o),
(104,150,c),
(104,157.5,o),
(109,161,o),
(115,163,c),
(114.5,162.5,o),
(114,162,o),
(114,161,cs),
(114,160,ls),
(114,158.5,o),
(115,157.5,o),
(116.5,157.5,cs),
(117,157.5,o),
(117.5,157.5,o),
(118,158,c),
(117.5,157.5,o),
(117,157,o),
(117,156,cs),
(117,153.5,o),
(118.5,152,o),
(120.5,151,c),
(118.5,151.5,o),
(117,151.5,o),
(115,151.5,cs),
(114,151.5,o),
(113,150.5,o),
(112.5,149.5,c)
);
},
{
closed = 1;
nodes = (
(134.5,147.5,o),
(129.5,149.5,o),
(124.5,150.5,c),
(127,150.5,o),
(129.5,153,o),
(129.5,156,c),
(130,155.5,o),
(130.5,155,o),
(131.5,155,cs),
(133,155,o),
(134,156,o),
(134,157.5,cs),
(134,159.5,ls),
(134,161,o),
(133,162,o),
(131.5,162,cs),
(130,162,o),
(129,161,o),
(129,159.5,cs),
(129,157.5,l),
(128.5,158,o),
(128,158.5,o),
(127,158.5,cs),
(125.5,158.5,o),
(124.5,157.5,o),
(124.5,156,cs),
(124.5,155.5,o),
(124,155,o),
(123.5,155,cs),
(122,155,o),
(122,155.5,o),
(122,156,cs),
(122,157.5,o),
(121,158.5,o),
(119.5,158.5,cs),
(119,158.5,o),
(118.5,158.5,o),
(118,158,c),
(118.5,158.5,o),
(119,159,o),
(119,160,cs),
(119,161,ls),
(119,162,o),
(118,163,o),
(117,163.5,c),
(119,164,o),
(121,164,o),
(123,164,cs),
(137,164,o),
(144,152.5,o),
(139,145,c)
);
}
);
width = 225;
}
);
},
{
export = 0;
glyphname = _part.ladybug2;
lastChange = "2023-04-26 06:55:44 +0000";
layers = (
{
layerId = m01;
shapes = (
{
closed = 1;
nodes = (
(46,17,o),
(50,23,o),
(50,34,c),
(55.5,34.5,o),
(61,37.5,o),
(65.5,41.5,c),
(65.5,40.5,o),
(66.5,39.5,o),
(68,39.5,cs),
(71.5,39.5,o),
(72,39.5,o),
(72,38,cs),
(72,37.5,o),
(69.5,33.5,o),
(63,28,cs),
(60.5,25.5,o),
(64,22,o),
(66,24,cs),
(74,30.5,o),
(77,36,o),
(77,38,cs),
(77,43.5,o),
(72,44.5,o),
(68,44.5,c),
(70.5,47,o),
(72,49.5,o),
(73.5,52,c),
(73.5,50,o),
(74.5,49,o),
(76,49,cs),
(81.5,49,o),
(84,45.5,o),
(82.5,34,cs),
(82.5,32.5,o),
(83.5,31.5,o),
(85,31.5,cs),
(86.5,31.5,o),
(87.5,32.5,o),
(87.5,34,cs),
(89,47.5,o),
(85.5,54,o),
(76,54,cs),
(75.5,54,o),
(74.5,53.5,o),
(74,53,c),
(76.5,58,o),
(78,62.5,o),
(78,66.5,cs),
(78,68.5,l),
(86.5,67,ls),
(89.5,66.5,o),
(90,65.5,o),
(91.5,59,cs),
(91.5,58,o),
(92.5,57,o),
(94,57,cs),
(95.5,57,o),
(96.5,58,o),
(96.5,60,cs),
(95,67.5,o),
(92.5,70.5,o),
(87.5,72,cs),
(77,73.5,l),
(77,75,o),
(76.5,76,o),
(76,77.5,c),
(88.5,83.5,l),
(88.5,82,l),
(89.5,80,o),
(92.5,77.5,o),
(97,77.5,cs),
(101,77.5,o),
(104,80.5,o),
(104,84.5,cs),
(104,89,o),
(99,93.5,o),
(92.5,91,cs),
(74.5,82.5,l),
(72,85,o),
(70,87.5,o),
(67.5,89.5,c),
(68,90,o),
(68,90.5,o),
(68,91,cs),
(68.5,100.5,l),
(75.5,100.5,o),
(79,105,o),
(79,108.5,cs),
(79,112.5,o),
(76,115.5,o),
(72,115.5,cs),
(67.5,115.5,o),
(64.5,113,o),
(64,108.5,cs),
(63,93,l),
(61,94,o),
(58.5,95,o),
(56.5,95.5,c),
(54.5,102.5,o),
(50.5,110,o),
(42,108,cs),
(41,108,o),
(40,107,o),
(40,105.5,cs),
(40,104,o),
(41,103,o),
(43,103,cs),
(47.5,104,o),
(49.5,101,o),
(51,96.5,c),
(47.5,96.5,o),
(44.5,96,o),
(42,95,c),
(35,101,o),
(30,103.5,o),
(25.5,103.5,cs),
(21,103.5,o),
(17.5,100.5,o),
(17,96,cs),
(17,94.5,o),
(18,93.5,o),
(19.5,93.5,cs),
(21,93.5,o),
(22,94.5,o),
(22,96,cs),
(22.5,97.5,o),
(23,98.5,o),
(25.5,98.5,cs),
(28.5,98.5,o),
(32,97,o),
(36.5,93,c),
(31.5,90.5,o),
(27.5,87,o),
(24,82.5,c),
(14.5,86.5,o),
(4.5,84,o),
(2,78.5,cs),
(0.5,75.5,o),
(4.5,73.5,o),
(6,76.5,cs),
(7.5,79,o),
(14,81,o),
(21.5,78.5,c),
(19,75,o),
(18,71,o),
(18,68,cs),
(18,65.5,l),
(4.5,66.5,o),
(-1,63.5,o),
(-1,57.5,cs),
(-1,56,o),
(0,55,o),
(1.5,55,cs),
(3,55,o),
(4,56,o),
(4,57.5,cs),
(4,60,o),
(7,61.5,o),
(18.5,60.5,c),
(20.5,44,o),
(30.5,35.5,o),
(45,34,c),
(45,25,o),
(43,22,o),
(33,22,cs),
(31.5,22,o),
(30.5,21,o),
(30.5,19.5,cs),
(30.5,18,o),
(31.5,17,o),
(33,17,cs)
);
},
{
closed = 1;
nodes = (
(33,39.5,o),
(31,40.5,o),
(31,42.5,cs),
(31,45,o),
(33,45.5,o),
(35.5,45.5,cs),
(38.5,45.5,o),
(40,44.5,o),
(40,42.5,cs),
(40,40.5,o),
(38.5,39.5,o),
(35.5,39.5,cs)
);
},
{
closed = 1;
nodes = (
(23,54,o),
(20.5,56,o),
(20.5,58,cs),
(20.5,59,o),
(21,60,o),
(21.5,61,c),
(22,61,o),
(22,61,o),
(22.5,61.5,cs),
(23,62,o),
(24,62,o),
(25,62,cs),
(28,62,o),
(29.5,59.5,o),
(29.5,57.5,cs),
(29.5,55,o),
(28,54,o),
(25.5,54,cs)
);
},
{
closed = 1;
nodes = (
(35.5,55.5,o),
(34,57.5,o),
(34,59.5,cs),
(34,62,o),
(35.5,63.5,o),
(37.5,63.5,cs),
(39.5,63.5,o),
(40.5,62,o),
(40.5,59.5,cs),
(40.5,57.5,o),
(39,55.5,o),
(37,55.5,cs)
);
},
{
closed = 1;
nodes = (
(26.5,65,o),
(26.5,66.5,o),
(26.5,68.5,cs),
(26.5,71,o),
(27,73,o),
(29.5,73,cs),
(32.5,73,o),
(32.5,71,o),
(32.5,68.5,cs),
(32.5,66.5,o),
(32,65,o),
(29.5,65,cs)
);
},
{
closed = 1;
nodes = (
(48,47,o),
(47,48,o),
(47,49.5,cs),
(47,51,o),
(48,52,o),
(50,52,cs),
(52,52,o),
(53,51,o),
(53,49.5,cs),
(53,48,o),
(52,47,o),
(50,47,cs)
);
},
{
closed = 1;
nodes = (
(58.5,43,o),
(57.5,44,o),
(57.5,45.5,cs),
(57.5,47,o),
(58.5,48.5,o),
(60,48.5,cs),
(61.5,48.5,o),
(62.5,47,o),
(62.5,45.5,cs),
(62.5,44,o),
(61.5,43,o),
(60,43,cs)
);
},
{
closed = 1;
nodes = (
(46.5,57.5,o),
(45.5,60,o),
(45.5,62,cs),
(45.5,64.5,o),
(47.5,66,o),
(50,66,cs),
(52.5,66,o),
(54.5,64.5,o),
(54.5,62,cs),
(54.5,60,o),
(52,57.5,o),
(49,57.5,cs)
);
},
{
closed = 1;
nodes = (
(40,72.5,o),
(38,74.5,o),
(38,77,cs),
(38,79,o),
(39,80.5,o),
(41.5,80.5,cs),
(44.5,80.5,o),
(46,79,o),
(46,77,cs),
(46,74.5,o),
(45,72.5,o),
(42.5,72.5,cs)
);
},
{
closed = 1;
nodes = (
(60,65,o),
(58,66.5,o),
(58,69,cs),
(58,71,o),
(60,72.5,o),
(62.5,72.5,cs),
(65.5,72.5,o),
(67,71,o),
(67,69,cs),
(67,66.5,o),
(65.5,65,o),
(62.5,65,cs)
);
},
{
closed = 1;
nodes = (
(53,75.5,o),
(51.5,77,o),
(51.5,80,cs),
(51.5,82.5,o),
(53,84.5,o),
(55,84.5,cs),
(57.5,84.5,o),
(59,82.5,o),
(59,80,cs),
(59,77,o),
(57.5,75.5,o),
(55,75.5,cs)
);
},
{
closed = 1;
nodes = (
(69,107.5,ls),
(69.5,110,o),
(69.5,110.5,o),
(72,110.5,cs),
(73.5,110.5,o),
(74,110,o),
(74,108.5,cs),
(74,107.5,o),
(72,105.5,o),
(69,105.5,c)
);
},
{
closed = 1;
nodes = (
(95,82.5,o),
(93.5,83.5,o),
(93.5,84,c),
(93,84.5,o),
(93,85,o),
(92.5,85,c),
(94.5,86,ls),
(97,87.5,o),
(99,86,o),
(99,84.5,cs),
(99,82.5,o),
(99,82.5,o),
(97,82.5,cs)
);
}
);
width = 225;
}
);
},
{
export = 0;
glyphname = _part.ladybug3;
lastChange = "2023-04-26 06:57:42 +0000";
layers = (
{
layerId = m01;
shapes = (
{
closed = 1;
nodes = (
(101.5,17,o),
(102.5,18,o),
(102.5,19.5,cs),
(102.5,21,o),
(102.5,22.5,o),
(102,23.5,c),
(161.5,29,o),
(197,42,o),
(197,92,cs),
(197,153,o),
(173.5,190.5,o),
(127,203.5,c),
(129,207.5,o),
(130,211.5,o),
(130,215.5,cs),
(130,220.5,o),
(128,225.5,o),
(125,230,c),
(138.5,245.5,o),
(152,256,o),
(160.5,256,cs),
(169.5,256,o),
(173,253.5,o),
(174,250,cs),
(174.5,249,o),
(175.5,248.5,o),
(176.5,248.5,cs),
(178,248.5,o),
(179.5,250.5,o),
(179,252,cs),
(177,257.5,o),
(171.5,261,o),
(160.5,261,cs),
(150.5,261,o),
(135.5,249.5,o),
(121.5,233.5,c),
(115.5,239.5,o),
(106.5,243,o),
(95.5,243,cs),
(90,243,o),
(85,242,o),
(80.5,240.5,c),
(61.5,253.5,o),
(40,262.5,o),
(24,262.5,cs),
(12,262.5,o),
(6,259,o),
(4.5,252,cs),
(4.5,250.5,o),
(5.5,249.5,o),
(7,249.5,cs),
(8.5,249.5,o),
(9.5,250.5,o),
(9.5,252,cs),
(10,255,o),
(14,257.5,o),
(24,257.5,cs),
(38.5,257.5,o),
(57.5,250,o),
(75,238,c),
(66.5,233.5,o),
(61,225,o),
(61,215,cs),
(61,212.5,o),
(61.5,210,o),
(62,207,c),
(26,202.5,o),
(6,186.5,o),
(4,163,cs),
(1,134,ls),
(-5,74.5,o),
(45.5,19,o),
(97.5,18.5,c),
(98,17.5,o),
(99,17,o),
(100,17,cs)
);
},
{
closed = 1;
nodes = (
(84,24,o),
(70.5,28,o),
(58.5,35,c),
(58.5,35,o),
(59,36,o),
(59,36.5,cs),
(60,63,o),
(45,78.5,o),
(21.5,73.5,cs),
(21,73.5,o),
(20.5,73,o),
(20,72.5,c),
(9.5,90.5,o),
(3.5,111.5,o),
(6,133,cs),
(9,163,ls),
(11,186,o),
(33,201.5,o),
(75.5,203.5,c),
(55.5,186,o),
(76,153,o),
(97,154.5,c),
(97.5,145.5,o),
(98,134.5,o),
(99,122,cs),
(100,104,o),
(99,96,o),
(96,86,cs),
(94.5,79,o),
(94,61,o),
(97,23.5,c)
);
},
{
closed = 1;
nodes = (
(42,45.5,o),
(31,56,o),
(22.5,68.5,c),
(42.5,72.5,o),
(54.5,60.5,o),
(54,37.5,c)
);
},
{
closed = 1;
nodes = (
(57.5,112,o),
(66.5,119,o),
(66.5,126.5,cs),
(66.5,133.5,o),
(55,141.5,o),
(45,141.5,cs),
(36,141.5,o),
(28.5,136.5,o),
(28.5,128.5,cs),
(28.5,120,o),
(38,112,o),
(48.5,112,cs)
);
},
{
closed = 1;
nodes = (
(40,117,o),
(33.5,123,o),
(33.5,128.5,cs),
(33.5,133.5,o),
(38,136.5,o),
(45,136.5,cs),
(53,136.5,o),
(61.5,130.5,o),
(61.5,126.5,cs),
(61.5,122,o),
(55.5,117,o),
(48.5,117,cs)
);
},
{
closed = 1;
nodes = (
(99,62.5,o),
(99.5,78.5,o),
(101,85,cs),
(104,95,o),
(105,104,o),
(104,122,cs),
(101,164.5,o),
(101,182,o),
(107,201,c),
(107,202.5,l),
(111,202,o),
(114.5,201,o),
(118.5,200.5,c),
(116.5,198,o),
(120,195,o),
(122.5,197.5,cs),
(124,199,l),
(169.5,187.5,o),
(192,152,o),
(192,92,cs),
(192,88,o),
(191.5,84,o),
(191,80.5,c),
(178,84,o),
(173,88,o),
(173,102.5,cs),
(173,112,o),
(177,118,o),
(186.5,121.5,cs),
(189.5,123,o),
(188,127.5,o),
(184.5,126.5,cs),
(173,122,o),
(168,114,o),
(168,102.5,cs),
(168,85.5,o),
(175,79.5,o),
(190.5,75.5,c),
(183,43,o),
(152,33,o),
(101.5,28.5,c)
);
},
{
closed = 1;
nodes = (
(131,41.5,o),
(140,47,o),
(140,53.5,cs),
(140,61,o),
(126.5,69.5,o),
(118,69.5,cs),
(113,69.5,o),
(109.5,64.5,o),
(109.5,57.5,cs),
(109.5,49,o),
(116,41.5,o),
(124,41.5,cs)
);
},
{
closed = 1;
nodes = (
(119,46.5,o),
(114.5,51,o),
(114.5,57.5,cs),
(114.5,62.5,o),
(116,64.5,o),
(118,64.5,cs),
(124.5,64.5,o),
(135,58,o),
(135,53.5,cs),
(135,50,o),
(129,46.5,o),
(124,46.5,cs)
);
},
{
closed = 1;
nodes = (
(78.5,158,o),
(61,189,o),
(82.5,202,cs),
(83,202.5,o),
(83.5,203,o),
(83.5,203.5,c),
(85.5,203.5,ls),
(91.5,203.5,o),
(97,203.5,o),
(102.5,203,c),
(102,202.5,o),
(102,202,o),
(102,202,c),
(98,189.5,o),
(97,177.5,o),
(97,159.5,c)
);
},
{
closed = 1;
nodes = (
(148.5,137.5,o),
(155.5,144.5,o),
(155.5,155,cs),
(155.5,165,o),
(148,173.5,o),
(136,173.5,cs),
(127.5,173.5,o),
(121.5,167.5,o),
(121.5,158.5,cs),
(121.5,149.5,o),
(128,137.5,o),
(138.5,137.5,cs)
);
},
{
closed = 1;
nodes = (
(131,142.5,o),
(126.5,151.5,o),
(126.5,158.5,cs),
(126.5,165.5,o),
(129.5,168.5,o),
(136,168.5,cs),
(145,168.5,o),
(150.5,163,o),
(150.5,155,cs),
(150.5,146.5,o),
(146.5,142.5,o),
(138.5,142.5,cs)
);
},
{
closed = 1;
nodes = (
(111,207,o),
(99,208.5,o),
(85.5,208.5,cs),
(79,208.5,o),
(73,208,o),
(67.5,207.5,c),
(66.5,210.5,o),
(66,212.5,o),
(66,215,cs),
(66,224,o),
(71,231,o),
(79.5,235,c),
(82,233,o),
(84,235,o),
(84,236.5,c),
(87.5,237.5,o),
(91.5,238,o),
(95.5,238,cs),
(105.5,238,o),
(113.5,235,o),
(118.5,230,c),
(117.5,229,ls),
(115.5,226.5,o),
(119.5,223.5,o),
(121.5,226,c),
(124,223,o),
(125,219.5,o),
(125,215.5,cs),
(125,212,o),
(124,208.5,o),
(122,204.5,c)
);
}
);
width = 225;
}
);
},
{
export = 0;
glyphname = _part.ladybug4;
lastChange = "2023-04-26 07:00:36 +0000";
layers = (
{
layerId = m01;
shapes = (
{
closed = 1;
nodes = (
(70,17.5,o),
(82,24.5,o),
(89.5,31.5,cs),
(90.5,32.5,o),
(90.5,33,o),
(90.5,33.5,c),
(91.5,34,o),
(92.5,35,o),
(93.5,35.5,c),
(95.5,35.5,ls),
(97,35.5,o),
(98,36.5,o),
(98,38,cs),
(104,43.5,o),
(108.5,50,o),
(108.5,56.5,cs),
(108.5,82,o),
(82.5,116,o),
(52,117,cs),
(14.5,118.5,o),
(3,100.5,o),
(2.5,85,cs),
(2,57.5,ls),
(2,53.5,o),
(4,49.5,o),
(7,45.5,c),
(5,45.5,ls),
(3.5,45.5,o),
(2.5,44.5,o),
(2.5,43,cs),
(2.5,41.5,o),
(3.5,40.5,o),
(5,40.5,cs),
(11.5,40.5,l),
(12.5,40,o),
(13,39.5,o),
(13.5,39,c),
(13.5,38.5,o),
(13.5,38.5,o),
(13.5,38,cs),
(13.5,37,l),
(8.5,39,o),
(2.5,40.5,o),
(1.5,40.5,cs),
(0,40.5,o),
(-1,39.5,o),
(-1,38,cs),
(-1,36.5,o),
(0,35.5,o),
(1.5,35.5,cs),
(2,35.5,o),
(14,32.5,o),
(17,29.5,cs),
(20,26,o),
(23,22.5,o),
(29.5,23,cs),
(33,23.5,o),
(37.5,24,o),
(41,24.5,c),
(43,23,o),
(45.5,22,o),
(48.5,22,cs),
(52,20,o),
(56,17.5,o),
(62.5,17.5,cs)
);
},
{
closed = 1;
nodes = (
(25,27.5,o),
(24,29,o),
(21,32.5,cs),
(20,33.5,o),
(18.5,34.5,o),
(17,35.5,c),
(18,35.5,l),
(23.5,32,o),
(29,29.5,o),
(32,29.5,cs),
(33,29.5,o),
(35,29.5,o),
(37,29.5,c),
(34,28.5,o),
(31.5,28,o),
(29.5,28,cs)
);
},
{
closed = 1;
nodes = (
(31,34.5,o),
(29.5,35,o),
(27.5,35.5,c),
(35.5,36,l),
(35.5,35,o),
(35.5,35,o),
(35.5,34.5,c),
(32,34.5,ls)
);
},
{
closed = 1;
nodes = (
(25,49,o),
(26.5,51,o),
(26.5,53,cs),
(26.5,55.5,o),
(25,57.5,o),
(22.5,57.5,cs),
(20,57.5,o),
(18.5,55.5,o),
(18.5,53,cs),
(18.5,51,o),
(20,49,o),
(22.5,49,cs)
);
},
{
closed = 1;
nodes = (
(60,22.5,o),
(57.5,23,o),
(55.5,24,c),
(57,25,o),
(58,26.5,o),
(59,28,c),
(64.5,27.5,o),
(68.5,27,o),
(69,27,cs),
(71.5,27,o),
(74,27.5,o),
(77,28,c),
(71.5,25,o),
(66.5,22.5,o),
(62.5,22.5,cs)
);
},
{
closed = 1;
nodes = (
(23.5,75.5,o),
(25.5,77.5,o),
(25.5,80,cs),
(25.5,82.5,o),
(23.5,84.5,o),
(21,84.5,cs),
(19,84.5,o),
(17,82.5,o),
(17,80,cs),
(17,77.5,o),
(19,75.5,o),
(21,75.5,cs)
);
},
{
closed = 1;
nodes = (
(37.5,66.5,o),
(39.5,68,o),
(39.5,70,cs),
(39.5,72.5,o),
(37.5,74,o),
(35.5,74,cs),
(33.5,74,o),
(31.5,72.5,o),
(31.5,70,cs),
(31.5,68,o),
(33.5,66.5,o),
(35.5,66.5,cs)
);
},
{
closed = 1;
nodes = (
(68.5,32,o),
(65.5,32.5,o),
(61,32.5,c),
(61.5,33.5,o),
(61.5,34.5,o),
(61.5,35.5,c),
(83.5,35.5,l),
(78.5,33.5,o),
(73,32,o),
(69,32,cs)
);
},
{
closed = 1;
nodes = (
(65.5,50,o),
(67,51.5,o),
(67,54,cs),
(67,56,o),
(65.5,58,o),
(63,58,cs),
(60.5,58,o),
(59,56,o),
(59,54,cs),
(59,51.5,o),
(60.5,50,o),
(63,50,cs)
);
},
{
closed = 1;
nodes = (
(59.5,41.5,o),
(58.5,42.5,o),
(57.5,42.5,cs),
(54.5,42.5,o),
(53,45,o),
(53,47,cs),
(53,50.5,o),
(52,51.5,o),
(49,51.5,cs),
(44.5,51.5,o),
(40.5,49,o),
(38,45,c),
(13.5,45.5,l),
(10,49,o),
(7,53.5,o),
(7,57.5,cs),
(7.5,85,ls),
(8,98.5,o),
(17.5,113.5,o),
(52,112,cs),
(79.5,111,o),
(103.5,80,o),
(103.5,56.5,cs),
(103.5,50.5,o),
(98.5,45,o),
(92.5,40.5,c),
(60,40.5,l)
);
},
{
closed = 1;
nodes = (
(86.5,48.5,o),
(88,50,o),
(88,52,cs),
(88,54,o),
(86.5,56,o),
(84.5,56,cs),
(82.5,56,o),
(80.5,54,o),
(80.5,52,cs),
(80.5,50,o),
(82.5,48.5,o),
(84.5,48.5,cs)
);
},
{
closed = 1;
nodes = (
(43.5,96,o),
(45.5,97.5,o),
(45.5,100,cs),
(45.5,102.5,o),
(43.5,104,o),
(41.5,104,cs),
(39,104,o),
(37,102.5,o),
(37,100,cs),
(37,97.5,o),
(39,96,o),
(41.5,96,cs)
);
},
{
closed = 1;
nodes = (
(65.5,79,o),
(67.5,81,o),
(67.5,84,cs),
(67.5,86.5,o),
(65.5,89,o),
(62.5,89,cs),
(60,89,o),
(58,86.5,o),
(58,84,cs),
(58,81,o),
(60,79,o),
(62.5,79,cs)
);
},
{
closed = 1;
nodes = (
(83.5,71,o),
(85.5,72.5,o),
(85.5,75,cs),
(85.5,77.5,o),
(83.5,79.5,o),
(81,79.5,cs),
(79,79.5,o),
(77,77.5,o),
(77,75,cs),
(77,72.5,o),
(79,71,o),
(81,71,cs)
);
}
);
width = 225;
}
);
},
{
export = 0;
glyphname = _part.mantis1;
lastChange = "2023-04-26 06:50:01 +0000";
layers = (
{
layerId = m01;
shapes = (
{
closed = 1;
nodes = (
(39,19,o),
(40,20,o),
(40,21.5,cs),
(40,23,o),
(39,24,o),
(37.5,24,cs),
(35,24,o),
(27,27.5,o),
(27.5,29.5,c),
(39.5,45.5,ls),
(41,47.5,o),
(39.5,49,o),
(37.5,49.5,c),
(42.5,50.5,o),
(49.5,53,o),
(57.5,55,cs),
(73,59.5,o),
(92,66,o),
(104.5,66,cs),
(113.5,66,o),
(123.5,67,o),
(130,71,cs),
(133,72.5,o),
(131,77,o),
(128,75,cs),
(121.5,72,o),
(113.5,71,o),
(104.5,71,cs),
(97.5,71,o),
(89,69.5,o),
(80.5,67,c),
(79.5,72.5,o),
(77.5,77,o),
(77.5,78.5,cs),
(77.5,81.5,o),
(89.5,89.5,o),
(107.5,91,cs),
(109,91,o),
(110,92,o),
(110,93.5,cs),
(110,95,o),
(109,96,o),
(107.5,96,cs),
(87.5,94.5,o),
(72.5,84.5,o),
(72.5,78.5,cs),
(72.5,75.5,o),
(75,71,o),
(75.5,65.5,c),
(70.5,64,o),
(65,62.5,o),
(60.5,61,c),
(59.5,73,l),
(75.5,89.5,ls),
(78,92,o),
(74,95,o),
(71.5,92.5,cs),
(54.5,75,l),
(55.5,60.5,l),
(55.5,59.5,l),
(50,58,o),
(45,56.5,o),
(41,55.5,c),
(40.5,61,o),
(37,69.5,o),
(37,72.5,cs),
(37,74,o),
(43.5,78,o),
(49.5,82.5,cs),
(52,84.5,o),
(49,88.5,o),
(46.5,86.5,cs),
(39.5,81,o),
(32,77,o),
(32,72.5,cs),
(32,68.5,o),
(35.5,59,o),
(36.5,54.5,c),
(35.5,54,o),
(35,54,o),
(34.5,54,cs),
(31,54,o),
(25,52.5,o),
(20,51,c),
(17.5,54.5,o),
(12.5,57.5,o),
(8.5,57.5,cs),
(2.5,57.5,o),
(-1,52.5,o),
(-1,47,cs),
(-1,41.5,o),
(4,35.5,o),
(10.5,35.5,cs),
(16,35.5,o),
(21.5,40,o),
(21.5,46,c),
(26.5,47.5,o),
(31.5,49,o),
(34.5,49,cs),
(36,49,l),
(33.5,46,o),
(34,46.5,o),
(23.5,31.5,c),
(20.5,25,o),
(31.5,19,o),
(37.5,19,cs)
);
},
{
closed = 1;
nodes = (
(7,40.5,o),
(4,43.5,o),
(4,47,cs),
(4,50.5,o),
(5.5,52.5,o),
(8.5,52.5,cs),
(10.5,52.5,o),
(13.5,51,o),
(15,49.5,c),
(7.5,47,ls),
(6.5,46.5,o),
(6,45.5,o),
(6,44.5,cs),
(6,43,o),
(8,41.5,o),
(9.5,42,cs),
(11,42.5,o),
(13.5,43.5,o),
(16.5,44.5,c),
(15.5,42,o),
(13.5,40.5,o),
(10.5,40.5,cs)
);
},
{
closed = 1;
nodes = (
(88.5,17.5,o),
(89.5,18.5,o),
(89.5,20,cs),
(89.5,21.5,o),
(88.5,22.5,o),
(87,22.5,cs),
(77,21,o),
(60.5,25.5,o),
(60.5,38,cs),
(60.5,50.5,ls),
(60.5,52,o),
(59.5,53,o),
(58,53,cs),
(56.5,53,o),
(55.5,52,o),
(55.5,50.5,cs),
(55.5,38,ls),
(55.5,21.5,o),
(76,16,o),
(87,17.5,cs)
);
},
{
closed = 1;
nodes = (
(112,37,ls),
(113.5,37,o),
(114.5,38,o),
(114.5,39.5,cs),
(114.5,41,o),
(113.5,42,o),
(112,42,cs),
(100.5,40.5,ls),
(98,40.5,o),
(94.5,42,o),
(93,44,cs),
(79.5,58,ls),
(76.5,60.5,o),
(73.5,56.5,o),
(75.5,54,cs),
(89,41,ls),
(91.5,38,o),
(97,35.5,o),
(100.5,35.5,cs)
);
}
);
width = 225;
}
);
},
{
export = 0;
glyphname = _part.mantis2;
lastChange = "2023-04-26 06:59:05 +0000";
layers = (
{
background = {
shapes = (
{
attr = {
lineCapEnd = "1";
lineCapStart = "1";
strokeWidth = 5;
};
closed = 0;
nodes = (
(12.5,245.5,l),
(32.5,275,o),
(40.5,284.5,o),
(50,284.5,cs),
(56.5,284.5,o),
(63,276.5,o),
(79,252,cs),
(90,235.5,o),
(100,226.5,o),
(108.5,226.5,cs),
(123,226.5,o),
(137,240.5,o),
(143,246.5,cs)
);
},
{
attr = {
lineCapEnd = "1";
lineCapStart = "1";
strokeWidth = 5;
};
closed = 0;
nodes = (
(45.5,143,l),
(41.5,213,o),
(41.5,229,o),
(52,229,cs),
(58,229,o),
(70,221.5,o),
(97.5,206.5,cs),
(123,192.5,o),
(133.5,187,o),
(142,187,cs),
(150.5,187,o),
(156.5,199.5,o),
(156,211,cs),
(153.5,252.5,l)
);
},
{
attr = {
lineCapEnd = "1";
lineCapStart = "1";
strokeWidth = 5;
};
closed = 0;
nodes = (
(251,195.5,l),
(250.5,131.5,ls),
(250.5,127,o),
(248.5,124,o),
(245,124,cs),
(241.5,124,o),
(235.5,128,o),
(226.5,134.5,cs),
(212.5,144.5,o),
(192.5,150,o),
(174,150,cs),
(166,150,o),
(164.5,145,o),
(164.5,136.5,cs),
(164.5,88,ls),
(164.5,67,o),
(158,51,o),
(146.5,46,c)
);
},
{
attr = {
lineCapEnd = "1";
lineCapStart = "1";
strokeWidth = 5;
};
closed = 0;
nodes = (
(93,337,l),
(123,300,o),
(132,284.5,o),
(130.5,268,c)
);
},
{
attr = {
lineCapEnd = "1";
lineCapStart = "1";
strokeWidth = 5;
};
closed = 0;
nodes = (
(132,332.5,l),
(127.5,271,l)
);
},
{
attr = {
lineCapEnd = "1";
lineCapStart = "1";
strokeWidth = 5;
};
closed = 0;
nodes = (
(121,270,l),
(122,257.5,o),
(135,250.5,o),
(149.5,251.5,c)
);
},
{
attr = {
lineCapEnd = "1";
lineCapStart = "1";
strokeWidth = 5;
};
closed = 0;
nodes = (
(133.5,279,l),
(143,269.5,o),
(153.5,263,o),
(162.5,251,cs),
(175.5,233.5,o),
(223,212,o),
(240.5,208,cs),
(248,206.5,o),
(251,212,o),
(242.5,216,cs),
(173,250,l)
);
},
{
attr = {
lineCapEnd = "1";
lineCapStart = "1";
strokeWidth = 5;
};
closed = 0;
nodes = (
(219,220,l),
(217,206.5,o),
(222.5,197.5,o),
(231,189.5,cs),
(304.5,117.5,ls),
(315,107,o),
(327,105.5,o),
(334,112.5,cs),
(338.5,117,o),
(344,118,o),
(350,117.5,cs),
(356,117,o),
(365.5,124.5,o),
(366,130.5,cs),
(366.5,136.5,o),
(362.5,141.5,o),
(356.5,145.5,cs),
(274.5,200.5,ls),
(263.5,208,o),
(251,223,o),
(249.5,230,c)
);
},
{
attr = {
lineCapEnd = "1";
lineCapStart = "1";
strokeWidth = 5;
};
closed = 0;
nodes = (
(397.5,176.5,l),
(368.5,229.5,o),
(342,252.5,o),
(310,264,c)
);
},
{
attr = {
lineCapEnd = "1";
lineCapStart = "1";
strokeWidth = 5;
};
closed = 0;
nodes = (
(317,257.5,l),
(317,227,o),
(307.5,195,o),
(299,177.5,c)
);
},
{
attr = {
lineCapEnd = "1";
lineCapStart = "1";
strokeWidth = 5;
};
closed = 0;
nodes = (
(296.5,176.5,l),
(275,180,ls),
(270,181,o),
(269,176.5,o),
(274,175,cs),
(291,169.5,o),
(297,147.5,o),
(297,127,cs),
(297,110.5,o),
(293.5,94.5,o),
(288.5,87.5,cs),
(274.5,67,o),
(285,45,o),
(352.5,15,cs)
);
},
{
attr = {
lineCapEnd = "1";
lineCapStart = "1";
strokeWidth = 5;
};
closed = 0;
nodes = (
(306,137.5,l),
(310.5,96.5,o),
(301,71,o),
(277,54.5,c)
);
},
{
attr = {
lineCapEnd = "1";
lineCapStart = "1";
strokeWidth = 5;
};
closed = 0;
nodes = (
(294.5,87,l),
(315.5,64,l)
);
},
{
attr = {
lineCapEnd = "1";
lineCapStart = "1";
strokeWidth = 5;
};
closed = 0;
nodes = (
(352.5,131,l),
(369.5,107.5,o),
(400.5,75,o),
(414.5,71.5,c)
);
},
{
attr = {
lineCapEnd = "1";
lineCapStart = "1";
strokeWidth = 5;
};
closed = 0;
nodes = (
(409.5,83.5,l),
(409.5,98,o),
(388,117,o),
(366,119.5,cs)
);
},
{
attr = {
lineCapEnd = "1";
lineCapStart = "1";
strokeWidth = 5;
};
closed = 0;
nodes = (
(345,160,l),
(398.5,165,o),
(420,156.5,o),
(420,135,c)
);
},
{
attr = {
lineCapEnd = "1";
lineCapStart = "1";
strokeWidth = 5;
};
closed = 0;
nodes = (
(445.5,157,l),
(434,146.5,o),
(391.5,139,o),
(341,143,c)
);
},
{
attr = {
lineCapEnd = "1";
lineCapStart = "1";
strokeWidth = 5;
};
closed = 0;
nodes = (
(306,252,l),
(320.5,208,o),
(314,164,o),
(300,145,c)
);
},
{
closed = 1;
nodes = (
(369,22,l),
(347,43,o),
(317,56,o),
(302.5,55.5,c),
(313.5,42,l),
(324,67.5,o),
(331.5,102.5,o),
(331,121,c),
(314.5,109.5,l),
(355.5,100,o),
(368.5,90.5,o),
(377.5,78,cs),
(386.5,65.5,o),
(402.5,61.5,o),
(415.5,61.5,cs),
(433,61.5,o),
(432,70.5,o),
(432,79.5,cs),
(432,95.5,o),
(393.5,134,o),
(380.5,141,c),
(381,124.5,l),
(407,130.5,o),
(423.5,132.5,o),
(446,125,cs),
(458,121,o),
(466,128,o),
(466,146.5,cs),
(466,160,o),
(443.5,174,o),
(429,174,cs),
(401.5,174,o),
(369,182,o),
(350,182,cs),
(324,182,o),
(306,185,o),
(297.5,197,cs),
(285.5,213.5,o),
(277,221,o),
(268,221,cs),
(262,221,o),
(256,226.5,o),
(252,233,cs),
(244,247,o),
(238.5,255,o),
(225.5,254.5,cs),
(212.5,254,o),
(194.5,258.5,o),
(189.5,264.5,cs),
(184.5,270.5,o),
(159,277,o),
(145.5,277,c),
(154.5,267,l),
(153.5,284.5,o),
(152,312.5,o),
(152,319.5,cs),
(152,326.5,o),
(158,333.5,o),
(164,337.5,cs),
(170,341.5,o),
(170,346.5,o),
(170,353,cs),
(170,359.5,o),
(156,374.5,o),
(145.5,374.5,cs),
(135,374.5,o),
(118,345.5,o),
(118,333,c),
(132,332,l),
(121.5,341.5,o),
(108.5,361,o),
(101,361,cs),
(93.5,361,o),
(82.5,351.5,o),
(82.5,340.5,cs),
(82.5,329.5,o),
(109.5,251,o),
(125.5,243,c),
(139,255,l),
(131.501,252.5,o),
(124.5,247.5,o),
(116.5,247.5,cs),
(108.5,247.5,o),
(101.5,254,o),
(93.5,267.5,cs),
(85.5,281,o),
(70,292,o),
(54.5,292,cs),
(39,292,o),
(18.5,281,o),
(0.5,266.5,c),
(8.5,235.5,l),
(22.5,242,o),
(43.5,255.5,o),
(51,255.5,cs),
(67,255.5,o),
(76.5,209.5,o),
(119.5,209.5,cs),
(136,209.5,o),
(149,221,o),
(155.5,234.5,c),
(143,233.5,l),
(143,216,o),
(140,198,o),
(131,198,cs),
(120.5,198,o),
(82,243,o),
(49,243,cs),
(41,243,o),
(27.5,230,o),
(27.5,216,cs),
(27.5,202,o),
(44,140,o),
(43.5,118.5,c),
(78,109.5,l),
(81,151.5,o),
(62.5,201,o),
(63.5,213,c),
(53.5,207.5,l),
(82,190.5,o),
(121.5,157,o),
(139,157,cs),
(156.5,157,o),
(183,210,o),
(182.5,228.5,c),
(170.5,226.5,l),
(238.5,161,l),
(232,171.5,l),
(230,135.5,l),
(241,139.5,l),
(166,195,l),
(141.5,173.5,l),
(141.5,175,o),
(144.5,101.5,o),
(144.5,90.5,cs),
(144.5,72.5,o),
(140,62,o),
(134,51,c),
(165,30,l),
(172.5,44.5,o),
(179,61.5,o),
(179,86,cs),
(179,160,l),
(167,154,l),
(201.5,122,o),
(230,104.5,o),
(243,104.5,cs),
(257,104.5,o),
(264.5,113.5,o),
(265.5,130.5,cs),
(267.5,171.5,l),
(260,155,l),
(286,129.5,l),
(278.5,149.5,l),
(278.5,88.5,ls),
(278.5,73,o),
(265.5,58,o),
(265.5,44.5,cs),
(265.5,27,o),
(274.5,19,o),
(295,19,cs),
(308,19,o),
(327,13.5,o),
(344,-2,c)
);
},
{
closed = 1;
nodes = (
(412.5,167,l),
(398,213,o),
(364.5,259,o),
(338,277,c),
(337,289,o),
(332,302.5,o),
(317,302.5,cs),
(304.5,302.5,o),
(299,292,o),
(299,280,cs),
(300.5,173,l),
(335.5,172,l),
(339,242,l),
(330,235.5,l),
(339,233,o),
(364.5,197,o),
(374,166.5,c)
);
}
);
};
layerId = m01;
shapes = (
{
closed = 1;
nodes = (
(280.5,34,l),
(269,46,o),
(253.5,54.5,o),
(241,59,c),
(245,70.5,o),
(248,83,o),
(249.5,93.5,c),
(269,87.5,o),
(276,82.5,o),
(281,74.5,cs),
(288.5,64.5,o),
(301.5,61,o),
(311.5,61,cs),
(328,61,o),
(326.5,70.5,o),
(326.5,77,cs),
(326.5,86,o),
(314.5,101,o),
(303.5,112,c),
(314,113.5,o),
(322.5,113,o),
(333.5,109,cs),
(344.5,105.5,o),
(352,112,o),
(352,127.5,cs),
(352,139,o),
(333.5,150.5,o),
(322,150.5,cs),
(318,150.5,o),
(314,151,o),
(309.5,151.5,c),
(297,183,o),
(275,213.5,o),
(256,227,c),
(255,236,o),
(250.5,247,o),
(238,247,cs),
(227,247,o),
(222,237.5,o),
(222,227.5,cs),
(222.5,174,l),
(226.5,165.5,o),
(226,166.5,o),
(225,167,c),
(216,179,o),
(209,186,o),
(201,186,cs),
(197.5,186,o),
(194,189,o),
(191,194,cs),
(185,204.5,o),
(180.5,211.5,o),
(169,211,cs),
(160,210.5,o),
(147.5,213.5,o),
(144,217.5,cs),
(140.5,221.5,o),
(128,225.5,o),
(118,227,c),
(117.5,239,o),
(116.5,253,o),
(116.5,257,cs),
(116.5,261.5,o),
(120,265.5,o),
(124.5,268.5,cs),
(130,272,o),
(130,277.5,o),
(130,282.5,cs),
(130,288,o),
(118.5,301,o),
(109,301,cs),
(102.5,301,o),
(94.5,290,o),
(90,280,c),
(85,285.5,o),
(80,291,o),
(76,291,cs),
(69,291,o),
(59.5,282.5,o),
(59.5,273,cs),
(59.5,265.5,o),
(73.5,224,o),
(85,206,c),
(81,207,o),
(77,211,o),
(72,219.5,cs),
(66,230,o),
(53.5,239,o),
(41,239,cs),
(28.5,239,o),
(11.5,230,o),
(-2.5,218.5,c),
(5,190.5,l),
(15.5,195,o),
(33,206.5,o),
(38.5,206.5,cs),
(41,206.5,o),
(43,204.5,o),
(45.5,201,c),
(42.5,202,o),
(39.5,202.5,o),
(37,202.5,cs),
(30,202.5,o),
(18,191.5,o),
(18,179.5,cs),
(18,168,o),
(31.5,118,o),
(30,104.5,c),
(60.5,96.5,l),
(63.5,119,o),
(56.5,145.5,o),
(52.5,162,c),
(71.5,149.5,o),
(93,133,o),
(104.5,133,cs),
(105,116.5,o),
(106,90.5,o),
(106,85.5,cs),
(106,71.5,o),
(102,64,o),
(97,55,c),
(125,36.5,l),
(131,48,o),
(137,61.5,o),
(137,82,cs),
(137,119.5,l),
(157,102.5,o),
(173.5,93.5,o),
(182.5,93.5,cs),
(194.5,93.5,o),
(200.5,101.5,o),
(201.5,115.5,cs),
(202,123.5,l),
(206.5,119.5,l),
(206.5,84,ls),
(206.5,73.5,o),
(196.5,62,o),
(196.5,51,cs),
(196.5,36.5,o),
(205,29.5,o),
(221.5,29.5,cs),
(231,29.5,o),
(245.5,25,o),
(258,12.5,c)
);
},
{
closed = 1;
nodes = (
(112.5,51,l),
(120.5,56,o),
(125.5,68.5,o),
(125.5,83.5,cs),
(125.5,120,ls),
(125.5,126,o),
(126,128,o),
(130.5,128,cs),
(132,128,l),
(132,82,ls),
(132,65.5,o),
(128,54,o),
(123,43.5,c)
);
},
{
closed = 1;
nodes = (
(104,57,l),
(108,64.5,o),
(111,72.5,o),
(111,85.5,cs),
(111,91.5,o),
(110,122,o),
(109,138,c),
(104.5,138,ls),
(93,138,o),
(66.5,159.5,o),
(45.5,172.5,c),
(47,159.5,o),
(57.5,129,o),
(56,102.5,c),
(35,108.5,l),
(35,112.5,o),
(34.5,117.5,o),
(33.5,123,c),
(35.5,123,o),
(36,123.5,o),
(36,125,cs),
(33,177,o),
(33.5,187.5,o),
(39,187.5,cs),
(43,187.5,o),
(51.5,182,o),
(72.5,171,cs),
(91.5,160.5,o),
(100,156,o),
(106.5,156,cs),
(114.5,156,o),
(119.5,167,o),
(119,176,cs),
(117,207,ls),
(117,208,o),
(116.5,209,o),
(115,209,cs),
(114.5,209,o),
(113.5,208.5,o),
(113.5,207.5,c),
(113,208,o),
(112.5,208,o),
(112,208,cs),
(101.5,207.5,o),
(93.5,212,o),
(92.5,220,cs),
(92.5,221,o),
(92,222,o),
(91,222,cs),
(89.5,222,o),
(89,221,o),
(89,220,cs),
(89.5,209,o),
(101,204.5,o),
(112,204.5,cs),
(113.5,204.5,l),
(115,176,ls),
(115.5,167.5,o),
(111.5,159.5,o),
(106.5,159.5,cs),
(100.5,159.5,o),
(93,163.5,o),
(74,174,cs),
(53.5,185,o),
(44,191,o),
(39,191,cs),
(29.5,191,o),
(29.5,178.5,o),
(32,130,c),
(28.5,149.5,o),
(23,172.5,o),
(23,179.5,cs),
(23,188.5,o),
(32,197.5,o),
(37,197.5,cs),
(44,197.5,o),
(52,194.5,o),
(62.5,188,c),
(53,198,o),
(47.5,211.5,o),
(38.5,211.5,cs),
(32.5,211.5,o),
(18.5,203,o),
(8,197.5,c),
(3.5,216.5,l),
(16.5,227,o),
(30.5,234,o),
(41,234,cs),
(51.5,234,o),
(62,227,o),
(68,216.5,cs),
(74,206.5,o),
(80.5,200.5,o),
(87.5,200.5,cs),
(89,200.5,o),
(92.5,201,o),
(93.5,203.5,c),
(81.5,215,o),
(64.5,265.5,o),
(64.5,273,cs),
(64.5,279.5,o),
(71,286,o),
(76,286,cs),
(78.5,286,o),
(85,278.5,o),
(91.5,270.5,c),
(94.5,280.5,o),
(104,296,o),
(109,296,cs),
(115.5,296,o),
(125,286,o),
(125,282.5,cs),
(125,277.5,o),
(125,275,o),
(121.5,272.5,cs),
(117,269.5,o),
(111.5,263.5,o),
(111.5,257,cs),
(111.5,252,o),
(112.5,235.5,o),
(113,223,c),
(123,221.5,o),
(137.5,217.5,o),
(140,214.5,cs),
(144.5,209.5,o),
(159,205.5,o),
(169,206,cs),
(177.5,206.5,o),
(180.5,202,o),
(186.5,192,c),
(186,191.5,o),
(185.5,190.5,o),
(185.5,189.5,cs),
(186.5,184,o),
(196.5,172.5,o),
(205,166.5,cs),
(223.5,153.5,l),
(223.5,153,o),
(223,152.5,o),
(223,152,c),
(206.5,154.5,ls),
(200.5,155.5,o),
(199,149,o),
(205,147,cs),
(216,143.5,o),
(220,129.5,o),
(221,116,c),
(190,146,l),
(190,164,ls),
(190,165.5,o),
(189.5,166,o),
(188.5,166,cs),
(187,166,o),
(186.5,165.5,o),
(186.5,164,cs),
(186.5,149.5,l),
(174.5,161,ls),
(170,165.5,o),
(166.5,170,o),
(166,176.5,c),
(171.5,174.5,o),
(176.5,172.5,o),
(180,171.5,cs),
(187.5,170,o),
(191.5,177,o),
(182.5,181.5,cs),
(130.5,206.5,ls),
(128.5,207.5,o),
(127,204.5,o),
(129,203.5,cs),
(181,177.5,l),
(185.5,176,o),
(184.5,174.5,o),
(181,175.5,cs),
(177,176,o),
(172,178,o),
(166,180.5,c),
(166,182.5,ls),
(166,183.5,o),
(165.5,184.5,o),
(164.5,184.5,cs),
(163,184.5,o),
(162.5,183.5,o),
(162.5,182.5,c),
(147.5,188.5,o),
(130,198.5,o),
(123.5,207,cs),
(116.5,216.5,o),
(108.5,221,o),
(101.5,228.5,c),
(100.5,229,o),
(100,229,o),
(99,228.5,c),
(98.5,229,o),
(98.5,230,o),
(98.5,231,cs),
(101,267,ls),
(101,268,o),
(100,269,o),
(99,269,cs),
(98,269,o),
(97,268,o),
(97,267,cs),
(95,238,l),
(91,246.5,o),
(83,257,o),
(71.5,271.5,cs),
(70,273.5,o),
(67,271,o),
(68.5,269,cs),
(83.5,250.5,o),
(91.5,239,o),
(94.5,230.5,c),
(94,221,ls),
(94,219.5,o),
(94.5,219,o),
(96,218.5,c),
(96,217.5,o),
(97,216.5,o),
(98,216.5,cs),
(99,216.5,o),
(100,217.5,o),
(100,218.5,cs),
(100,224.5,l),
(106.5,218,o),
(114,213,o),
(120.5,204.5,cs),
(127,195.5,o),
(146.5,185,o),
(162,178,c),
(162.5,170,o),
(166.5,163.5,o),
(172,158,cs),
(186.5,144.5,l),
(186,116,ls),
(186,113.5,o),
(185.5,112.5,o),
(184,112.5,cs),
(182,112.5,o),
(178,115,o),
(171,120,cs),
(160,128,o),
(145,132,o),
(130.5,132,cs),
(123,132,o),
(121.5,126.5,o),
(121.5,120,cs),
(121.5,83.5,ls),
(121.5,66,o),
(116.5,59.5,o),
(108.5,53.5,c)
);
},
{
closed = 1;
nodes = (
(106.5,163.5,o),
(109.5,176.5,o),
(109.5,187,c),
(104.5,181,o),
(98,177,o),
(89.5,177,cs),
(87,177,o),
(84,177,o),
(73,180.5,c),
(83,173.5,o),
(93,163.5,o),
(98.5,163.5,cs)
);
},
{
closed = 1;
nodes = (
(93,185.5,o),
(104.5,196.5,o),
(109,201,cs),
(110.5,203,o),
(107.5,205.5,o),
(106,204,cs),
(101.5,199.5,o),
(91.5,189.5,o),
(81.5,189.5,cs),
(76,189.5,o),
(69,195.5,o),
(61,207.5,cs),
(49,226,o),
(43,233,o),
(37.5,233,cs),
(29.5,233,o),
(23,225,o),
(8,203,cs),
(6.5,200.5,o),
(10,198.5,o),
(11,200.5,cs),
(26,222.5,o),
(31,229,o),
(37.5,229,cs),
(41.5,229,o),
(46,224,o),
(58,205.5,cs),
(66,193,o),
(74.5,185.5,o),
(81.5,185.5,cs)
);
},
{
closed = 1;
nodes = (
(97.5,168.5,o),
(96.5,169,o),
(95,169.5,cs),
(89.5,172,l),
(94.5,172,o),
(99,173.5,o),
(103,175.5,c),
(102,171,o),
(100.5,168.5,o),
(98.5,168.5,cs)
);
},
{
closed = 1;
nodes = (
(174,98.5,o),
(157,108.5,o),
(135,128,c),
(147,127,o),
(159.5,123,o),
(169,117,cs),
(175.5,112,o),
(180.5,108.5,o),
(184,108.5,cs),
(187.5,108.5,o),
(190,112,o),
(190,116,cs),
(190,140.5,l),
(198,133,l),
(196.5,115.5,ls),
(195.5,103.5,o),
(191.5,98.5,o),
(182.5,98.5,cs)
);
},
{
closed = 1;
nodes = (
(176.5,144,l),
(134,185,l),
(133,178,o),
(130,170,o),
(125,160,c),
(175,123.5,l)
);
},
{
closed = 1;
nodes = (
(131,162,l),
(133.5,166.5,o),
(135.5,171,o),
(136.5,175.5,c),
(171.5,142,l),
(171,132.5,l)
);
},
{
closed = 1;
nodes = (
(245.5,30,o),
(231,34.5,o),
(221.5,34.5,cs),
(207,34.5,o),
(201.5,39.5,o),
(201.5,51,cs),
(201.5,60,o),
(211.5,71.5,o),
(211.5,84,cs),
(211.5,119.5,l),
(221,110.5,l),
(220.5,99.5,o),
(218.5,89,o),
(215,84.5,cs),
(210.5,78,o),
(209,71,o),
(212,64,c),
(210.5,62.5,o),
(208.5,61.5,o),
(206.5,60,cs),
(204,58,o),
(207.5,56,o),
(209,57,cs),
(210.5,58,o),
(212.5,59,o),
(214,60.5,c),
(220,50.5,o),
(235.5,39.5,o),
(263.5,27,cs),
(266,26,o),
(267.5,29.5,o),
(265,30.5,cs),
(236.5,43.5,o),
(221.5,54,o),
(217,63.5,c),
(220,66.5,o),
(223,71,o),
(225.5,75.5,c),
(235,64.5,ls),
(236,63.5,o),
(237,63.5,o),
(237.5,64,c),
(236.5,61,o),
(235.5,58.5,o),
(235,56,c),
(246.5,52.5,o),
(261,45,o),
(273.5,34,c),
(258,19.5,l)
);
},
{
closed = 1;
nodes = (
(213.5,72.5,o),
(214.5,77,o),
(218,82,cs),
(221.5,87,o),
(224,96.5,o),
(224.5,107,c),
(227,104,l),
(227.5,104,o),
(228,103.5,o),
(228.5,103,c),
(228,95,o),
(227,88,o),
(224.5,81.5,c),
(222.5,84,ls),
(220.5,86,o),
(218,83,o),
(219.5,81.5,cs),
(223,78,l),
(220.5,74,o),
(218.5,70.5,o),
(215,67,c)
);
},
{
closed = 1;
nodes = (
(227.5,78.5,l),
(230,85,o),
(231.5,92,o),
(232,100.5,c),
(236.5,97.5,o),
(241,96.5,o),
(245,97,c),
(244,88,o),
(241.5,77,o),
(238,66.5,c)
);
},
{
closed = 1;
nodes = (
(221,138,o),
(215.5,147,o),
(206.5,150.5,cs),
(208.5,150,o),
(212.5,149.5,o),
(222.5,148,cs),
(223,148,o),
(223.5,148.5,o),
(224,149,c),
(224.5,149,o),
(225.5,149,o),
(226,150,cs),
(226,150.5,o),
(226.5,151,o),
(227,152,c),
(232,148.5,l),
(230,139.5,o),
(227.5,132.5,o),
(223.5,127.5,c)
);
},
{
closed = 1;
nodes = (
(245.5,99.5,o),
(238.5,99.5,o),
(232,105,c),
(232,110,o),
(232,115,o),
(231.5,120.5,cs),
(231.5,122,o),
(230.5,122.5,o),
(229.5,122.5,cs),
(228.5,122.5,o),
(227.5,122,o),
(227.5,120.5,cs),
(228,116,o),
(228.5,112,o),
(228.5,108.5,c),
(224.5,112,l),
(224.5,113,ls),
(224.5,117,o),
(224.5,121,o),
(223.5,125,c),
(224.5,124.5,o),
(226,124,o),
(226.5,125,cs),
(230.5,130,o),
(233.5,137.5,o),
(235,146,c),
(265,126,l),
(262,126.5,o),
(259,126.5,o),
(256,126.5,cs),
(254.5,126.5,o),
(254,126,o),
(254,125,cs),
(254,123.5,o),
(254.5,123,o),
(256,123,cs),
(260.5,122.5,o),
(265,122,o),
(270,122,c),
(272,120.5,o),
(273,118,o),
(272.5,115.5,cs),
(272.5,114.5,o),
(271.5,113,o),
(270,111.5,c),
(268.5,113,o),
(267.5,115,o),
(266,117,cs),
(264,119.5,o),
(262,116,o),
(263,114.5,cs),
(264.5,113,o),
(265.5,111,o),
(267.5,109,c),
(265.5,108,o),
(264,107.5,o),
(262.5,107.5,cs),
(258,108,o),
(253,107,o),
(249,103.5,cs)
);
},
{
closed = 1;
nodes = (
(207,169.5,ls),
(201,173.5,o),
(194.5,180.5,o),
(191,185.5,c),
(194,183,o),
(197.5,181,o),
(201,181,cs),
(207,181,o),
(212,176,o),
(221,164,cs),
(222,163,o),
(222.5,162.5,o),
(225,157.5,c)
);
},
{
closed = 1;
nodes = (
(302.5,66,o),
(291.5,68.5,o),
(285,77.5,cs),
(279.5,86,o),
(271,92.5,o),
(249.5,98.5,c),
(250.5,99,o),
(251,99.5,o),
(252,100.5,cs),
(254.5,103.5,o),
(258,104,o),
(262.5,104,cs),
(264.5,104,o),
(267,104.5,o),
(269.5,106,c),
(283,90,o),
(301,71.5,o),
(310.5,69.5,cs),
(312,69.5,o),
(313,70,o),
(313,71,cs),
(313,72.5,o),
(312,73,o),
(311.5,73,cs),
(303.5,75,o),
(287.5,90.5,o),
(275,105.5,c),
(290.5,103,o),
(305.5,90,o),
(305.5,80,cs),
(305.5,79,o),
(306,78.5,o),
(307,78.5,cs),
(308.5,78.5,o),
(309,79,o),
(309,80,cs),
(309,92,o),
(292,107,o),
(274.5,109,cs),
(274,109,o),
(273,108.5,o),
(272.5,108,c),
(272,109,o),
(276.5,114,o),
(276.5,115.5,cs),
(277,117.5,o),
(276,120,o),
(274.5,122,c),
(289,122,o),
(301.5,123.5,o),
(312,125,c),
(313,123.5,o),
(313,121,o),
(313,119,cs),
(313,118.5,o),
(313,118,o),
(313.5,117.5,c),
(307,117.5,o),
(300,116.5,o),
(292.5,115,c),
(305,104,o),
(321.5,86,o),
(321.5,77,cs),
(321.5,70.5,o),
(322,66,o),
(311.5,66,cs)
);
},
{
closed = 1;
nodes = (
(228.5,155,l),
(230.5,159.5,o),
(232,165.5,o),
(233.5,171.5,c),
(234,164.5,o),
(233.5,158,o),
(232.5,152,c)
);
},
{
closed = 1;
nodes = (
(273,169.5,o),
(257.5,190.5,o),
(252,195.5,c),
(249.5,152.5,l),
(254,151.5,o),
(258.5,151.5,o),
(262.5,151.5,cs),
(267,151.5,o),
(272.5,151,o),
(281,150,c)
);
},
{
closed = 1;
nodes = (
(269,156,o),
(265.5,156.5,o),
(262.5,156.5,cs),
(254.5,156.5,l),
(256,183,l),
(261.5,176,o),
(268,166,o),
(273,156,c)
);
},
{
closed = 1;
nodes = (
(328.5,116,o),
(322.5,117.5,o),
(316.5,117.5,c),
(317,118,o),
(317,118.5,o),
(317,119,cs),
(317,121.5,o),
(316.5,123.5,o),
(316,126,c),
(325,128,o),
(332,131,o),
(335.5,134,cs),
(337,135.5,o),
(334.5,138.5,o),
(333,137,cs),
(329.5,134,o),
(323.5,131,o),
(314,129.5,c),
(307.5,139,o),
(290.5,142.5,o),
(259,139.5,cs),
(257.5,139.5,o),
(257,138.5,o),
(257,137.5,cs),
(257,136.5,o),
(257.5,135.5,o),
(259,135.5,cs),
(288,138.5,o),
(304,135.5,o),
(310,128.5,c),
(299.5,126.5,o),
(286,125.5,o),
(271.5,126,c),
(270.5,126.5,o),
(269.5,127.5,o),
(268.5,128,cs),
(236,150,l),
(238,159.5,o),
(238,171,o),
(236.5,183,c),
(238.5,192,o),
(239.5,201.5,o),
(239.5,210.5,c),
(260,201.5,o),
(277,184,o),
(296.5,149,cs),
(298,147,o),
(301,148.5,o),
(299.5,150.5,cs),
(278,191,o),
(257.5,208.5,o),
(233.5,217.5,c),
(230.5,218,o),
(229.5,215,o),
(232,213.5,c),
(233.5,213.5,o),
(235,212.5,o),
(236.5,212,c),
(236.5,212,o),
(236,211,o),
(236,210.5,cs),
(236,205,o),
(235.5,200,o),
(235,194,c),
(234,198.5,o),
(233,203,o),
(231.5,207,cs),
(231.5,207.5,o),
(230.5,208.5,o),
(229.5,208.5,cs),
(228.5,208.5,o),
(227.5,207.5,o),
(227.5,206,c),
(230.5,198.5,o),
(232,191,o),
(233,183.5,c),
(231.5,176.5,o),
(229.5,169.5,o),
(227.5,164,c),
(227,227.5,ls),
(227,235.5,o),
(230,242,o),
(238,242,cs),
(247.5,242,o),
(251,233,o),
(251,224,c),
(270,211.5,o),
(293.5,180,o),
(305.5,146.5,c),
(311,146,o),
(317,145.5,o),
(322,145.5,cs),
(331.5,145.5,o),
(347,136,o),
(347,127.5,cs),
(347,115,o),
(342.5,111.5,o),
(335.5,114,cs)
);
}
);
width = 375;
},
{
associatedMasterId = m01;
background = {
shapes = (
{
attr = {
lineCapEnd = "1";
lineCapStart = "1";
strokeWidth = 5;
};
closed = 0;
nodes = (
(12.5,245.5,l),
(32.5,275,o),
(40.5,284.5,o),
(50,284.5,cs),
(56.5,284.5,o),
(63,276.5,o),
(79,252,cs),
(90,235.5,o),
(100,226.5,o),
(108.5,226.5,cs),
(123,226.5,o),
(137,240.5,o),
(143,246.5,cs)
);
},
{
attr = {
lineCapEnd = "1";
lineCapStart = "1";
strokeWidth = 5;
};
closed = 0;
nodes = (
(45.5,143,l),
(41.5,213,o),
(41.5,229,o),
(52,229,cs),
(58,229,o),
(70,221.5,o),
(97.5,206.5,cs),
(123,192.5,o),
(133.5,187,o),
(142,187,cs),
(150.5,187,o),
(156.5,199.5,o),
(156,211,cs),
(153.5,252.5,l)
);
},
{
attr = {
lineCapEnd = "1";
lineCapStart = "1";
strokeWidth = 5;
};
closed = 0;
nodes = (
(251,195.5,l),
(250.5,131.5,ls),
(250.5,127,o),
(248.5,124,o),
(245,124,cs),
(241.5,124,o),
(235.5,128,o),
(226.5,134.5,cs),
(212.5,144.5,o),
(192.5,150,o),
(174,150,cs),
(166,150,o),
(164.5,145,o),
(164.5,136.5,cs),
(164.5,88,ls),
(164.5,67,o),
(158,51,o),
(146.5,46,c)
);
},
{
attr = {
lineCapEnd = "1";
lineCapStart = "1";
strokeWidth = 5;
};
closed = 0;
nodes = (
(93,337,l),
(123,300,o),
(132,284.5,o),
(130.5,268,c)
);
},
{
attr = {
lineCapEnd = "1";
lineCapStart = "1";
strokeWidth = 5;
};
closed = 0;
nodes = (
(132,332.5,l),
(127.5,271,l)
);
},
{
attr = {
lineCapEnd = "1";
lineCapStart = "1";
strokeWidth = 5;
};
closed = 0;
nodes = (
(121,270,l),
(122,257.5,o),
(135,250.5,o),
(149.5,251.5,c)
);
},
{
attr = {
lineCapEnd = "1";
lineCapStart = "1";
strokeWidth = 5;
};
closed = 0;
nodes = (
(133.5,279,l),
(143,269.5,o),
(153.5,263,o),
(162.5,251,cs),
(175.5,233.5,o),
(223,212,o),
(240.5,208,cs),
(248,206.5,o),
(251,212,o),
(242.5,216,cs),
(173,250,l)
);
},
{
attr = {
lineCapEnd = "1";
lineCapStart = "1";
strokeWidth = 5;
};
closed = 0;
nodes = (
(219,220,l),
(217,206.5,o),
(222.5,197.5,o),
(231,189.5,cs),
(304.5,117.5,ls),
(315,107,o),
(327,105.5,o),
(334,112.5,cs),
(338.5,117,o),
(344,118,o),
(350,117.5,cs),
(356,117,o),
(365.5,124.5,o),
(366,130.5,cs),
(366.5,136.5,o),
(362.5,141.5,o),
(356.5,145.5,cs),
(274.5,200.5,ls),
(263.5,208,o),
(251,223,o),
(249.5,230,c)
);
},
{
attr = {
lineCapEnd = "1";
lineCapStart = "1";
strokeWidth = 5;
};
closed = 0;
nodes = (
(397.5,176.5,l),
(368.5,229.5,o),
(342,252.5,o),
(310,264,c)
);
},
{
attr = {
lineCapEnd = "1";
lineCapStart = "1";
strokeWidth = 5;
};
closed = 0;
nodes = (
(317,257.5,l),
(317,227,o),
(307.5,195,o),
(299,177.5,c)
);
},
{
attr = {
lineCapEnd = "1";
lineCapStart = "1";
strokeWidth = 5;
};
closed = 0;
nodes = (
(296.5,176.5,l),
(275,180,ls),
(270,181,o),
(269,176.5,o),
(274,175,cs),
(291,169.5,o),
(297,147.5,o),
(297,127,cs),
(297,110.5,o),
(293.5,94.5,o),
(288.5,87.5,cs),
(274.5,67,o),
(285,45,o),
(352.5,15,cs)
);
},
{
attr = {
lineCapEnd = "1";
lineCapStart = "1";
strokeWidth = 5;
};
closed = 0;
nodes = (
(306,137.5,l),
(310.5,96.5,o),
(301,71,o),
(277,54.5,c)
);
},
{
attr = {
lineCapEnd = "1";
lineCapStart = "1";
strokeWidth = 5;
};
closed = 0;
nodes = (
(294.5,87,l),
(315.5,64,l)
);
},
{
attr = {
lineCapEnd = "1";
lineCapStart = "1";
strokeWidth = 5;
};
closed = 0;
nodes = (
(352.5,131,l),
(369.5,107.5,o),
(400.5,75,o),
(414.5,71.5,c)
);
},
{
attr = {
lineCapEnd = "1";
lineCapStart = "1";
strokeWidth = 5;
};
closed = 0;
nodes = (
(409.5,83.5,l),
(409.5,98,o),
(388,117,o),
(366,119.5,cs)
);
},
{
attr = {
lineCapEnd = "1";
lineCapStart = "1";
strokeWidth = 5;
};
closed = 0;
nodes = (
(345,160,l),
(398.5,165,o),
(420,156.5,o),
(420,135,c)
);
},
{
attr = {
lineCapEnd = "1";
lineCapStart = "1";
strokeWidth = 5;
};
closed = 0;
nodes = (
(445.5,157,l),
(434,146.5,o),
(391.5,139,o),
(341,143,c)
);
},
{
attr = {
lineCapEnd = "1";
lineCapStart = "1";
strokeWidth = 5;
};
closed = 0;
nodes = (
(306,252,l),
(320.5,208,o),
(314,164,o),
(300,145,c)
);
},
{
closed = 1;
nodes = (
(369,22,l),
(347,43,o),
(317,56,o),
(302.5,55.5,c),
(313.5,42,l),
(324,67.5,o),
(331.5,102.5,o),
(331,121,c),
(314.5,109.5,l),
(355.5,100,o),
(368.5,90.5,o),
(377.5,78,cs),
(386.5,65.5,o),
(402.5,61.5,o),
(415.5,61.5,cs),
(433,61.5,o),
(432,70.5,o),
(432,79.5,cs),
(432,95.5,o),
(393.5,134,o),
(380.5,141,c),
(381,124.5,l),
(407,130.5,o),
(423.5,132.5,o),
(446,125,cs),
(458,121,o),
(466,128,o),
(466,146.5,cs),
(466,160,o),
(443.5,174,o),
(429,174,cs),
(401.5,174,o),
(369,182,o),
(350,182,cs),
(324,182,o),
(306,185,o),
(297.5,197,cs),
(285.5,213.5,o),
(277,221,o),
(268,221,cs),
(262,221,o),
(256,226.5,o),
(252,233,cs),
(244,247,o),
(238.5,255,o),
(225.5,254.5,cs),
(212.5,254,o),
(194.5,258.5,o),
(189.5,264.5,cs),
(184.5,270.5,o),
(159,277,o),
(145.5,277,c),
(154.5,267,l),
(153.5,284.5,o),
(152,312.5,o),
(152,319.5,cs),
(152,326.5,o),
(158,333.5,o),
(164,337.5,cs),
(170,341.5,o),
(170,346.5,o),
(170,353,cs),
(170,359.5,o),
(156,374.5,o),
(145.5,374.5,cs),
(135,374.5,o),
(118,345.5,o),
(118,333,c),
(132,332,l),
(121.5,341.5,o),
(108.5,361,o),
(101,361,cs),
(93.5,361,o),
(82.5,351.5,o),
(82.5,340.5,cs),
(82.5,329.5,o),
(109.5,251,o),
(125.5,243,c),
(139,255,l),
(131.501,252.5,o),
(124.5,247.5,o),
(116.5,247.5,cs),
(108.5,247.5,o),
(101.5,254,o),
(93.5,267.5,cs),
(85.5,281,o),
(70,292,o),
(54.5,292,cs),
(39,292,o),
(18.5,281,o),
(0.5,266.5,c),
(8.5,235.5,l),
(22.5,242,o),
(43.5,255.5,o),
(51,255.5,cs),
(67,255.5,o),
(76.5,209.5,o),
(119.5,209.5,cs),
(136,209.5,o),
(149,221,o),
(155.5,234.5,c),
(143,233.5,l),
(143,216,o),
(140,198,o),
(131,198,cs),
(120.5,198,o),
(82,243,o),
(49,243,cs),
(41,243,o),
(27.5,230,o),
(27.5,216,cs),
(27.5,202,o),
(44,140,o),
(43.5,118.5,c),
(78,109.5,l),
(81,151.5,o),
(62.5,201,o),
(63.5,213,c),
(53.5,207.5,l),
(82,190.5,o),
(121.5,157,o),
(139,157,cs),
(156.5,157,o),
(183,210,o),
(182.5,228.5,c),
(170.5,226.5,l),
(238.5,161,l),
(232,171.5,l),
(230,135.5,l),
(241,139.5,l),
(166,195,l),
(141.5,173.5,l),
(141.5,175,o),
(144.5,101.5,o),
(144.5,90.5,cs),
(144.5,72.5,o),
(140,62,o),
(134,51,c),
(165,30,l),
(172.5,44.5,o),
(179,61.5,o),
(179,86,cs),
(179,160,l),
(167,154,l),
(201.5,122,o),
(230,104.5,o),
(243,104.5,cs),
(257,104.5,o),
(264.5,113.5,o),
(265.5,130.5,cs),
(267.5,171.5,l),
(260,155,l),
(286,129.5,l),
(278.5,149.5,l),
(278.5,88.5,ls),
(278.5,73,o),
(265.5,58,o),
(265.5,44.5,cs),
(265.5,27,o),
(274.5,19,o),
(295,19,cs),
(308,19,o),
(327,13.5,o),
(344,-2,c)
);
},
{
closed = 1;
nodes = (
(412.5,167,l),
(398,213,o),
(364.5,259,o),
(338,277,c),
(337,289,o),
(332,302.5,o),
(317,302.5,cs),
(304.5,302.5,o),
(299,292,o),
(299,280,cs),
(300.5,173,l),
(335.5,172,l),
(339,242,l),
(330,235.5,l),
(339,233,o),
(364.5,197,o),
(374,166.5,c)
);
}
);
};
layerId = "FB1DF6F4-D891-49D3-B02D-DC18C1D6977A";
name = "1 Apr 23 at 14:54";
shapes = (
{
closed = 1;
nodes = (
(369,22,l),
(353,37,o),
(333,48,o),
(317.5,53,c),
(323.5,70.5,o),
(328,90,o),
(330,105.5,c),
(359,97.5,o),
(370,89,o),
(377.5,78,cs),
(386.5,65.5,o),
(402.5,61.5,o),
(415.5,61.5,cs),
(433,61.5,o),
(432,70.5,o),
(432,79.5,cs),
(432,91,o),
(413,113,o),
(397,128,c),
(414.5,131,o),
(428.5,131,o),
(446,125,cs),
(458,121,o),
(466,128,o),
(466,146.5,cs),
(466,160,o),
(443.5,174,o),
(429,174,cs),
(423,174,o),
(416.5,174.5,o),
(410,175,c),
(394,218.5,o),
(363,260,o),
(338,277,c),
(337,289,o),
(332,302.5,o),
(317,302.5,cs),
(304.5,302.5,o),
(299,292,o),
(299,280,cs),
(300,194,l),
(299,195,o),
(298.5,196,o),
(297.5,197,cs),
(285.5,213.5,o),
(277,221,o),
(268,221,cs),
(262,221,o),
(256,226.5,o),
(252,233,cs),
(244,247,o),
(238.5,255,o),
(225.5,254.5,cs),
(212.5,254,o),
(194.5,258.5,o),
(189.5,264.5,cs),
(185.5,269.5,o),
(167.5,274.5,o),
(154,276.5,c),
(153,293,o),
(152,313.5,o),
(152,319.5,cs),
(152,326.5,o),
(158,333.5,o),
(164,337.5,cs),
(170,341.5,o),
(170,346.5,o),
(170,353,cs),
(170,359.5,o),
(156,374.5,o),
(145.5,374.5,cs),
(137.5,374.5,o),
(126,357.5,o),
(120.5,344,c),
(113,352.5,o),
(106,361,o),
(101,361,cs),
(93.5,361,o),
(82.5,351.5,o),
(82.5,340.5,cs),
(82.5,330.5,o),
(104,267,o),
(120,248,c),
(119,247.5,o),
(117.5,247.5,o),
(116.5,247.5,cs),
(108.5,247.5,o),
(101.5,254,o),
(93.5,267.5,cs),
(85.5,281,o),
(70,292,o),
(54.5,292,cs),
(39,292,o),
(18.5,281,o),
(0.5,266.5,c),
(8.5,235.5,l),
(22.5,242,o),
(43.5,255.5,o),
(51,255.5,cs),
(58,255.5,o),
(63.5,247,o),
(71,237.5,c),
(63.5,241,o),
(56,243,o),
(49,243,cs),
(41,243,o),
(27.5,230,o),
(27.5,216,cs),
(27.5,202,o),
(44,140,o),
(43.5,118.5,c),
(78,109.5,l),
(80.5,142,o),
(69.5,179.5,o),
(65,200,c),
(92,182.5,o),
(124,157,o),
(139,157,cs),
(140,157,o),
(141,157,o),
(142,157.5,c),
(143,135.5,o),
(144.5,98,o),
(144.5,90.5,cs),
(144.5,72.5,o),
(140,62,o),
(134,51,c),
(165,30,l),
(172.5,44.5,o),
(179,61.5,o),
(179,86,cs),
(179,143,l),
(208,118,o),
(231.5,104.5,o),
(243,104.5,cs),
(257,104.5,o),
(264.5,113.5,o),
(265.5,130.5,cs),
(266.5,148.5,l),
(278.5,137,l),
(278.5,88.5,ls),
(278.5,73,o),
(265.5,58,o),
(265.5,44.5,cs),
(265.5,27,o),
(274.5,19,o),
(295,19,cs),
(308,19,o),
(327,13.5,o),
(344,-2,c)
);
},
{
closed = 1;
nodes = (
(44,140.5,o),
(43,141.5,o),
(43,143,cs),
(39,213.5,o),
(38.5,231.5,o),
(52,231.5,cs),
(58.5,231.5,o),
(71.5,223.5,o),
(98.5,208.5,cs),
(124,194.5,o),
(134,189.5,o),
(142,189.5,cs),
(148.5,189.5,o),
(154,200,o),
(153.5,211,cs),
(151,249.5,l),
(150.5,249,o),
(150,249,o),
(149.5,249,cs),
(134.5,248,o),
(119.5,255.5,o),
(118.5,270,cs),
(118.5,271.5,o),
(119.5,272.5,o),
(121,272.5,cs),
(122.5,272.5,o),
(123.5,271.5,o),
(123.5,270,cs),
(124.5,259.5,o),
(135.5,253,o),
(149.5,254,cs),
(150,254,o),
(150.5,254,o),
(151,253.5,c),
(151.5,254.5,o),
(152.5,255,o),
(153.5,255,cs),
(155,255,o),
(156,254,o),
(156,252.5,cs),
(158.5,211,ls),
(159,199,o),
(152.5,184.5,o),
(142,184.5,cs),
(133,184.5,o),
(122,190.5,o),
(96.5,204.5,cs),
(68.5,219.5,o),
(57.5,226.5,o),
(52,226.5,cs),
(44.5,226.5,o),
(44,212.5,o),
(48,143,cs),
(48,141.5,o),
(47,140.5,o),
(45.5,140.5,cs)
);
},
{
closed = 1;
nodes = (
(99,224,o),
(88,234,o),
(77,250.5,cs),
(61,275,o),
(55.5,282,o),
(50,282,cs),
(41.5,282,o),
(34.5,273.5,o),
(14.5,244,cs),
(13,241.5,o),
(8.5,244,o),
(10.5,247,cs),
(30.5,276.5,o),
(39.5,287,o),
(50,287,cs),
(57.5,287,o),
(65,278,o),
(81,253.5,cs),
(92,237,o),
(101,229,o),
(108.5,229,cs),
(122,229,o),
(135,242.5,o),
(141,248.5,cs),
(143.5,250.5,o),
(147.5,247.5,o),
(145,244.5,cs),
(139,238.5,o),
(124,224,o),
(108.5,224,cs)
);
},
{
closed = 1;
nodes = (
(314,29.5,o),
(293.5,44,o),
(285,57.5,c),
(283,55.5,o),
(280.5,54,o),
(278.5,52.5,cs),
(276.5,51,o),
(272,54,o),
(275.5,56.5,cs),
(278,58.5,o),
(280.5,60,o),
(282.5,62,c),
(278.5,71.5,o),
(280.5,80.5,o),
(286.5,89,cs),
(291,95,o),
(294,109,o),
(294.5,124,c),
(253.5,164,l),
(253,131.5,ls),
(253,126,o),
(250,121.5,o),
(245,121.5,cs),
(240.5,121.5,o),
(234,126,o),
(225,132.5,cs),
(211.5,142,o),
(192,147.5,o),
(174,147.5,cs),
(168,147.5,o),
(167,144.5,o),
(167,136.5,cs),
(167,88,ls),
(167,66.5,o),
(160,49,o),
(147.5,43.5,cs),
(144.5,42.5,o),
(142.5,47,o),
(145.5,48.5,cs),
(156,53,o),
(162,67.5,o),
(162,88,cs),
(162,136.5,ls),
(162,145.5,o),
(164,152.5,o),
(174,152.5,cs),
(193,152.5,o),
(213.5,147,o),
(228,136.5,cs),
(237,130,o),
(242.5,126.5,o),
(245,126.5,cs),
(247,126.5,o),
(248,128,o),
(248,131.5,cs),
(248.5,169,l),
(229.5,187.5,ls),
(222,194.5,o),
(216.5,203,o),
(216,214,c),
(195,223,o),
(169.5,237,o),
(160.5,249.5,cs),
(152,260.5,o),
(142,267,o),
(133,276,c),
(133,268,ls),
(133,266.5,o),
(132,265.5,o),
(130.5,265.5,cs),
(129,265.5,o),
(128,266.5,o),
(128,268,cs),
(126,268.5,o),
(125,269.5,o),
(125,271,cs),
(126,284,l),
(122,295.5,o),
(111.5,310.5,o),
(91,335.5,cs),
(89,338,o),
(93,341,o),
(95,338.5,cs),
(110.5,319,o),
(121,305.5,o),
(126.5,294,c),
(129.5,332.5,ls),
(129.5,334,o),
(130.5,335,o),
(132,335,cs),
(133.5,335,o),
(134.5,334,o),
(134.5,332.5,cs),
(131,284.5,l),
(131.5,283,o),
(131.5,282,o),
(132,281,c),
(133,282,o),
(134,282,o),
(135.5,281,c),
(144.5,271.5,o),
(155,265,o),
(164.5,252.5,cs),
(173,241,o),
(196.5,228,o),
(216.5,220,cs),
(216.5,221.5,o),
(217.5,222.5,o),
(219,222.5,cs),
(220.5,222.5,o),
(221.5,221.5,o),
(221.5,220,cs),
(221.5,219,o),
(221.5,218,o),
(221,217.5,c),
(229,214,o),
(236,211.5,o),
(241,210.5,cs),
(246,209.5,o),
(247,211,o),
(241.5,213.5,cs),
(172,248,ls),
(169,249,o),
(171,253.5,o),
(174,252,cs),
(243.5,218.5,ls),
(255,213,o),
(250,203.5,o),
(240,205.5,cs),
(235.5,206.5,o),
(228.5,209,o),
(221,212,c),
(222,203.5,o),
(226.5,197.5,o),
(232.5,191.5,cs),
(248.5,176,l),
(248.5,195.5,ls),
(248.5,197,o),
(249.5,198,o),
(251,198,cs),
(252.5,198,o),
(253.5,197,o),
(253.5,195.5,cs),
(253.5,171,l),
(294.5,131,l),
(293.5,149.5,o),
(288,168,o),
(273.5,172.5,cs),
(265,175,o),
(267.5,184,o),
(275.5,182.5,cs),
(297,179,l),
(297.5,180,o),
(298,180.5,o),
(298,181.5,c),
(273,198.5,ls),
(262,206,o),
(248.5,222,o),
(247,229.5,cs),
(247,231.5,o),
(248,232.5,o),
(249.5,232.5,cs),
(251,232.5,o),
(252,231.5,o),
(252,230.5,cs),
(253.5,224,o),
(265,210,o),
(276,202.5,cs),
(300,186.5,l),
(304,196,o),
(308,208,o),
(310.5,221,c),
(309,231,o),
(307,241,o),
(303.5,251.5,c),
(303.5,253.5,o),
(304.5,254.5,o),
(306,254.5,cs),
(307.5,254.5,o),
(308.5,253.5,o),
(308.5,252.5,c),
(310.5,247,o),
(312,241,o),
(313,235.5,c),
(314,243,o),
(314.5,250,o),
(314.5,257.5,cs),
(314.5,258,o),
(315,259,o),
(315,259.5,c),
(313,260,o),
(311,261,o),
(309,261.5,cs),
(306,263,o),
(307.5,267.5,o),
(311,266.5,cs),
(343.5,254.5,o),
(370.5,231,o),
(399.5,177.5,cs),
(401.5,174.5,o),
(397,172.5,o),
(395.5,175.5,cs),
(369.5,222,o),
(346.5,245,o),
(319.5,257.5,c),
(319.5,245,o),
(318,232.5,o),
(315.5,220.5,c),
(317.5,204.5,o),
(317,189.5,o),
(314.5,176.5,c),
(358,147.5,ls),
(359.5,146.5,o),
(360.5,145.5,o),
(362,144.5,c),
(381.5,144,o),
(399,145.5,o),
(413,148,c),
(405,157.5,o),
(384,161,o),
(345,157.5,cs),
(343.5,157.5,o),
(342.5,158.5,o),
(342.5,160,cs),
(342.5,161.5,o),
(343.5,162.5,o),
(345,162.5,cs),
(387,166.5,o),
(410,162,o),
(418.5,149,c),
(431,151.5,o),
(439.5,155,o),
(444,159,cs),
(446,161,o),
(449.5,157.5,o),
(447,155,cs),
(442.5,151,o),
(433.5,147,o),
(421,144.5,c),
(422,141.5,o),
(422.5,138.5,o),
(422.5,135,cs),
(422.5,133.5,o),
(421.5,132.5,o),
(420,132.5,cs),
(418.5,132.5,o),
(417.5,133.5,o),
(417.5,135,cs),
(417.5,138,o),
(417,141,o),
(416,143.5,c),
(402,141,o),
(385,139.5,o),
(366,139.5,c),
(368,136.5,o),
(369,133.5,o),
(368.5,130.5,cs),
(368.5,128.5,o),
(362.5,122,o),
(363.5,120.5,c),
(364,121.5,o),
(365,122,o),
(366,122,cs),
(389.5,119.5,o),
(412,99.5,o),
(412,83.5,cs),
(412,82,o),
(411,81,o),
(409.5,81,cs),
(408,81,o),
(407,82,o),
(407,83.5,cs),
(407,96.5,o),
(387.5,114,o),
(366.5,117,c),
(383.5,97,o),
(404.5,76.5,o),
(415,74,cs),
(416,74,o),
(417,73,o),
(417,71.5,cs),
(417,70,o),
(416,69,o),
(414,69,c),
(401.5,72,o),
(377,96.5,o),
(359.5,118,c),
(356,116,o),
(352.5,115,o),
(350,115,cs),
(344,115.5,o),
(339.5,114.5,o),
(336,110.5,cs),
(329.5,104,o),
(319,104,o),
(309.5,110.5,c),
(308.5,99.5,o),
(306.5,90,o),
(303,81.5,c),
(317.5,65.5,ls),
(319.5,63.5,o),
(316,60,o),
(313.5,62.5,cs),
(300.5,77,l),
(297.5,71,o),
(293.5,65.5,o),
(289,61,c),
(295.5,48.5,o),
(315,34.5,o),
(353.5,17.5,cs),
(356.5,16,o),
(354.5,11.5,o),
(351.5,12.5,cs)
);
},
{
closed = 1;
nodes = (
(127.5,198,o),
(120.5,203,o),
(112,210,c),
(114.5,209.5,o),
(117,209.5,o),
(119.5,209.5,cs),
(128,209.5,o),
(136,212.5,o),
(142,217.5,c),
(140.5,206.5,o),
(137,198,o),
(131,198,cs)
);
},
{
closed = 1;
nodes = (
(170.5,191.5,l),
(175,200.5,o),
(178.5,209,o),
(180.5,216.5,c),
(232,167.5,l),
(230.5,147,l)
);
},
{
closed = 1;
nodes = (
(291,70.5,o),
(294,75,o),
(297,80.5,c),
(292.5,85.5,ls),
(290.5,87.5,o),
(294,91,o),
(296.5,88.5,cs),
(299,85.5,l),
(302.5,94,o),
(304,103,o),
(304.5,114,c),
(304,114.5,o),
(303.5,115,o),
(302.5,115.5,c),
(299,119,l),
(298.5,105,o),
(295,92.5,o),
(290.5,86,cs),
(286,79.5,o),
(284.5,73,o),
(286.5,66,c)
);
},
{
closed = 1;
nodes = (
(303,153,o),
(306.5,162.5,o),
(309,174.5,c),
(302.5,179,l),
(302,178,o),
(301.5,177,o),
(301,176.5,c),
(300.5,175,o),
(299.5,175,o),
(298.5,175,c),
(298,174.5,o),
(297.5,174,o),
(296.5,174,cs),
(273.5,177.5,o),
(273.5,177.5,o),
(274.5,177.5,c),
(287.5,173,o),
(294.5,160.5,o),
(298,146.5,cs)
);
},
{
closed = 1;
nodes = (
(337.5,119.5,o),
(344,120.5,o),
(350,120,cs),
(352,120,o),
(354,120.5,o),
(356.5,122,c),
(354,124.5,o),
(352.5,127,o),
(350.5,129.5,cs),
(349,131.5,o),
(352,136,o),
(354.5,132.5,cs),
(356.5,130,o),
(358,127.5,o),
(360,125,c),
(362,127,o),
(363.5,129,o),
(363.5,130.5,cs),
(364,134,o),
(362.5,137,o),
(360,139.5,c),
(353.5,139.5,o),
(347.5,140,o),
(341,140.5,cs),
(339.5,140.5,o),
(338.5,141.5,o),
(338.5,143,cs),
(338.5,144.5,o),
(339.5,145.5,o),
(341,145.5,cs),
(345,145,o),
(349,145,o),
(353,144.5,c),
(313.5,171.5,l),
(311,160,o),
(307,150,o),
(302,143.5,cs),
(301,142,o),
(299,142.5,o),
(298,143.5,c),
(299,138,o),
(299.5,132.5,o),
(299.5,127,cs),
(299.5,126,l),
(304.5,121,l),
(304.5,126,o),
(304,131.5,o),
(303.5,137.5,cs),
(303.5,139,o),
(304.5,140,o),
(306,140,cs),
(307.5,140,o),
(308.5,139,o),
(308.5,137.5,cs),
(309.5,130,o),
(309.5,123,o),
(309.5,116.5,c),
(318,109.5,o),
(327,109,o),
(332,114.5,cs)
);
},
{
closed = 1;
nodes = (
(311.5,187.5,o),
(312,196,o),
(311.5,205,c),
(309.5,197,o),
(307,189.5,o),
(304.5,183.5,c),
(310,179.5,l)
);
},
{
closed = 1;
nodes = (
(361.5,181.5,o),
(355.5,182,o),
(350,182,cs),
(345,182,o),
(340.5,182,o),
(336,182.5,c),
(338.5,229,l),
(347.5,219,o),
(360.5,200,o),
(369,180.5,c)
);
}
);
width = 500;
}
);
},
{
export = 0;
glyphname = _part.mosquito1;
lastChange = "2023-04-26 06:57:28 +0000";
layers = (
{
layerId = m01;
shapes = (
{
closed = 1;
nodes = (
(95,15.5,o),
(97,20,o),
(94,21.5,cs),
(87.5,24,o),
(81.5,24,o),
(75.5,24,cs),
(75,24,o),
(75,24.5,o),
(75,25,cs),
(76.5,32.5,o),
(80,41,o),
(84,50,c),
(88.5,50,o),
(90.5,52,o),
(90.5,58.5,cs),
(90.5,60,o),
(90.5,61.5,o),
(90,63,c),
(92,67,o),
(94,71,o),
(96.5,74.5,c),
(116.5,78,o),
(139,87,o),
(152,94.5,cs),
(157.5,98,o),
(156.5,102,o),
(151.5,103,cs),
(148,103.5,o),
(129.5,105.5,o),
(119.5,105.5,cs),
(105.5,105.5,o),
(93,102.5,o),
(82,95.5,c),
(91.5,112.5,o),
(98,134,o),
(98,158.5,cs),
(98,165,o),
(93.5,166.5,o),
(89,163,cs),
(64.5,140.5,o),
(53.5,124.5,o),
(54,101.5,c),
(52.5,109,o),
(45.5,111,o),
(43.5,103,cs),
(42.5,99,o),
(41,94.5,o),
(40,89.5,c),
(39,91,o),
(37.5,92.5,o),
(35,93,c),
(34.5,100.5,o),
(34,107,o),
(33,112.5,cs),
(33,114,o),
(32,115,o),
(30.5,115,cs),
(29,115,o),
(28,114,o),
(28,112.5,cs),
(29,106.5,o),
(29.5,100.5,o),
(30,93.5,c),
(26.5,97.5,o),
(23.5,102.5,o),
(22.5,108,cs),
(22.5,109.5,o),
(21.5,110.5,o),
(20,110.5,cs),
(18.5,110.5,o),
(17.5,109.5,o),
(17.5,108,cs),
(18.5,101.5,o),
(21.5,96,o),
(25,91.5,c),
(22,89,o),
(20,85,o),
(20,80.5,c),
(10.5,73.5,o),
(1.5,62.5,o),
(1.5,59,cs),
(1.5,58.5,o),
(2.5,57.5,o),
(3.5,57.5,cs),
(5.5,57.5,o),
(12,64.5,o),
(21,74,c),
(27.5,73,o),
(34,76,o),
(38,80,c),
(34.5,63,o),
(32,47.5,o),
(31.5,41,cs),
(31,38.5,o),
(30.5,38,o),
(29.5,38,cs),
(18.5,37.5,ls),
(17,37.5,o),
(16,36.5,o),
(16,35,cs),
(16,33.5,o),
(17,32.5,o),
(18.5,32.5,cs),
(29.5,33,ls),
(32,33,o),
(35.5,35,o),
(36.5,40,cs),
(37,47.5,o),
(40,66,o),
(44,84.5,c),
(50.5,81.5,o),
(55.5,77.5,o),
(58.5,73,c),
(56,59,o),
(55.5,48,o),
(55.5,30,cs),
(55.5,28,o),
(55.5,27.5,o),
(54,28,c),
(46.5,28.5,ls),
(45,28.5,o),
(44,27.5,o),
(44,26,cs),
(44,24.5,o),
(45,23.5,o),
(46.5,23.5,cs),
(53,23,ls),
(56.5,22.5,o),
(60.5,24.5,o),
(60.5,30,cs),
(60.5,44.5,o),
(61,54,o),
(62.5,65,c),
(65.5,57.5,o),
(71,52,o),
(79,50.5,c),
(75,41.5,o),
(72,33,o),
(70,25.5,cs),
(69,22,o),
(70.5,19,o),
(75.5,19,cs),
(81.5,19,o),
(86.5,19,o),
(92,16.5,cs)
);
},
{
closed = 1;
nodes = (
(23.5,80,o),
(22.5,81,o),
(22.5,82.5,cs),
(22.5,83.5,o),
(23.5,84.5,o),
(24.5,84.5,cs),
(25.5,84.5,o),
(26.5,83.5,o),
(26.5,82.5,cs),
(26.5,81,o),
(25.5,80,o),
(24.5,80,cs)
);
},
{
closed = 1;
nodes = (
(29.5,80.5,o),
(29.5,81.5,o),
(29.5,83,cs),
(29.5,84,o),
(29.5,84.5,o),
(31,84.5,cs),
(32,84.5,o),
(32.5,84,o),
(32.5,83,cs),
(32.5,81.5,o),
(32,80.5,o),
(31,80.5,cs)
);
},
{
closed = 1;
nodes = (
(46.5,94.5,o),
(47.5,98.5,o),
(48.5,102,cs),
(48.5,102.5,o),
(49,102.5,o),
(49,100.5,cs),
(50,91,l),
(48.5,91,o),
(47,91,o),
(45.5,90.5,c)
);
},
{
closed = 1;
nodes = (
(86.5,73,l),
(87.5,73.5,o),
(89,73.5,o),
(90,73.5,c),
(89.5,72.5,o),
(89,71,o),
(88,70,c)
);
},
{
closed = 1;
nodes = (
(95,82,l),
(94.5,81,o),
(93.5,80,o),
(93,79,c),
(91.5,78.5,o),
(89.5,78.5,o),
(87.5,78.5,c)
);
},
{
closed = 1;
nodes = (
(61,90,o),
(60,90,o),
(59,90.5,c),
(59,100,ls),
(59,122.5,o),
(68,137,o),
(92,159,cs),
(92.5,159.5,o),
(93,159.5,o),
(93,158.5,cs),
(93,133,o),
(85.5,110.5,o),
(75,94,c),
(74.5,102,ls),
(74,112.5,o),
(66,111.5,o),
(64.5,103,cs),
(62,89.5,l)
);
},
{
closed = 1;
nodes = (
(100,80.5,o),
(100,81,o),
(100.5,81.5,cs),
(104.5,86,o),
(101.5,90,o),
(94.5,87,cs),
(80.5,80.5,l),
(79,81.5,o),
(77,83,o),
(75.5,84,c),
(88.5,96,o),
(102.5,100.5,o),
(119.5,100.5,cs),
(128,100.5,o),
(142.5,99,o),
(148.5,98.5,c),
(137,92,o),
(117.5,84,o),
(99.5,80,c)
);
}
);
width = 225;
}
);
},
{
export = 0;
glyphname = _part.mosquito2;
lastChange = "2023-04-26 07:01:40 +0000";
layers = (
{
layerId = m01;
shapes = (
{
closed = 1;
nodes = (
(64.5,17,o),
(65.5,18,o),
(65.5,19.5,cs),
(65.5,21,o),
(64.5,22,o),
(63,22,cs),
(54.5,23.5,o),
(51,33.5,o),
(53,47.5,c),
(59.5,51,o),
(69,62,o),
(73.5,72,cs),
(74.5,74.5,o),
(73,77.5,o),
(70,77.5,cs),
(55,77,l),
(58,85,o),
(61,86.5,o),
(69.5,86.5,cs),
(84.5,85.5,l),
(83,84.5,o),
(82.5,83,o),
(82.5,82,cs),
(82.5,80.5,o),
(83.5,78.5,o),
(85.5,78,c),
(93,73,l),
(92.5,72.5,o),
(91.5,72,o),
(91,71.5,cs),
(88.5,69.5,o),
(91.5,65.5,o),
(94,67.5,cs),
(95,68,o),
(95.5,68.5,o),
(96,69,c),
(95.5,67.5,o),
(95,66,o),
(94,64.5,cs),
(92,62,o),
(96,59,o),
(98,61.5,cs),
(99.5,63.5,o),
(100.5,65.5,o),
(101,68.5,c),
(101.5,67.5,o),
(101.5,66,o),
(101.5,64.5,cs),
(101.5,63,o),
(102.5,62,o),
(104,62,cs),
(105.5,62,o),
(106.5,63,o),
(106.5,64.5,cs),
(106.5,72.5,o),
(103.5,75,o),
(99.5,75,c),
(88,82,l),
(90.5,82,ls),
(92,82,o),
(93,83,o),
(93,84.5,cs),
(93,85,o),
(93,85.5,o),
(92.5,86,c),
(94.5,86.5,o),
(96,87.5,o),
(97,89,c),
(99,87,o),
(101.5,85.5,o),
(105,84.5,c),
(117.5,72.5,o),
(126.5,67,o),
(137.5,62.5,c),
(141,60,o),
(144.5,64.5,o),
(141.5,67.5,cs),
(133.5,76.5,o),
(125.5,83,o),
(120,90,c),
(121.5,91.5,o),
(122,93.5,o),
(122,95.5,cs),
(122,102.5,o),
(114.5,108,o),
(106,108,cs),
(99,108,o),
(96,106,o),
(95,103,c),
(93.5,104.5,o),
(91.5,105.5,o),
(89,106.5,c),
(89,107.5,l),
(88,109.5,o),
(85.5,112.5,o),
(82.5,115.5,c),
(83.5,116,o),
(84.5,117,o),
(84.5,118,cs),
(83,131,o),
(72,141,o),
(67,141,cs),
(62.5,141,o),
(57,137,o),
(57,132,cs),
(57,127,o),
(62,121,o),
(69.5,119,cs),
(72.5,118.5,o),
(80,112,o),
(83,107.5,c),
(81.5,108,o),
(80.5,108,o),
(79,108,c),
(78.5,109,o),
(78,110,o),
(77,110,c),
(51.5,118.5,ls),
(44.5,121,o),
(39,118,o),
(39,112,cs),
(39,107.5,o),
(44.5,104.5,o),
(49.5,104,c),
(43.5,101,o),
(38.5,96.5,o),
(33,89.5,cs),
(21.5,75,o),
(13,65.5,o),
(9,64.5,cs),
(-1,61,o),
(-3.5,50.5,o),
(20,50.5,cs),
(35,50.5,o),
(47.5,60,o),
(53,72,c),
(68,72.5,l),
(64,63.5,o),
(56,55,o),
(50.5,52,c),
(48,49.5,l),
(46,33.5,o),
(49.5,19.5,o),
(63,17,cs)
);
},
{
closed = 1;
nodes = (
(4,55.5,o),
(4.5,57.5,o),
(11,59.5,cs),
(16,61.5,o),
(25.5,72,o),
(37,86.5,cs),
(47.5,100.5,o),
(54.5,103,o),
(78,103,cs),
(89.5,103,o),
(93.5,99.5,o),
(93.5,94,cs),
(93.5,91.5,o),
(92.5,90,o),
(85,90.5,cs),
(69.5,91.5,ls),
(58.5,91.5,o),
(53.5,89,o),
(49.5,77,cs),
(45.5,65,o),
(34,55.5,o),
(20,55.5,cs)
);
},
{
closed = 1;
nodes = (
(50.5,109,ls),
(47,109,o),
(44,111,o),
(44,112,cs),
(44,114,o),
(45.5,115,o),
(49.5,113.5,cs),
(65,108.5,l)
);
},
{
closed = 1;
nodes = (
(76,121,o),
(73,123.5,o),
(70.5,124,cs),
(65,125,o),
(62,129,o),
(62,132,cs),
(62,134,o),
(64.5,136,o),
(67,136,cs),
(70,136,o),
(78,128.5,o),
(79.5,118.5,c)
);
},
{
closed = 1;
nodes = (
(125.5,74,o),
(119,78.5,o),
(112,85,c),
(113.5,85.5,o),
(115,86,o),
(116.5,87,c),
(120.5,81.5,o),
(126,76.5,o),
(131.5,70.5,c)
);
},
{
closed = 1;
nodes = (
(99.5,93,o),
(99,94.5,o),
(99,96.5,cs),
(99,102,o),
(99.5,103,o),
(106,103,cs),
(112,103,o),
(116.5,100,o),
(117,96.5,c),
(115.5,99,o),
(112.5,100.5,o),
(109.5,100.5,cs),
(104,100.5,o),
(100.5,97,o),
(100.5,93.5,cs),
(100.5,93,o),
(100.5,92.5,o),
(101,91.5,c)
);
},
{
closed = 1;
nodes = (
(107,91.5,o),
(105.5,93,o),
(105.5,93.5,cs),
(105.5,94.5,o),
(107,95.5,o),
(109.5,95.5,cs),
(112,95.5,o),
(113,94.5,o),
(113,92.5,cs),
(113,92,o),
(112,91.5,o),
(109,91.5,cs)
);
}
);
width = 225;
}
);
},
{
export = 0;
glyphname = _part.moth1;
lastChange = "2023-04-26 07:00:53 +0000";
layers = (
{
layerId = m01;
shapes = (
{
closed = 1;
nodes = (
(35,17.5,o),
(38.5,21,o),
(38,26,cs),
(36.5,48.5,o),
(44,56,o),
(50,53.5,cs),
(62.5,48,o),
(69,59.5,o),
(69,72.5,cs),
(69,78.5,o),
(67.5,85,o),
(66,87,cs),
(64.5,90.5,o),
(65.5,93,o),
(68.5,93,cs),
(71.5,93,o),
(72,90.5,o),
(71,86.5,cs),
(70,82,o),
(69.5,77.5,o),
(69.5,73.5,cs),
(69.5,57.5,o),
(78,52,o),
(87.5,54.5,cs),
(96.5,56.5,o),
(101.5,47.5,o),
(99.5,30,cs),
(99,24.5,o),
(101,18.5,o),
(107,18.5,cs),
(112,18.5,o),
(113.5,23.5,o),
(113.5,28.5,cs),
(113.5,38,o),
(112,43.5,o),
(109,50,cs),
(107,54.5,o),
(105.5,58,o),
(105.5,61.5,cs),
(105.5,65,o),
(107.5,68,o),
(109.5,68.5,cs),
(113.5,70.5,o),
(115.5,73.5,o),
(115.5,76.5,cs),
(115.5,80.5,o),
(112,84.5,o),
(106.5,88,c),
(108,87.5,o),
(110,87.5,o),
(112,87.5,cs),
(123.5,87.5,o),
(138.5,102.5,o),
(138.5,120.5,cs),
(138.5,131,o),
(133,135,o),
(127,135,cs),
(122,135,o),
(115.5,129,o),
(110.5,125.5,cs),
(106,121.5,o),
(95.5,116.5,o),
(86,116.5,cs),
(46.5,116.5,ls),
(40.5,116.5,o),
(27.5,123,o),
(20.5,128.5,cs),
(17.5,130.5,o),
(14.5,133.5,o),
(10.5,133.5,cs),
(3.5,133.5,o),
(-1,127.5,o),
(-1,120,cs),
(-1,100,o),
(13,86,o),
(25,86,cs),
(27,86,o),
(29,86.5,o),
(31,87,c),
(26,83.5,o),
(23,79.5,o),
(23,75.5,cs),
(23,71,o),
(25.5,68.5,o),
(29,67,cs),
(30.5,66,o),
(32,63.5,o),
(32,59,cs),
(32,56,o),
(30.5,51.5,o),
(28.5,48,cs),
(25.5,43.5,o),
(23,35.5,o),
(23,27,cs),
(23,21,o),
(26.5,17.5,o),
(30.5,17.5,cs)
);
},
{
closed = 1;
nodes = (
(28.5,22.5,o),
(28,23,o),
(28,27,cs),
(28,34.5,o),
(30.5,41.5,o),
(32.5,45,cs),
(35.5,49.5,o),
(37,55,o),
(37,59,cs),
(37,64.5,o),
(34.5,70,o),
(31,72,c),
(28.5,72.5,o),
(28,73,o),
(28,75.5,cs),
(28,81.5,o),
(40,88,o),
(55.5,91,cs),
(63,92,o),
(63,101,o),
(55,101,cs),
(50.5,101,o),
(42,99,o),
(38.5,96,cs),
(34.5,93,o),
(29.5,91,o),
(25,91,cs),
(15,91,o),
(4,102,o),
(4,120,cs),
(4,125.5,o),
(6.5,128.5,o),
(10.5,128.5,cs),
(12.5,128.5,o),
(14.5,126.5,o),
(17.5,124.5,cs),
(24.5,119,o),
(39.5,111.5,o),
(46.5,111.5,cs),
(86,111.5,ls),
(96.5,111.5,o),
(109,117.5,o),
(113.5,121.5,cs),
(118.5,125,o),
(124,130,o),
(127,130,cs),
(131,130,o),
(133.5,128,o),
(133.5,120.5,cs),
(133.5,104.5,o),
(121.5,92.5,o),
(112,92.5,cs),
(106.5,92.5,o),
(105.5,93,o),
(100.5,97,cs),
(95,101,o),
(90,102.5,o),
(85,102.5,cs),
(73.5,102.5,o),
(75,90,o),
(83.5,90,cs),
(96,90,o),
(110.5,81,o),
(110.5,76.5,cs),
(110.5,75,o),
(110,74.5,o),
(107.5,73.5,cs),
(103.5,72,o),
(100.5,67,o),
(100.5,61.5,cs),
(100.5,57,o),
(102,52.5,o),
(104,48,cs),
(107,41.5,o),
(108.5,37,o),
(108.5,28.5,cs),
(108.5,24.5,o),
(108,23.5,o),
(107,23.5,cs),
(105,23.5,o),
(104,25.5,o),
(104.5,29,cs),
(106.5,49.5,o),
(99.5,62.5,o),
(86.5,59.5,cs),
(80,58,o),
(74.5,61.5,o),
(74.5,73.5,cs),
(74.5,77.5,o),
(75,81,o),
(76,85.5,cs),
(77,90.5,o),
(75.5,98,o),
(68.5,98,cs),
(61.5,98,o),
(58.5,90.5,o),
(62,85,c),
(62.5,83,o),
(64,77.5,o),
(64,72.5,cs),
(64,61.5,o),
(59.5,55,o),
(52,58.5,cs),
(41,62,o),
(31.5,51.5,o),
(33,26,cs),
(33.5,23,o),
(33,22.5,o),
(30.5,22.5,cs)
);
},
{
closed = 1;
nodes = (
(45.5,94.5,o),
(51.5,96,o),
(55,96,cs),
(50.5,95,o),
(46.5,94,o),
(42.5,92.5,c)
);
},
{
closed = 1;
nodes = (
(94,93.5,o),
(88.5,95,o),
(83.5,95,cs),
(81,95,o),
(81,97.5,o),
(85,97.5,cs),
(89,97.5,o),
(93,96,o),
(97.5,93,cs),
(99,91.5,l)
);
}
);
width = 225;
}
);
},
{
export = 0;
glyphname = _part.queenant;
lastChange = "2023-04-26 06:51:36 +0000";
layers = (
{
layerId = m01;
shapes = (
{
closed = 1;
nodes = (
(54,69.5,l),
(55,69,o),
(55.5,69,o),
(56.5,69,cs),
(61.5,69,o),
(68,73,o),
(72,78.5,c),
(72,78,o),
(72,78,o),
(72.5,77.5,c),
(69,32,ls),
(69,30.5,o),
(70,29.5,o),
(71.5,29.5,cs),
(73,29.5,o),
(74,30.5,o),
(74,32,cs),
(77.5,76.5,l),
(78.5,77,o),
(79,77,o),
(80,77.5,c),
(80,67,ls),
(80,40,o),
(88.5,33,o),
(99,27.5,c),
(101.5,25.5,o),
(104,30,o),
(101,31.5,cs),
(91.5,37,o),
(85,42,o),
(85,67,cs),
(85,77,l),
(90.5,64.5,o),
(102,56,o),
(117,52.5,c),
(116.5,50,o),
(120,48,o),
(121.5,50.5,cs),
(122,51,o),
(122,51,o),
(122,51.5,c),
(126,51,o),
(130.5,50.5,o),
(135,50.5,cs),
(139,50.5,o),
(143,51,o),
(147,51.5,c),
(147.5,49.5,o),
(150,48.5,o),
(151.5,50.5,cs),
(152,51,o),
(153,52,o),
(153.5,53,c),
(174.5,59,o),
(188.5,74.5,o),
(188.5,93.5,cs),
(188.5,115,o),
(166,135.5,o),
(140.5,135.5,cs),
(115,135.5,o),
(82.5,114,o),
(81.5,95,c),
(80.5,95,ls),
(78,95,o),
(75,93.5,o),
(73,91.5,c),
(71,94.5,o),
(67.5,96.5,o),
(63,96.5,cs),
(53,96.5,l),
(53,98,l),
(53,108.5,ls),
(53,111.5,o),
(51,114.5,o),
(47.5,114,cs),
(44.5,113.5,l),
(34,149,ls),
(33,151.5,o),
(31,153.5,o),
(28,153.5,cs),
(18,153.5,ls),
(16.5,153.5,o),
(15.5,152.5,o),
(15.5,151,cs),
(15.5,149.5,o),
(16.5,148.5,o),
(18,148.5,cs),
(28,148.5,ls),
(28.5,148.5,o),
(28.5,148.5,o),
(29,147,cs),
(39.5,113.5,l),
(35.5,113,ls),
(32.5,112.5,o),
(30,112,o),
(28,110.5,c),
(19,129,l),
(18.5,131,o),
(16,133.5,o),
(12,133.5,cs),
(2.5,133.5,ls),
(1,133.5,o),
(0,132.5,o),
(0,131,cs),
(0,129.5,o),
(1,128.5,o),
(2.5,128.5,cs),
(12,128.5,ls),
(13.5,128.5,o),
(14,128.5,o),
(14,127,c),
(24,107,l),
(20.5,103,o),
(18,97.5,o),
(18,94,cs),
(18,88.5,o),
(24,79,o),
(33,79,cs),
(36.5,79,o),
(41,81.5,o),
(45,85,c),
(45,80.5,ls),
(45,77,o),
(47,74,o),
(49.5,71.5,c),
(27.5,21.5,ls),
(26,18.5,o),
(31,16.5,o),
(32.5,19.5,cs)
);
},
{
closed = 1;
nodes = (
(27,84,o),
(23,90.5,o),
(23,94,cs),
(23,98.5,o),
(28.5,107.5,o),
(35.5,108,cs),
(41,108.5,l),
(41.5,108,o),
(42,107.5,o),
(43,107.5,cs),
(44,107.5,o),
(44.5,108,o),
(45,109,c),
(47.5,109,ls),
(48,109,o),
(48,108.5,o),
(48,108,cs),
(48,98,ls),
(48,92.5,o),
(38,84,o),
(33,84,cs)
);
},
{
closed = 1;
nodes = (
(35.5,86.5,o),
(38,89.5,o),
(38,94,cs),
(38,95.5,o),
(37,96.5,o),
(35.5,96.5,cs),
(34,96.5,o),
(33,95.5,o),
(33,94,cs),
(33,92,o),
(33,91.5,o),
(31.5,91.5,cs),
(31,91.5,o),
(29.5,93,o),
(29.5,94,cs),
(29.5,95.5,o),
(28.5,96.5,o),
(27,96.5,cs),
(25.5,96.5,o),
(24.5,95.5,o),
(24.5,94,cs),
(24.5,90.5,o),
(28,86.5,o),
(31.5,86.5,cs)
);
},
{
closed = 1;
nodes = (
(33,98,o),
(34,99.5,o),
(34,100,cs),
(34,101.5,o),
(33,103,o),
(31.5,103,cs),
(30,103,o),
(29.5,101.5,o),
(29.5,100,cs),
(29.5,99.5,o),
(30,98,o),
(31.5,98,cs)
);
},
{
closed = 1;
nodes = (
(43,98,o),
(43.5,99.5,o),
(43.5,100,cs),
(43.5,101.5,o),
(43,103,o),
(41.5,103,cs),
(40,103,o),
(39,101.5,o),
(39,100,cs),
(39,99.5,o),
(40,98,o),
(41.5,98,cs)
);
},
{
closed = 1;
nodes = (
(53.5,74,o),
(50,77,o),
(50,80.5,cs),
(50,89.5,l),
(50.5,90.5,o),
(50.5,91,o),
(51,91.5,c),
(63,91.5,ls),
(67.5,91.5,o),
(69.5,89.5,o),
(69.5,86.5,cs),
(69.5,80,o),
(61.5,74,o),
(56.5,74,cs)
);
},
{
closed = 1;
nodes = (
(75,81.5,o),
(74.5,82.5,o),
(74.5,83.5,cs),
(74.5,87,o),
(77.5,90,o),
(80.5,90,cs),
(81.5,90,o),
(81.5,90,o),
(81.5,88,cs),
(81.5,85.5,o),
(79,81.5,o),
(76,81.5,cs)
);
},
{
closed = 1;
nodes = (
(92,71.5,o),
(86.5,81.5,o),
(86.5,94,cs),
(86.5,100,o),
(91,107,o),
(98,113.5,c),
(100.5,99,o),
(102,87,o),
(102,77,cs),
(102,73.5,o),
(102,67.5,o),
(101,64.5,c)
);
},
{
closed = 1;
nodes = (
(114.5,58,o),
(109.5,60,o),
(105.5,62,c),
(107,65.5,o),
(107,73.5,o),
(107,77,cs),
(107,88,o),
(105.5,101.5,o),
(102.5,116.5,c),
(106.5,119.5,o),
(111,122.5,o),
(115.5,124.5,c),
(122,111.5,o),
(126.5,101.5,o),
(126.5,89,cs),
(126.5,78,o),
(123,65,o),
(119.5,57,c)
);
},
{
closed = 1;
nodes = (
(131.5,55.5,o),
(128,55.5,o),
(124.5,56,c),
(128,65,o),
(131.5,78,o),
(131.5,89,cs),
(131.5,102.5,o),
(126.5,113.5,o),
(120,126.5,c),
(127,129,o),
(134,130.5,o),
(140.5,130.5,cs),
(142.5,130.5,l),
(152.5,113.5,o),
(156,96,o),
(156,83,cs),
(156,72.5,o),
(154.5,64,o),
(150,57,c),
(145.5,56,o),
(140.5,55.5,o),
(135,55.5,cs)
);
},
{
closed = 1;
nodes = (
(160,66,o),
(161,74,o),
(161,83,cs),
(161,95.5,o),
(157.5,113,o),
(148.5,130,c),
(168,126.5,o),
(183.5,110,o),
(183.5,93.5,cs),
(183.5,78.5,o),
(173.5,65.5,o),
(157,59,c)
);
}
);
width = 225;
}
);
},
{
export = 0;
glyphname = _part.spider1;
lastChange = "2023-04-26 06:52:31 +0000";
layers = (
{
layerId = m01;
shapes = (
{
closed = 1;
nodes = (
(122.5,15,o),
(126,19,o),
(124.5,21.5,cs),
(106.5,51.5,l),
(110.5,53.5,o),
(114,56.5,o),
(117.5,59.5,c),
(151,49.5,l),
(153,49.5,o),
(154,50.5,o),
(154,52,cs),
(154,53.5,o),
(153,54.5,o),
(152,54.5,c),
(121,63.5,l),
(124.5,67.5,o),
(128,71.5,o),
(130,75.5,c),
(160.5,76.5,ls),
(162,76.5,o),
(163,77.5,o),
(163,79,cs),
(163,80.5,o),
(162,81.5,o),
(160.5,81.5,cs),
(132.5,80.5,l),
(172,96,ls),
(175,97.5,o),
(173.5,102,o),
(170,101,cs),
(134,87,l),
(134,88,ls),
(134,92.5,o),
(129.5,96,o),
(124,98,c),
(142,115.5,ls),
(145,118,o),
(141,121.5,o),
(139,119.5,cs),
(119,100,l),
(114,101.5,o),
(108.5,102.5,o),
(106,102.5,cs),
(103,102.5,o),
(100.5,102.5,o),
(98,102,cs),
(97,102,ls),
(95,102,o),
(93,101.5,o),
(90.5,101,c),
(91,101.5,o),
(91,102,o),
(91,102.5,cs),
(91,104,o),
(90,105,o),
(88.5,105,cs),
(87,105,o),
(85.5,105,o),
(84,104.5,c),
(57.5,131.5,ls),
(54.5,134,o),
(51.5,130,o),
(53.5,127.5,cs),
(78.5,103,l),
(68,98.5,o),
(57.5,88,o),
(53,79,c),
(36.5,75,o),
(19,73.5,o),
(1.5,72.5,cs),
(0,72.5,o),
(-1,71.5,o),
(-1,70,cs),
(-1,68.5,o),
(0,67.5,o),
(1.5,67.5,cs),
(18,68.5,o),
(34.5,69.5,o),
(50.5,73,c),
(50,72,o),
(50,71,o),
(50,70,cs),
(50,65,o),
(53.5,60.5,o),
(58,57,c),
(31.5,33,ls),
(29,30.5,o),
(32.5,27,o),
(34.5,29,cs),
(62.5,54.5,l),
(71.5,49,o),
(84,46,o),
(91,46,cs),
(94.5,46,o),
(98.5,47,o),
(102.5,49,c),
(120.5,18.5,ls)
);
},
{
closed = 1;
nodes = (
(55,66.5,o),
(55,70,cs),
(55,71.5,o),
(55.5,73,o),
(56,74.5,c),
(58,75,o),
(59.5,75.5,o),
(61.5,76,c),
(61,74,o),
(60.5,72,o),
(60.5,70,cs),
(60.5,67,o),
(61.5,64,o),
(63,61.5,c),
(60.5,60,o)
);
},
{
closed = 1;
nodes = (
(91.5,51.5,o),
(95.5,53,o),
(99,54.5,c),
(100,53,l),
(96.5,52,o),
(93.5,51,o),
(91,51,cs),
(87.5,51,l)
);
},
{
closed = 1;
nodes = (
(85,57.5,o),
(89.5,60.5,o),
(93,64.5,c),
(96.5,58.5,l),
(92.5,57,o),
(88,56,o),
(84,56,cs),
(81,56,l)
);
},
{
closed = 1;
nodes = (
(65,88,o),
(73.5,96,o),
(82.5,99,c),
(83.5,98,l),
(75,94.5,o),
(66.5,88,o),
(63.5,82,c),
(62,81.5,o),
(61,81,o),
(59.5,80.5,c)
);
},
{
closed = 1;
nodes = (
(69,60.5,o),
(67,70.5,o),
(67,77,cs),
(67,77.5,o),
(67.5,77.5,o),
(67.5,78,c),
(69.5,79,o),
(70,80.5,o),
(69.5,81.5,c),
(73,87,o),
(79.5,91.5,o),
(87.5,94.5,c),
(88.5,94,o),
(89.5,94.5,o),
(90,95,c),
(92.5,96,o),
(95,96.5,o),
(98,97,c),
(101.5,96.5,o),
(106,94.5,o),
(108.5,90,c),
(103.5,85,ls),
(100.5,82.5,o),
(104.5,79,o),
(106.5,81,cs),
(111,85.5,l),
(111.5,83.5,o),
(112,82,o),
(112,80,c),
(100.5,80,l),
(101,81,o),
(101,82.5,o),
(101,83.5,cs),
(101,85,o),
(100,86,o),
(98.5,86,cs),
(97,86,o),
(96,85,o),
(96,83.5,cs),
(96,82,o),
(96,81,o),
(95.5,79.5,c),
(88,79.5,ls),
(86.5,79.5,o),
(85.5,78.5,o),
(85.5,77,cs),
(85.5,75.5,o),
(86.5,74.5,o),
(88,74.5,cs),
(94,74.5,l),
(93.5,74,o),
(93,73,o),
(92.5,72,c),
(90,72.5,o),
(89,71.5,o),
(89,70,cs),
(89,69,o),
(89.5,68.5,o),
(90,68,c),
(86,63.5,o),
(81,60.5,o),
(76.5,60.5,cs)
);
},
{
closed = 1;
nodes = (
(82,80.5,o),
(83.5,82,o),
(83.5,84.5,cs),
(83.5,86.5,o),
(82,88,o),
(79.5,88,cs),
(77.5,88,o),
(76,86.5,o),
(76,84.5,cs),
(76,82,o),
(77.5,80.5,o),
(79.5,80.5,cs)
);
},
{
closed = 1;
nodes = (
(98.5,65.5,l),
(105,63.5,l),
(104,62.5,o),
(102.5,61.5,o),
(101,61,c)
);
},
{
closed = 1;
nodes = (
(103.5,56.5,l),
(106,58,o),
(108.5,60,o),
(110.5,61.5,c),
(112,61.5,l),
(109.5,59,o),
(107,57,o),
(104,55.5,c)
);
},
{
closed = 1;
nodes = (
(93,80,o),
(94.5,81.5,o),
(94.5,83.5,cs),
(94.5,86,o),
(93,87.5,o),
(91,87.5,cs),
(88.5,87.5,o),
(87,86,o),
(87,83.5,cs),
(87,81.5,o),
(88.5,80,o),
(91,80,cs)
);
},
{
closed = 1;
nodes = (
(97.5,71,l),
(98,72,o),
(99,73.5,o),
(99.5,75,c),
(112.5,75,l),
(112.5,72,o),
(111.5,69.5,o),
(109.5,67,c)
);
},
{
closed = 1;
nodes = (
(114.5,65.5,l),
(116.5,68.5,o),
(117.5,71.5,o),
(117.5,74.5,cs),
(117.5,75.5,l),
(124.5,75.5,l),
(122,72,o),
(119,68.5,o),
(116,65,c)
);
},
{
closed = 1;
nodes = (
(111,95,o),
(110,96,o),
(108.5,97.5,c),
(110.5,97,o),
(112.5,96.5,o),
(115,96,c),
(112,93.5,l)
);
},
{
closed = 1;
nodes = (
(116.5,83.5,o),
(116,86.5,o),
(114.5,89,c),
(120.5,94.5,l),
(125,92.5,o),
(129,90.5,o),
(129,88,cs),
(129,87,o),
(129,86,o),
(128.5,85,c),
(117.5,81,l)
);
}
);
width = 225;
}
);
},
{
export = 0;
glyphname = _part.spider2;
lastChange = "2023-04-26 06:53:45 +0000";
layers = (
{
layerId = m01;
shapes = (
{
closed = 1;
nodes = (
(61.5,16.5,o),
(63.5,21,o),
(60.5,22.5,cs),
(23,38,ls),
(21,38.5,o),
(21,39.5,o),
(23.5,42,cs),
(49.5,67.5,l),
(53.5,62.5,o),
(59,59,o),
(65.5,59,cs),
(69,59,o),
(68.5,56,o),
(72,56,cs),
(74.5,56,o),
(79.5,60.5,o),
(84,66,c),
(110.5,38.5,ls),
(111.5,37.5,o),
(111.5,37,o),
(109.5,36.5,cs),
(78,24.5,ls),
(75,23,o),
(76.5,18.5,o),
(80,19.5,cs),
(111.5,31.5,ls),
(117,33.5,o),
(118,39,o),
(113.5,42.5,c),
(87,70,l),
(88.5,72.5,o),
(90,75.5,o),
(91.5,78,c),
(114,77.5,o),
(123,69,o),
(125.5,61,c),
(125.5,60,o),
(126.5,59,o),
(128,59,cs),
(129.5,59,o),
(130.5,60,o),
(130.5,62,c),
(127.5,71.5,o),
(117.5,81,o),
(96,82.5,c),
(103.5,86.5,o),
(111.5,88,o),
(119.5,88,cs),
(126.5,88,o),
(130.5,90,o),
(132.5,96.5,c),
(132.5,98.5,o),
(131.5,99.5,o),
(130,99.5,cs),
(128.5,99.5,o),
(127.5,98.5,o),
(127.5,97.5,cs),
(126.5,94,o),
(124.5,93,o),
(119.5,93,cs),
(111.5,93,o),
(102,91.5,o),
(94,87.5,c),
(94,90,o),
(93,93,o),
(92,95.5,c),
(109,105.5,ls),
(113.5,108.5,o),
(117,113,o),
(111,119,cs),
(100,130.5,o),
(92.5,147,o),
(95.5,160.5,c),
(95.5,162.5,o),
(94.5,163.5,o),
(93,163.5,cs),
(91.5,163.5,o),
(90.5,162.5,o),
(90.5,161.5,cs),
(87.5,146,o),
(96,127.5,o),
(107,116,cs),
(110,113,o),
(109.5,111.5,o),
(106,109.5,cs),
(89.5,100,l),
(87.5,102,o),
(86,103.5,o),
(84.5,103.5,cs),
(78,103.5,o),
(76.5,108.5,o),
(70,108.5,cs),
(60.5,108.5,o),
(52.5,102,o),
(48,95.5,c),
(42,102.5,o),
(32.5,109,o),
(26.5,110.5,cs),
(22,112,o),
(22,114,o),
(25.5,117,cs),
(33,125,o),
(44,145,o),
(41.5,163,cs),
(41.5,164.5,o),
(40.5,165.5,o),
(39,165.5,cs),
(37.5,165.5,o),
(36.5,164.5,o),
(36.5,163,cs),
(39,146,o),
(29,128,o),
(21.5,121,cs),
(16,115,o),
(17,108,o),
(25.5,105.5,cs),
(31,104,o),
(40.5,97.5,o),
(45.5,90,c),
(45.5,90,o),
(45.5,89.5,o),
(45,89,c),
(30.5,88.5,o),
(9,93.5,o),
(4.5,98.5,cs),
(2,101,o),
(-1.5,97.5,o),
(0.5,95.5,cs),
(5,90,o),
(22.5,85,o),
(37.5,84,c),
(19,82,o),
(4,74,o),
(3,63,cs),
(3,61.5,o),
(4,60.5,o),
(5.5,60.5,cs),
(7,60.5,o),
(8,61.5,o),
(8,63,cs),
(9,71.5,o),
(24.5,79,o),
(45,79.5,c),
(45.5,77,o),
(46,74.5,o),
(47,72,c),
(19.5,46,ls),
(15,41.5,o),
(15,35.5,o),
(21,33,cs),
(58.5,17.5,ls)
);
}
);
width = 225;
}
);
},
{
export = 0;
glyphname = _part.spider3;
lastChange = "2023-04-26 07:00:46 +0000";
layers = (
{
layerId = m01;
shapes = (
{
closed = 1;
nodes = (
(89,15.5,o),
(92,19.5,o),
(89.5,22,cs),
(66,44,ls),
(65,45,o),
(65,45.5,o),
(64.5,46.5,cs),
(54.5,84.5,ls),
(54,85.5,o),
(54,85.5,o),
(55,85.5,c),
(63,88,l),
(90,61.5,l),
(92.5,58,o),
(97.5,58,o),
(100,61.5,c),
(127,88.5,ls),
(127.5,89,o),
(128,89.5,o),
(128.5,90.5,c),
(136,88.5,ls),
(137,88.5,o),
(137,88.5,o),
(136.5,87.5,cs),
(127,49,ls),
(126.5,47.5,o),
(126.5,47,o),
(125.5,46,cs),
(101.5,23.5,ls),
(99,21,o),
(102.5,17.5,o),
(104.5,19.5,cs),
(128.5,42,ls),
(130.5,44,o),
(131.5,45.5,o),
(132,48,cs),
(141.5,85.5,ls),
(142.5,89,o),
(141.5,92.5,o),
(137,93.5,cs),
(128.5,95.5,l),
(128,96.5,o),
(127.5,97,o),
(127,97.5,cs),
(110.5,114,l),
(118.5,122,l),
(171,121,ls),
(174,121,o),
(176.5,122.5,o),
(177.5,124,cs),
(191.5,138.5,ls),
(194,141,o),
(190,144,o),
(187.5,141.5,cs),
(173.5,127,l),
(173,126,o),
(172.5,126,o),
(171,126,cs),
(120.5,127,l),
(120.5,128.5,o),
(120,130,o),
(118.5,131.5,cs),
(112.5,138,l),
(172.5,155,l),
(176.5,155.5,o),
(178,158.5,o),
(177.5,163,c),
(169,191.5,ls),
(168.5,193,o),
(167.5,194.5,o),
(166,196.5,cs),
(139,223,ls),
(136,225.5,o),
(133,221.5,o),
(135,219,cs),
(162,192.5,ls),
(163.5,191.5,o),
(163.5,191,o),
(164,189.5,cs),
(172.5,162,ls),
(173,160,o),
(173,160,o),
(171.5,160,c),
(108.5,142,l),
(106.5,144,l),
(115.5,153.5,l),
(119,156,o),
(119,161,o),
(115.5,163.5,c),
(100,179.5,l),
(97.5,183,o),
(92.5,183,o),
(90,179.5,c),
(74,163.5,l),
(70.5,161,o),
(70.5,156,o),
(74,153.5,c),
(83.5,144,l),
(81,141.5,l),
(21.5,157,l),
(20,157,o),
(20,157,o),
(20.5,158.5,cs),
(28,187,ls),
(28.5,188,o),
(28.5,188.5,o),
(30,190,cs),
(56,217.5,ls),
(58.5,220,o),
(54.5,223,o),
(52,220.5,cs),
(26,193,ls),
(24.5,191.5,o),
(23.5,190,o),
(23,188,cs),
(15.5,159.5,ls),
(15,156,o),
(17,153,o),
(20.5,152,cs),
(77,137.5,l),
(71,131.5,ls),
(69,129.5,o),
(68.5,127,o),
(69.5,124.5,c),
(19,124.5,l),
(4.5,140,ls),
(2,142.5,o),
(-1.5,139,o),
(0.5,137,cs),
(17,119,ls),
(18.5,117,o),
(20.5,118,o),
(21,119.5,c),
(73.5,119.5,l),
(79,114,l),
(76,110.5,l),
(75.5,111,o),
(74.5,111.5,o),
(73.5,111.5,c),
(27.5,98.5,ls),
(24.5,97.5,o),
(22.5,94.5,o),
(22.5,92,cs),
(22.5,60.5,ls),
(22.5,59,o),
(23.5,58,o),
(25,58,cs),
(26.5,58,o),
(27.5,59,o),
(27.5,60.5,cs),
(27.5,92,ls),
(27.5,93,o),
(28,93.5,o),
(28.5,93.5,cs),
(70.5,105.5,l),
(62.5,97.5,ls),
(61,96,o),
(60.5,94,o),
(61,92.5,c),
(54,90.5,ls),
(49.5,89.5,o),
(48.5,86,o),
(49.5,82.5,cs),
(59.5,45.5,ls),
(60,43.5,o),
(61,42,o),
(63,40,cs),
(86.5,18,ls)
);
},
{
closed = 1;
nodes = (
(74.5,91,l),
(81,92.5,ls),
(82,92.5,o),
(83,93.5,o),
(83,95,cs),
(83,96.5,o),
(82,97.5,o),
(80,97.5,c),
(75.5,96,l),
(86,107,l),
(90.5,102.5,ls),
(93,100,o),
(97,100,o),
(99.5,102.5,cs),
(103.5,106.5,l),
(111,99.5,l),
(110,99,o),
(109.5,98,o),
(109.5,97,cs),
(109.5,95.5,o),
(110.5,94.5,o),
(111.5,94.5,cs),
(117.5,93,l),
(95,70.5,l)
);
},
{
closed = 1;
nodes = (
(93.5,114,l),
(95,115.5,l),
(96.5,114,l),
(95,112,l)
);
},
{
closed = 1;
nodes = (
(84.5,122.5,ls),
(84,123.5,o),
(83.5,124,o),
(82.5,124.5,c),
(80.5,127,l),
(90.5,137,l),
(93,134.5,o),
(97,134.5,o),
(99.5,137,c),
(109,127,l),
(103.5,121,l),
(99.5,125,ls),
(97,127.5,o),
(93,127.5,o),
(90.5,125,cs),
(86,121,l)
);
},
{
closed = 1;
nodes = (
(168.5,59,o),
(169.5,60,o),
(169.5,61.5,cs),
(170,95,ls),
(170,98,o),
(168,100,o),
(165,101.5,c),
(120.5,112.5,l),
(118.5,112.5,o),
(117.5,111.5,o),
(117.5,110,cs),
(117.5,108.5,o),
(118.5,107.5,o),
(119.5,107.5,cs),
(163,96.5,ls),
(164.5,96,o),
(165,95.5,o),
(165,95,cs),
(164.5,61.5,ls),
(164.5,60,o),
(165.5,59,o),
(167,59,cs)
);
},
{
closed = 1;
nodes = (
(83,158.5,l),
(95,170.5,l),
(106.5,158.5,l),
(99.5,151,l),
(97,153.5,o),
(93,153.5,o),
(90.5,151,c)
);
}
);
width = 225;
}
);
},
{
export = 0;
glyphname = _part.spider4;
lastChange = "2023-04-26 07:02:31 +0000";
layers = (
{
layerId = m01;
shapes = (
{
closed = 1;
nodes = (
(116.5,23,o),
(124.5,44.5,o),
(123.5,56.5,c),
(116.5,58.5,o),
(103.5,66.5,o),
(98.5,75.5,c),
(100.5,76,o),
(102,76.5,o),
(103.5,77.5,c),
(121,77,o),
(137.5,71,o),
(147,67.5,c),
(150.5,54,o),
(167,32,o),
(174.5,27,cs),
(177.5,25,o),
(180,29.5,o),
(177.5,31,cs),
(170,36,o),
(152.5,59,o),
(151,71.5,c),
(143.5,74.5,o),
(126.5,81,o),
(108,82,c),
(109.5,84,o),
(110,86.5,o),
(110,89,cs),
(110,90.5,l),
(119.5,92,o),
(129,93.5,o),
(137,97,c),
(144.5,89.5,o),
(167,77,o),
(176.5,75.5,cs),
(178,75.5,o),
(179,76.5,o),
(179,78,cs),
(179,79.5,o),
(178,80.5,o),
(176.5,80.5,cs),
(167.5,82,o),
(141,97,o),
(138.5,103,c),
(130,99,o),
(120,97,o),
(109,95.5,c),
(108,96.5,o),
(107.5,98,o),
(106.5,99,c),
(136.5,126,l),
(175,109.5,ls),
(178,108.5,o),
(180,113,o),
(177,114.5,cs),
(135.5,132,l),
(103.5,103,l),
(101,105,o),
(98,106,o),
(95,106,cs),
(92,106,o),
(89,104.5,o),
(86,101.5,c),
(75.5,111,o),
(60,122,o),
(49.5,124.5,c),
(32,118.5,o),
(17.5,112.5,o),
(3.5,111,cs),
(2,111,o),
(1,110,o),
(1,108.5,cs),
(1,107,o),
(2,106,o),
(3.5,106,cs),
(18.5,107.5,o),
(33,113.5,o),
(49.5,119.5,c),
(59,116.5,o),
(73,106.5,o),
(82.5,98,c),
(81.5,96.5,o),
(80.5,94.5,o),
(79.5,93,c),
(68.5,93,o),
(55.5,94.5,o),
(46,97.5,c),
(31,91.5,o),
(18.5,81,o),
(1.5,78.5,cs),
(0,78.5,o),
(-1,77.5,o),
(-1,76,cs),
(-1,74.5,o),
(0,73.5,o),
(1.5,73.5,cs),
(19.5,76,o),
(33,86.5,o),
(46,92.5,c),
(56,89.5,o),
(68,88.5,o),
(78.5,88,c),
(78.5,84.5,o),
(79,82.5,o),
(80,80.5,c),
(71.5,70,o),
(58,68,o),
(35,67.5,c),
(30.5,52,o),
(22.5,40.5,o),
(13,34.5,cs),
(9.5,32.5,o),
(14,29,o),
(16,30.5,cs),
(25.5,36.5,o),
(33.5,48,o),
(39,62.5,c),
(58,63,o),
(72,65.5,o),
(81.5,74.5,c),
(75.5,58,o),
(66.5,47,o),
(57.5,40.5,c),
(60.5,32.5,o),
(65,27.5,o),
(69.5,21.5,cs),
(72,18,o),
(75,22.5,o),
(73.5,24.5,cs),
(70,29.5,o),
(66.5,33.5,o),
(63.5,39,c),
(72.5,46.5,o),
(81,58,o),
(86.5,75,c),
(88.5,74.5,o),
(90,74.5,o),
(92,74.5,cs),
(93.5,74.5,l),
(97.5,65,o),
(110.5,56.5,o),
(118.5,53,c),
(118,42,o),
(111.5,26,o),
(108.5,23,cs),
(106,20.5,o),
(109.5,17,o),
(111.5,19,cs)
);
},
{
closed = 1;
nodes = (
(86,79.5,o),
(83.5,81.5,o),
(83.5,87.5,cs),
(83.5,89.5,l),
(84,89.5,o),
(84,90,o),
(84,90.5,cs),
(84.5,92,o),
(85.5,93.5,o),
(86.5,95,c),
(88.5,94.5,o),
(90,96.5,o),
(89.5,98,c),
(91.5,100,o),
(93.5,101,o),
(95,101,cs),
(99,101,o),
(102.5,98,o),
(104,93.5,c),
(104,92.5,ls),
(104,91.5,o),
(104.5,91,o),
(105,90.5,c),
(105,89,ls),
(105,83.5,o),
(101,80,o),
(93.5,79.5,c),
(95,79.5,o),
(96,80.5,o),
(96,82,cs),
(96,83,l),
(96.5,82.5,o),
(97.5,82.5,o),
(98.5,82.5,cs),
(102.5,82.5,o),
(103.5,87,o),
(103.5,89.5,cs),
(103.5,93.5,o),
(100,97,o),
(97,97,cs),
(90,97,o),
(84,92.5,o),
(84,88,cs),
(84,85,o),
(87.5,81,o),
(93,79.5,c),
(92,79.5,ls)
);
},
{
closed = 1;
nodes = (
(90.5,86,o),
(89,87.5,o),
(89,88,cs),
(89,88.5,o),
(89.5,89,o),
(90,89.5,c),
(90,87.5,o),
(91,86,o),
(92.5,85,c)
);
},
{
closed = 1;
nodes = (
(96.5,87.5,o),
(95,88.5,o),
(95,90.5,cs),
(95,91,o),
(95,91.5,o),
(94.5,92,c),
(97,92,ls),
(97.5,92,o),
(98.5,91,o),
(98.5,89.5,cs),
(98.5,87.5,l)
);
}
);
width = 225;
}
);
},
{
export = 0;
glyphname = _part.thief;
lastChange = "2023-04-26 06:54:04 +0000";
layers = (
{
layerId = m01;
shapes = (
{
closed = 1;
nodes = (
(163.5,23.5,o),
(165,26.5,o),
(165,29.5,cs),
(165,32,o),
(164,34,o),
(162.5,36,c),
(166,36.5,o),
(169.5,38,o),
(173.5,40.5,cs),
(176,42.5,o),
(178,45.5,o),
(178,49,cs),
(178,57.5,o),
(168.5,61,o),
(162.5,57.5,cs),
(159,55,o),
(159,55,o),
(157,56.5,cs),
(155.5,58,o),
(153,59,o),
(150.5,59,cs),
(149,59,l),
(143.5,66,o),
(136,80.5,o),
(129,80.5,cs),
(127,80.5,o),
(124,79.5,o),
(121,78,c),
(121,81.5,ls),
(121,86,o),
(119,90.5,o),
(116,94,c),
(120,97,o),
(124.5,100.5,o),
(124.5,100.5,c),
(124.5,100.5,o),
(137,83.5,o),
(143,75.5,c),
(142.5,74.5,o),
(142.5,73.5,o),
(142.5,72.5,cs),
(142.5,69.5,o),
(144,67,o),
(146,65,cs),
(155.5,56.5,o),
(168,58,o),
(177.5,70,cs),
(178.5,71.5,o),
(179.5,73.5,o),
(179.5,76,cs),
(179.5,81.5,o),
(175,86,o),
(169.5,86,cs),
(166.5,86,o),
(163.5,84.5,o),
(161.5,82,cs),
(159.5,79.5,o),
(159.5,79.5,o),
(159,80,cs),
(157.5,81.5,o),
(155,82.5,o),
(152.5,82.5,cs),
(150.5,82.5,l),
(144.5,90.5,o),
(132.5,107,o),
(126,110,c),
(126.5,111,o),
(127,111.5,o),
(127,112.5,c),
(129.5,113,o),
(131,115,o),
(131,117.5,cs),
(131,120,o),
(129,122.5,o),
(126,122.5,c),
(124.5,126,o),
(122,128.5,o),
(118.5,130.5,c),
(125,135,o),
(133,136,o),
(143,134.5,cs),
(146.5,134.5,o),
(148.5,136.5,o),
(148.5,139.5,cs),
(148.5,142.5,o),
(146.5,144.5,o),
(144,144.5,cs),
(131,146,o),
(118.5,144,o),
(108.5,135.5,c),
(108,135.5,o),
(108,135,o),
(107.5,134.5,c),
(105,135,o),
(102.5,135,o),
(100,135,cs),
(98,135,o),
(96,135,o),
(94,134.5,c),
(94,135,o),
(93.5,135.5,o),
(93,136,cs),
(87.5,142.5,o),
(77.5,143,o),
(71.5,138,cs),
(70.5,137,o),
(70,135.5,o),
(70,134,cs),
(70,129.5,o),
(75,127.5,o),
(78.5,130,c),
(79,131,o),
(80.5,131.5,o),
(81.5,131.5,c),
(78,129.5,o),
(75,127.5,o),
(73,125,c),
(71.5,125,ls),
(68,125,o),
(66,123,o),
(66,120,cs),
(66,118,o),
(67.5,116,o),
(69,115.5,c),
(69,115,o),
(69,114.5,o),
(69,114,cs),
(67.5,114,o),
(66,114,o),
(64,114,cs),
(58,114,o),
(41.5,105,o),
(32,97.5,c),
(30,99.5,o),
(27.5,100.5,o),
(25,100.5,cs),
(22.5,100.5,o),
(20.5,99.5,o),
(19,98.5,cs),
(16.5,96.5,o),
(13,95.5,o),
(11.5,96,cs),
(5,98,o),
(-1.5,93,o),
(-1.5,86.5,cs),
(-1.5,82,o),
(1.5,78,o),
(5.5,77,cs),
(12.5,75,o),
(23.5,76.5,o),
(31,82.5,cs),
(32.5,83.5,o),
(33.5,85,o),
(34.5,87,c),
(40,92,o),
(60,104,o),
(64,104,cs),
(67.5,104,o),
(68,101,o),
(70,97.5,c),
(67.5,95.5,o),
(65.5,92,o),
(64,88.5,c),
(61.5,91.5,o),
(59.5,93.5,o),
(56.5,93.5,cs),
(52,93.5,o),
(39.5,82,o),
(33,76,c),
(32,76.5,o),
(30.5,77,o),
(29,77,cs),
(26,77,o),
(23.5,76,o),
(22,74,cs),
(17,69,o),
(16,68.5,o),
(10.5,69,cs),
(4.5,69,o),
(0,64.5,o),
(0,59,cs),
(0,53.5,o),
(4.5,49,o),
(9.5,49,cs),
(14.5,49,l),
(10.5,47.5,o),
(7.5,44,o),
(7.5,39.5,cs),
(7.5,34.5,o),
(11,30.5,o),
(16,29.5,cs),
(27.5,27.5,o),
(36.5,32.5,o),
(45,39.5,cs),
(47,41,o),
(48.5,44,o),
(48.5,47,cs),
(48.5,49,o),
(48,51,o),
(46.5,52.5,c),
(51,61.5,o),
(53,63.5,o),
(55,63.5,cs),
(57,63.5,o),
(65.5,60,o),
(71,58.5,cs),
(76.5,55,o),
(82.5,52.5,o),
(89.5,52.5,cs),
(94,52.5,o),
(98.5,53.5,o),
(102.5,55,c),
(122.5,47.5,ls),
(125,46.5,o),
(128,42.5,o),
(129.5,37.5,c),
(128,34.5,o),
(128.5,30.5,o),
(130,28,cs),
(139,14.5,o),
(150.5,13.5,o),
(161,21.5,cs)
);
},
{
closed = 1;
nodes = (
(25,50.5,o),
(30.5,54,o),
(36,60,cs),
(38,61.5,o),
(39,64,o),
(39,67,cs),
(39,68,l),
(45,73,o),
(56.5,83.5,o),
(56.5,83.5,c),
(56.5,83.5,o),
(58.5,78.5,o),
(61.5,72,c),
(59,73,o),
(56.5,73.5,o),
(55,73.5,cs),
(48,73.5,o),
(44,68.5,o),
(37.5,57,c),
(35.5,57,o),
(33.5,56,o),
(32,54.5,cs),
(26.5,50,o),
(24,48.5,o),
(19,49.5,cs)
);
},
{
closed = 1;
nodes = (
(141.5,43,o),
(140,43.5,o),
(138.5,43.5,cs),
(137.5,43.5,l),
(135.5,49.5,o),
(131,55.5,o),
(125.5,57.5,cs),
(113,62,l),
(114.5,63.5,l),
(121,66.5,o),
(127,70.5,o),
(129,70.5,cs),
(130,70.5,o),
(136,59,o),
(141,52.5,c),
(140.5,51.5,o),
(140.5,50,o),
(140.5,49,cs),
(140.5,46.5,o),
(141.5,44,o),
(143,42.5,c)
);
},
{
closed = 1;
nodes = (
(148,37,o),
(148,37,o),
(147,39,c),
(146,40.5,o),
(148,38.5,o),
(149.5,37.5,c)
);
},
{
closed = 1;
nodes = (
(80.5,103.5,o),
(74,107.5,o),
(74,114,cs),
(77.5,114,o),
(81,114,o),
(84.5,113.5,c),
(85.5,111.5,o),
(88,110,o),
(90.5,110,cs),
(93,110,o),
(95,111,o),
(96.5,113,c),
(101.5,113,l),
(103,111.5,o),
(105,110.5,o),
(107,110.5,cs),
(109,110.5,o),
(111,111.5,o),
(112,112.5,c),
(122,112.5,l),
(119.5,107,o),
(111.5,103.5,o),
(99,103.5,cs)
);
},
{
closed = 1;
nodes = (
(117.5,122.5,o),
(115,122.5,o),
(112,123,c),
(110.5,124,o),
(109,125,o),
(107,125,cs),
(105,125,o),
(103.5,124,o),
(102,123,c),
(94.5,123,l),
(93.5,124,o),
(92,124.5,o),
(90.5,124.5,cs),
(89,124.5,o),
(88,124,o),
(87,123.5,c),
(84.5,123.5,o),
(81.5,124,o),
(79,124,c),
(81,126,o),
(83.5,127,o),
(87,128,c),
(89,126.5,o),
(92,127.5,o),
(93.5,129.5,c),
(95.5,130,o),
(97.5,130,o),
(100,130,cs),
(103,130,o),
(105.5,130,o),
(108,129.5,c),
(109,127.5,o),
(112,126.5,o),
(114,127.5,c),
(117,126.5,o),
(119,124.5,o),
(120.5,122.5,c)
);
}
);
width = 225;
}
);
},
{
export = 0;
glyphname = _part.worm1;
lastChange = "2023-04-26 06:53:16 +0000";
layers = (
{
layerId = m01;
shapes = (
{
closed = 1;
nodes = (
(22.5,17,o),
(27.5,19,o),
(27.5,24.5,cs),
(29.5,45,ls),
(29.5,46.5,o),
(28.5,47.5,o),
(27,47.5,cs),
(25.5,47.5,o),
(24.5,46.5,o),
(24.5,45,cs),
(22.5,25,l),
(11.5,41,ls),
(11,41.5,o),
(11,42,o),
(10.5,42,cs),
(12,42,o),
(14,43,o),
(16,44,cs),
(19,45.5,o),
(17,50,o),
(14,48,cs),
(8.5,45.5,o),
(5,46.5,o),
(4,60.5,cs),
(3,86.5,o),
(35,107,o),
(73.5,103,cs),
(102,100.5,o),
(115.5,117.5,o),
(114.5,153.5,cs),
(113.5,176.5,o),
(123.5,196.5,o),
(156,193,cs),
(179,190.5,o),
(194.5,205,o),
(204,230.5,cs),
(214.5,261,o),
(236,285,o),
(271.5,283.5,cs),
(273,283.5,o),
(274,284.5,o),
(274,286,cs),
(301.5,269.5,ls),
(303.5,268,o),
(304,267.5,o),
(302,268.5,c),
(292,271,o),
(278,270,o),
(269.5,262,cs),
(267,259.5,o),
(270.5,256,o),
(272.5,258,cs),
(280,265,o),
(292,266,o),
(300,263.5,cs),
(311.5,259.5,o),
(310,270.5,o),
(304.5,273.5,cs),
(275.5,291.5,ls),
(273,293,o),
(271,290.5,o),
(271.5,288.5,c),
(234,290,o),
(210.5,264,o),
(199,232.5,cs),
(190.5,208,o),
(177,195.5,o),
(157,198,cs),
(120.5,201.5,o),
(108.5,178.5,o),
(109.5,153.5,cs),
(110.5,119.5,o),
(99,105.5,o),
(73.5,108,cs),
(33,112,o),
(-2,89.5,o),
(-1,60.5,cs),
(0,47.5,o),
(3.5,42.5,o),
(9,42,c),
(7.5,41.5,o),
(6.5,39.5,o),
(7.5,38,cs),
(19,21.5,ls)
);
},
{
closed = 1;
nodes = (
(27.5,49.5,o),
(28.5,50.5,o),
(28.5,52,cs),
(28.5,77.5,o),
(44.5,98,o),
(77.5,85.5,cs),
(110,74,o),
(142.5,99,o),
(137,141,cs),
(133,166.5,o),
(138,179.5,o),
(160,173.5,cs),
(195.5,162.5,o),
(225.5,189.5,o),
(224,224,cs),
(223,245,o),
(247,263,o),
(271.5,265,cs),
(273,265,o),
(274,266,o),
(274,267.5,cs),
(274,269,o),
(273,270,o),
(271.5,270,cs),
(245,268,o),
(218,248,o),
(219,224,cs),
(220.5,192.5,o),
(193.5,168.5,o),
(161,178.5,cs),
(135,185.5,o),
(128,167.5,o),
(132,140,cs),
(137.5,102,o),
(108,80,o),
(79.5,90.5,cs),
(42.5,104,o),
(23.5,80.5,o),
(23.5,52,cs),
(23.5,50.5,o),
(24.5,49.5,o),
(26,49.5,cs)
);
}
);
width = 300;
}
);
},
{
export = 0;
glyphname = _part.insect2.alt;
lastChange = "2023-04-25 06:37:40 +0000";
layers = (
{
layerId = m01;
shapes = (
{
attr = {
lineCapEnd = "1";
lineCapStart = "1";
strokeWidth = 5;
};
closed = 0;
nodes = (
(65,105,l),
(62.5,107.5,o),
(61,113,o),
(57.5,113,cs),
(53.5,113,o),
(47.5,112.5,o),
(47.5,107,cs),
(47.5,102,o),
(52,101,o),
(55.5,101,cs),
(59.5,101,o),
(62,94.5,o),
(56,94.5,cs),
(50,94.5,o),
(46.5,89,o),
(46.5,85,cs),
(46.5,81.5,o),
(49,79.5,o),
(55,79.5,cs),
(58.5,79.5,o),
(59,76.5,o),
(59,73,cs),
(59,69.5,o),
(59.5,68,o),
(56,68,cs),
(51,68,o),
(50.5,60,o),
(56.5,60,cs),
(61,60,o),
(61.5,57,o),
(61.5,53,cs),
(61.5,39.5,o),
(55,24.5,o),
(49,20.5,cs)
);
},
{
attr = {
lineCapEnd = "1";
lineCapStart = "1";
strokeWidth = 5;
};
closed = 0;
nodes = (
(36.5,57.5,l),
(47.5,40.5,o),
(65.5,37,o),
(72.5,47,c)
);
},
{
attr = {
lineCapEnd = "1";
lineCapStart = "1";
strokeWidth = 5;
};
closed = 0;
nodes = (
(74.5,21.5,l),
(68.5,32,o),
(60.5,40.5,o),
(49,33,c)
);
},
{
attr = {
lineCapEnd = "1";
lineCapStart = "1";
strokeWidth = 5;
};
closed = 0;
nodes = (
(76.5,35,l),
(72.5,38,o),
(72.5,42.5,o),
(64,44,cs),
(55,45,o),
(54,50,o),
(59,50,cs),
(64,50.5,o),
(64,57,o),
(56.5,57,cs),
(49.5,57,o),
(49,62,o),
(55.5,64,cs),
(62,66,o),
(64,71,o),
(48.5,71,cs),
(43.5,71,o),
(43,75,o),
(47.5,75.5,cs),
(59,76.5,o),
(60,82,o),
(56,84,cs),
(40,90.5,o),
(41.5,94,o),
(46.5,96,cs),
(55,98.5,o),
(61,104,o),
(44,103.5,cs)
);
},
{
attr = {
lineCapEnd = "1";
lineCapStart = "1";
strokeWidth = 5;
};
closed = 0;
nodes = (
(65.5,66.5,l),
(65.5,63,l)
);
},
{
attr = {
lineCapEnd = "1";
lineCapStart = "1";
strokeWidth = 5;
};
closed = 0;
nodes = (
(41.5,84.5,l),
(41.5,81,l)
);
},
{
attr = {
lineCapEnd = "1";
lineCapStart = "1";
strokeWidth = 5;
};
closed = 0;
nodes = (
(46.5,99.5,l),
(40.5,99.5,l)
);
},
{
attr = {
lineCapEnd = "1";
lineCapStart = "1";
strokeWidth = 5;
};
closed = 0;
nodes = (
(62,127.5,l),
(62,124.5,l)
);
}
);
width = 200;
}
);
},
